SplineFontDB: 3.0
FontName: Oswald
FullName: Oswald Thin Regular
FamilyName: Oswald
Weight: Thin
Copyright: 2010-2013 (c) vernon adams
Version: 
ItalicAngle: 0
UnderlinePosition: -91
UnderlineWidth: 28
Ascent: 1658
Descent: 390
UFOAscent: 1658
UFODescent: -390
LayerCount: 2
Layer: 0 0 "Back"  1
Layer: 1 0 "Fore"  0
OS2Version: 0
OS2_WeightWidthSlopeOnly: 0
OS2_UseTypoMetrics: 0
CreationTime: 1371831787
ModificationTime: 1371834557
PfmFamily: 0
TTFWeight: 100
TTFWidth: 5
LineGap: 0
VLineGap: 0
OS2TypoAscent: 1638
OS2TypoAOffset: 0
OS2TypoDescent: 410
OS2TypoDOffset: 0
OS2TypoLinegap: 0
OS2WinAscent: 2314
OS2WinAOffset: 0
OS2WinDescent: 597
OS2WinDOffset: 0
HheadAscent: 2194
HheadAOffset: 0
HheadDescent: -480
HheadDOffset: 0
OS2Vendor: 'newt'
OS2CodePages: 00000001.00000000
OS2UnicodeRanges: 00000001.00000000.00000000.00000000
Lookup: 260 0 0 "'mark' Mark Positioning lookup 3"  {"'mark' Mark Positioning lookup 3-1"  } ['mark' ('DFLT' <'dflt' > 'cyrl' <'dflt' > 'grek' <'dflt' > 'latn' <'dflt' > ) ]
Lookup: 258 0 0 "'kern' Horizontal Kerning in Latin lookup 0"  {"'kern' Horizontal Kerning in Latin lookup 0 subtable"  } ['kern' ('latn' <'dflt' > ) ]
Lookup: 258 0 0 "kernHorizontalKerninginLatinloo"  {"kernHorizontalKerninginLatinloo subtable"  } ['kern' ('latn' <'dflt' > ) ]
Lookup: 258 0 0 "pos_pair_kernlatn_0"  {"pos_pair_kernlatn_0 subtable"  } ['kern' ('latn' <'dflt' > ) ]
MarkAttachClasses: 1
DEI: 91125
LangName: 1033 "" "" "" "" "" "" "" "" "Vernon Adams" "Vernon Adams" "" "newtypography.co.uk" "newtypography.co.uk" 
Encoding: Oswald_latin_Cyrillic
Compacted: 1
UnicodeInterp: none
NameList: AGL For New Fonts
DisplaySize: -48
AntiAlias: 1
FitToEm: 1
WinInfo: 243 27 12
BeginPrivate: 4
BlueValues 24 [-16 0 694 710 997 1011]
OtherBlues 11 [-228 -223]
BlueShift 1 0
BlueScale 6 0.0212
EndPrivate
AnchorClass2: "ogonek"  "'mark' Mark Positioning lookup 3-1" 
BeginChars: 65542 556

StartChar: A
Encoding: 33 65 0
Width: 911
VWidth: 0
GlyphClass: 2
Flags: HW
AnchorPoint: "ogonek" 812 0 basechar 0
LayerCount: 2
UndoRedoHistory
Layer: 1
Undoes
EndUndoes
Redoes
EndRedoes
EndUndoRedoHistory
Fore
SplineSet
233 524 m 1
 680 524 l 1
 455 1600 l 1
 233 524 l 1
63 0 m 1
 409 1658 l 1
 499 1658 l 1
 848 0 l 1
 780 0 l 1
 690 474 l 1
 222 474 l 1
 129 0 l 1
 63 0 l 1
EndSplineSet
EndChar

StartChar: AE
Encoding: 134 198 1
Width: 1284
VWidth: 0
GlyphClass: 2
Flags: HW
LayerCount: 2
UndoRedoHistory
Layer: 1
Undoes
EndUndoes
Redoes
EndRedoes
EndUndoRedoHistory
Fore
SplineSet
282 532 m 1
 662 532 l 1
 662 1591 l 1
 282 532 l 1
-1 0 m 1
 620 1658 l 1
 1212 1658 l 1
 1212 1590 l 1
 738 1590 l 1
 738 899 l 1
 1077 899 l 1
 1077 840 l 1
 738 840 l 1
 738 68 l 1
 1212 68 l 1
 1212 0 l 1
 664 0 l 1
 664 474 l 1
 262 474 l 1
 93 0 l 1
 -1 0 l 1
EndSplineSet
EndChar

StartChar: B
Encoding: 34 66 11
Width: 970
VWidth: 0
GlyphClass: 2
Flags: HW
LayerCount: 2
UndoRedoHistory
Layer: 1
Undoes
EndUndoes
Redoes
EndRedoes
EndUndoRedoHistory
Fore
SplineSet
489 1658 m 2
 796 1658 849 1453 849 1246 c 0
 849 1141 832 942 672 894 c 1
 863 834 882 599 882 486 c 0
 882 251 863 0 535 0 c 2
 162 0 l 1
 162 1658 l 1
 489 1658 l 2
226 1602 m 1
 226 917 l 1
 563 917 l 2
 743 917 785 1085 785 1246 c 0
 785 1413 761 1602 493 1602 c 2
 226 1602 l 1
226 864 m 1
 226 56 l 1
 537 56 l 2
 761 56 818 195 818 485 c 0
 818 678 763 864 566 864 c 2
 226 864 l 1
EndSplineSet
EndChar

StartChar: C
Encoding: 35 67 12
Width: 979
VWidth: 0
GlyphClass: 2
Flags: HW
LayerCount: 2
UndoRedoHistory
Layer: 1
Undoes
EndUndoes
Redoes
EndRedoes
EndUndoRedoHistory
Fore
SplineSet
514 -24 m 0
 196 -24 126 191 126 456 c 2
 126 1206 l 2
 126 1472 208 1678 514 1678 c 0
 793 1678 876 1490 876 1215 c 2
 876 1150 l 1
 816 1150 l 1
 816 1223 l 2
 816 1479 740 1623 514 1623 c 0
 254 1623 190 1455 190 1211 c 2
 190 446 l 2
 190 203 254 32 514 32 c 0
 748 32 816 188 816 427 c 2
 816 517 l 1
 876 517 l 1
 876 453 l 2
 876 178 801 -24 514 -24 c 0
EndSplineSet
EndChar

StartChar: D
Encoding: 36 68 18
Width: 1051
VWidth: 0
GlyphClass: 2
Flags: HW
LayerCount: 2
UndoRedoHistory
Layer: 1
Undoes
EndUndoes
Redoes
EndRedoes
EndUndoRedoHistory
Fore
SplineSet
528 1658 m 2
 841 1658 925 1431 925 1194 c 2
 925 474 l 2
 925 215 843 0 534 0 c 2
 162 0 l 1
 162 1658 l 1
 528 1658 l 2
226 1602 m 1
 226 56 l 1
 533 56 l 2
 807 56 861 264 861 473 c 2
 861 1192 l 2
 861 1431 790 1602 528 1602 c 2
 226 1602 l 1
EndSplineSet
EndChar

StartChar: Dcroat
Encoding: 208 272 20
Width: 1051
VWidth: 0
GlyphClass: 2
Flags: HW
LayerCount: 2
UndoRedoHistory
Layer: 1
Undoes
EndUndoes
Redoes
EndRedoes
EndUndoRedoHistory
Fore
SplineSet
226 56 m 1
 533 56 l 2
 807 56 861 264 861 473 c 2
 861 1192 l 2
 861 1431 790 1602 528 1602 c 2
 226 1602 l 1
 226 905 l 1
 445 905 l 1
 445 853 l 1
 226 853 l 1
 226 56 l 1
528 1658 m 2
 841 1658 925 1431 925 1194 c 2
 925 474 l 2
 925 215 843 0 534 0 c 2
 162 0 l 1
 162 853 l 1
 14 853 l 1
 14 905 l 1
 162 905 l 1
 162 1658 l 1
 528 1658 l 2
EndSplineSet
EndChar

StartChar: U+2206
Encoding: 543 8710 21
Width: 909
VWidth: 0
GlyphClass: 2
Flags: HW
LayerCount: 2
UndoRedoHistory
Layer: 1
Undoes
EndUndoes
Redoes
EndRedoes
EndUndoRedoHistory
Fore
SplineSet
30 0 m 1
 432 1658 l 1
 500 1658 l 1
 879 0 l 1
 30 0 l 1
107 54 m 1
 803 54 l 1
 687.780167623 553.44683429 576.086901026 1056.42023436 466 1561 c 1
 349.057388779 1055.94261122 230.057375879 552.942624121 107 54 c 1
EndSplineSet
EndChar

StartChar: E
Encoding: 37 69 22
Width: 792
VWidth: 0
GlyphClass: 2
Flags: HW
AnchorPoint: "ogonek" 532 0 basechar 0
LayerCount: 2
UndoRedoHistory
Layer: 1
Undoes
EndUndoes
Redoes
EndRedoes
EndUndoRedoHistory
Fore
SplineSet
707 1658 m 1
 707 1602 l 1
 225 1602 l 1
 225 889 l 1
 622 889 l 1
 622 834 l 1
 225 834 l 1
 225 56 l 1
 712 56 l 1
 712 0 l 1
 161 0 l 1
 161 1658 l 1
 707 1658 l 1
EndSplineSet
EndChar

StartChar: Eng
Encoding: 263 330 31
Width: 1106
VWidth: 0
GlyphClass: 2
Flags: HW
LayerCount: 2
UndoRedoHistory
Layer: 1
Undoes
EndUndoes
Redoes
EndRedoes
EndUndoRedoHistory
Fore
SplineSet
601 -252 m 1
 601 -207 l 1
 773.635 -210 820 -167 820 -48 c 2
 820 0 l 1
 222 1512 l 1
 222 0 l 1
 162 0 l 1
 162 1658 l 1
 224 1658 l 1
 823 137 l 1
 823 1658 l 1
 883 1658 l 1
 883 0 l 2
 883 -165.357 839.434 -252 656 -252 c 2
 601 -252 l 1
EndSplineSet
EndChar

StartChar: Eth
Encoding: 144 208 33
Width: 1185
VWidth: 0
GlyphClass: 2
Flags: HW
LayerCount: 2
UndoRedoHistory
Layer: 1
Undoes
EndUndoes
Redoes
EndRedoes
EndUndoRedoHistory
Fore
SplineSet
162 853 m 1
 14 853 l 1
 14 905 l 1
 162 905 l 1
 162 1658 l 1
 528 1658 l 2
 841 1658 925 1431 925 1194 c 2
 925 474 l 2
 925 215 843 0 534 0 c 2
 162 0 l 1
 162 853 l 1
226 853 m 1
 226 56 l 1
 533 56 l 2
 807 56 861 264 861 473 c 2
 861 1192 l 2
 861 1431 790 1602 528 1602 c 2
 226 1602 l 1
 226 905 l 1
 445 905 l 1
 445 853 l 1
 226 853 l 1
EndSplineSet
EndChar

StartChar: Euro
Encoding: 510 8364 34
Width: 971
VWidth: 0
GlyphClass: 2
Flags: HW
LayerCount: 2
UndoRedoHistory
Layer: 1
Undoes
EndUndoes
Redoes
EndRedoes
EndUndoRedoHistory
Fore
SplineSet
514 -24 m 0
 196 -24 126 191 126 456 c 2
 126 641 l 1
 -19 641 l 1
 -19 685 l 1
 126 685 l 1
 126 1029 l 1
 -19 1029 l 1
 -19 1073 l 1
 126 1073 l 1
 126 1206 l 2
 126 1472 208 1678 514 1678 c 0
 793 1678 876 1490 876 1215 c 2
 876 1150 l 1
 816 1150 l 1
 816 1223 l 2
 816 1479 740 1623 514 1623 c 0
 254 1623 190 1455 190 1211 c 2
 190 1073 l 1
 519 1073 l 1
 519 1029 l 1
 190 1029 l 1
 190 685 l 1
 519 685 l 1
 519 641 l 1
 190 641 l 1
 190 446 l 2
 190 203 254 32 514 32 c 0
 748 32 816 188 816 427 c 2
 816 517 l 1
 876 517 l 1
 876 453 l 2
 876 178 801 -24 514 -24 c 0
EndSplineSet
EndChar

StartChar: F
Encoding: 38 70 35
Width: 686
VWidth: 0
GlyphClass: 2
Flags: HW
LayerCount: 2
UndoRedoHistory
Layer: 1
Undoes
EndUndoes
Redoes
EndRedoes
EndUndoRedoHistory
Fore
SplineSet
162 0 m 1
 162 1658 l 1
 706 1658 l 1
 706 1602 l 1
 226 1602 l 1
 226 889 l 1
 655 889 l 1
 655 834 l 1
 226 834 l 1
 226 0 l 1
 162 0 l 1
EndSplineSet
EndChar

StartChar: G
Encoding: 39 71 36
Width: 1024
VWidth: 0
GlyphClass: 2
Flags: HW
LayerCount: 2
UndoRedoHistory
Layer: 1
Undoes
EndUndoes
Redoes
EndRedoes
EndUndoRedoHistory
Fore
SplineSet
834 0 m 1
 819.108021109 184.37688151 l 1
 779.994581017 52.2474500185 691.770502438 -24 514 -24 c 0
 196 -24 126 190 126 455 c 2
 126 1220 l 2
 126 1483 208 1678 514 1678 c 0
 793 1678 876 1485 876 1210 c 2
 876 1154 l 1
 816 1154 l 1
 816 1223 l 2
 816 1479 740 1623 514 1623 c 0
 254 1623 190 1455 190 1211 c 2
 190 446 l 2
 190 203 254 32 514 32 c 0
 748 32 813 188 813 427 c 0
 813 525.666666667 813 624.333333333 813 723 c 1
 528 723 l 1
 528 777 l 1
 876 777 l 1
 876 0 l 1
 834 0 l 1
EndSplineSet
EndChar

StartChar: H
Encoding: 40 72 42
Width: 1093
VWidth: 0
GlyphClass: 2
Flags: HW
LayerCount: 2
UndoRedoHistory
Layer: 1
Undoes
EndUndoes
Redoes
EndRedoes
EndUndoRedoHistory
Fore
SplineSet
161 0 m 1
 161 1658 l 1
 225 1658 l 1
 225 898 l 1
 868 898 l 1
 868 1658 l 1
 932 1658 l 1
 932 0 l 1
 868 0 l 1
 868 846 l 1
 225 846 l 1
 225 0 l 1
 161 0 l 1
EndSplineSet
EndChar

StartChar: Hbar
Encoding: 228 294 43
Width: 1093
VWidth: 0
GlyphClass: 2
Flags: HW
LayerCount: 2
UndoRedoHistory
Layer: 1
Undoes
EndUndoes
Redoes
EndRedoes
EndUndoRedoHistory
Fore
SplineSet
868 0 m 1
 868 846 l 1
 225 846 l 1
 225 0 l 1
 161 0 l 1
 161 1329 l 1
 93 1329 l 1
 93 1373 l 1
 161 1373 l 1
 161 1658 l 1
 225 1658 l 1
 225 1373 l 1
 868 1373 l 1
 868 1658 l 1
 932 1658 l 1
 932 1373 l 1
 1001 1373 l 1
 1001 1329 l 1
 932 1329 l 1
 932 0 l 1
 868 0 l 1
868 1329 m 1
 225 1329 l 1
 225 898 l 1
 868 898 l 1
 868 1329 l 1
EndSplineSet
EndChar

StartChar: I
Encoding: 41 73 45
Width: 388
VWidth: 0
GlyphClass: 2
Flags: HW
LayerCount: 2
UndoRedoHistory
Layer: 1
Undoes
EndUndoes
Redoes
EndRedoes
EndUndoRedoHistory
Fore
SplineSet
162 0 m 1
 162 1658 l 1
 226 1658 l 1
 226 0 l 1
 162 0 l 1
EndSplineSet
EndChar

StartChar: J
Encoding: 42 74 56
Width: 513
VWidth: 0
GlyphClass: 2
Flags: HW
LayerCount: 2
UndoRedoHistory
Layer: 1
Undoes
EndUndoes
Redoes
EndRedoes
EndUndoRedoHistory
Fore
SplineSet
17 -114 m 1
 17 -58 l 1
 278 -57 287 -9 287 279 c 2
 287 1658 l 1
 351 1658 l 1
 351 1192.66666667 351 727.333333333 351 262 c 0
 350.242642914 3.83217770409 330.012343599 -114 54 -114 c 2
 17 -114 l 1
EndSplineSet
EndChar

StartChar: K
Encoding: 43 75 58
Width: 909
VWidth: 0
GlyphClass: 2
Flags: HW
LayerCount: 2
UndoRedoHistory
Layer: 1
Undoes
EndUndoes
Redoes
EndRedoes
EndUndoRedoHistory
Fore
SplineSet
847 0 m 1
 415 916 l 1
 225 570.389140271 l 1
 225 0 l 1
 161 0 l 1
 161 1658 l 1
 225 1658 l 1
 225 667.698555957 l 1
 748 1658 l 1
 815 1658 l 1
 455 969 l 1
 913 0 l 1
 847 0 l 1
EndSplineSet
EndChar

StartChar: L
Encoding: 44 76 60
Width: 744
VWidth: 0
GlyphClass: 2
Flags: HW
LayerCount: 2
UndoRedoHistory
Layer: 1
Undoes
EndUndoes
Redoes
EndRedoes
EndUndoRedoHistory
Fore
SplineSet
226 56 m 1
 758 56 l 1
 758 0 l 1
 162 0 l 1
 162 1658 l 1
 226 1658 l 1
 226 56 l 1
EndSplineSet
EndChar

StartChar: Lslash
Encoding: 255 321 65
Width: 744
VWidth: 0
GlyphClass: 2
Flags: HW
LayerCount: 2
UndoRedoHistory
Layer: 1
Undoes
EndUndoes
Redoes
EndRedoes
EndUndoRedoHistory
Fore
SplineSet
162 860.090526316 m 1
 14 785 l 1
 14 841 l 1
 162 916.090526316 l 1
 162 1658 l 1
 226 1658 l 1
 226 948.562105263 l 1
 489 1082 l 1
 489 1026 l 1
 226 892.562105263 l 1
 226 56 l 1
 758 56 l 1
 758 0 l 1
 162 0 l 1
 162 860.090526316 l 1
EndSplineSet
EndChar

StartChar: M
Encoding: 45 77 66
Width: 1271
VWidth: 0
GlyphClass: 2
Flags: HW
LayerCount: 2
UndoRedoHistory
Layer: 1
Undoes
EndUndoes
Redoes
EndRedoes
EndUndoRedoHistory
Fore
SplineSet
136 0 m 1
 193 1658 l 1
 255 1658 l 1
 632 101 l 1
 1010 1658 l 1
 1081 1658 l 1
 1135 0 l 1
 1075 0 l 1
 1025 1467 l 1
 664 0 l 1
 602 0 l 1
 246 1462 l 1
 196 0 l 1
 136 0 l 1
EndSplineSet
EndChar

StartChar: N
Encoding: 46 78 67
Width: 1045
VWidth: 0
GlyphClass: 2
Flags: HW
LayerCount: 2
UndoRedoHistory
Layer: 1
Undoes
EndUndoes
Redoes
EndRedoes
EndUndoRedoHistory
Fore
SplineSet
162 0 m 1
 162 1658 l 1
 224 1658 l 1
 823 137 l 1
 823 1658 l 1
 883 1658 l 1
 883 0 l 1
 820 0 l 1
 222 1512 l 1
 222 0 l 1
 162 0 l 1
EndSplineSet
EndChar

StartChar: O
Encoding: 47 79 72
Width: 1056
VWidth: 0
GlyphClass: 2
Flags: HW
HStem: -24 56<373.143 682.465> 1623 55<375.557 680.443>
VStem: 126 64<224.174 452 1215 1428.99> 866 64<228.458 448 1215 1428.99>
AnchorPoint: "ogonek" 602 0 basechar 0
LayerCount: 2
UndoRedoHistory
Layer: 1
Undoes
EndUndoes
Redoes
EndRedoes
EndUndoRedoHistory
Fore
SplineSet
528 -24 m 0
 209 -24 126 187 126 452 c 2
 126 1215 l 2
 126 1478 222 1678 528 1678 c 0
 834 1678 930 1478 930 1215 c 2
 930 448 l 2
 930 183 846 -24 528 -24 c 0
528 32 m 0
 787 32 866 197 866 438 c 2
 866 1219 l 2
 866 1460 788 1623 528 1623 c 0
 268 1623 190 1461 190 1219 c 2
 190 438 l 2
 190 196 268 32 528 32 c 0
EndSplineSet
EndChar

StartChar: OE
Encoding: 271 338 73
Width: 1218
VWidth: 0
GlyphClass: 2
Flags: HW
LayerCount: 2
UndoRedoHistory
Layer: 1
Undoes
EndUndoes
Redoes
EndRedoes
EndUndoRedoHistory
Fore
SplineSet
528 62 m 2
 688 62 l 1
 688 1598 l 1
 528 1598 l 2
 268 1598 189 1442 189 1217 c 2
 189 443 l 2
 189 225 269 62 528 62 c 2
528 0 m 2
 210 0 126 213 126 453 c 2
 126 1207 l 2
 126 1460 223 1658 528 1658 c 2
 1154 1658 l 1
 1154 1598 l 1
 750 1598 l 1
 750 899 l 1
 1090 899 l 1
 1090 844 l 1
 750 844 l 1
 750 62 l 1
 1154 62 l 1
 1154 0 l 1
 528 0 l 2
EndSplineSet
EndChar

StartChar: Oslash
Encoding: 152 216 81
Width: 1056
VWidth: 0
GlyphClass: 2
Flags: HW
LayerCount: 2
UndoRedoHistory
Layer: 1
Undoes
EndUndoes
Redoes
EndRedoes
EndUndoRedoHistory
Fore
SplineSet
528 -24 m 0
 436.789911611 -24 364.873561814 -6.75008964883 308.674534755 24.0798141314 c 1
 239 -211 l 1
 199 -200 l 1
 272.345329729 47.4649675205 l 1
 160.885059023 131.093614025 126 280.198655282 126 452 c 2
 126 1215 l 2
 126 1478 222 1678 528 1678 c 0
 615.667292932 1678 686.097984637 1661.58418931 741.97280688 1631.97414908 c 1
 806 1848 l 1
 846 1837 l 1
 778.512358282 1609.29869812 l 1
 889.800896302 1528.99485409 930 1385.18775795 930 1215 c 2
 930 448 l 2
 930 183 846 -24 528 -24 c 0
760.638875807 1548.99409828 m 1
 326.040615231 82.6724546829 l 1
 375.971710926 49.9268351826 442.038648136 32 528 32 c 0
 787 32 866 197 866 438 c 2
 866 1219 l 2
 866 1362.77372487 838.239993301 1478.78744304 760.638875807 1548.99409828 c 1
725.26629784 1575.60688299 m 1
 675.910521266 1606.27068577 611.294939132 1623 528 1623 c 0
 268 1623 190 1461 190 1219 c 2
 190 438 l 2
 190 296.354436262 216.722053253 181.430925776 291.020486464 110.47439255 c 1
 725.26629784 1575.60688299 l 1
EndSplineSet
EndChar

StartChar: P
Encoding: 48 80 83
Width: 976
VWidth: 0
GlyphClass: 2
Flags: HW
LayerCount: 2
UndoRedoHistory
Layer: 1
Undoes
EndUndoes
Redoes
EndRedoes
EndUndoRedoHistory
Fore
SplineSet
162 0 m 1
 162 1658 l 1
 543 1658 l 2
 842 1658 919 1472 919 1242 c 0
 919 1040 851 800 546 800 c 2
 226 800 l 1
 226 0 l 1
 162 0 l 1
226 1604 m 1
 226 855 l 1
 542 855 l 2
 742 855 848 964 848 1242 c 0
 848 1523 748 1604 543 1604 c 2
 226 1604 l 1
EndSplineSet
EndChar

StartChar: U+03a0
Encoding: 565 928 84
Width: 1151
VWidth: 0
GlyphClass: 2
Flags: HW
LayerCount: 2
UndoRedoHistory
Layer: 1
Undoes
EndUndoes
Redoes
EndRedoes
EndUndoRedoHistory
Fore
SplineSet
161 0 m 1
 161 1658 l 1
 990 1658 l 1
 990 0 l 1
 926 0 l 1
 926 1606 l 1
 225 1606 l 1
 225 0 l 1
 161 0 l 1
EndSplineSet
EndChar

StartChar: Q
Encoding: 49 81 85
Width: 1058
VWidth: 0
GlyphClass: 2
Flags: HW
LayerCount: 2
UndoRedoHistory
Layer: 1
Undoes
EndUndoes
Redoes
EndRedoes
EndUndoRedoHistory
Fore
SplineSet
874 -313 m 1
 807.67172571 -281.320824213 705.081638344 -168.297581262 596.306659242 -20.5009880539 c 1
 574.837175508 -22.8120705533 552.090026137 -24 528 -24 c 0
 209 -24 126 187 126 452 c 2
 126 1215 l 2
 126 1478 222 1678 528 1678 c 0
 834 1678 930 1478 930 1215 c 2
 930 448 l 2
 930 220.21112775 867.934172916 35.2772313435 648.533618771 -12.1679152416 c 1
 702.576338082 -82.3851241358 819.1777807 -212.27926111 874 -247 c 1
 874 -313 l 1
528 32 m 0
 787 32 866 197 866 438 c 2
 866 1219 l 2
 866 1460 788 1623 528 1623 c 0
 268 1623 190 1461 190 1219 c 2
 190 438 l 2
 190 196 268 32 528 32 c 0
EndSplineSet
EndChar

StartChar: R
Encoding: 50 82 86
Width: 1032
VWidth: 0
GlyphClass: 2
Flags: HW
LayerCount: 2
UndoRedoHistory
Layer: 1
Undoes
EndUndoes
Redoes
EndRedoes
EndUndoRedoHistory
Fore
SplineSet
862 0 m 1
 586 860 l 1
 226 860 l 1
 226 0 l 1
 162 0 l 1
 162 1658 l 1
 593 1658 l 2
 871 1658 908 1455 908 1263 c 0
 908 1079 870 893 646 867 c 1
 927 0 l 1
 862 0 l 1
226 1602 m 1
 226 912 l 1
 591 912 l 2
 810 912 844 1063 844 1263 c 0
 844 1478 791 1602 584 1602 c 2
 226 1602 l 1
EndSplineSet
EndChar

StartChar: S
Encoding: 51 83 90
Width: 908
VWidth: 0
GlyphClass: 2
Flags: HW
LayerCount: 2
UndoRedoHistory
Layer: 1
Undoes
EndUndoes
Redoes
EndRedoes
EndUndoRedoHistory
Fore
SplineSet
472 -23 m 0
 220 -23 111 135 87 387 c 1
 142 407 l 1
 177 171 242 33 474 33 c 0
 657 33 773 114 773 329 c 0
 773 473 691 586 542 738 c 1
 228 1062 l 2
 129 1165 91 1271 91 1355 c 0
 91 1567 236 1678 443 1678 c 0
 654 1678 800 1591 817 1267 c 1
 764 1258 l 1
 740 1519 656 1625 448 1625 c 0
 280 1625 149 1547 149 1358 c 0
 149 1280 179 1197 276 1097 c 2
 584 782 l 2
 719 643 833 495 833 331 c 0
 833 81 683 -23 472 -23 c 0
EndSplineSet
EndChar

StartChar: T
Encoding: 52 84 96
Width: 763
VWidth: 0
GlyphClass: 2
Flags: HW
LayerCount: 2
UndoRedoHistory
Layer: 1
Undoes
EndUndoes
Redoes
EndRedoes
EndUndoRedoHistory
Fore
SplineSet
352 0 m 1
 352 1602 l 1
 -18 1602 l 1
 -18 1658 l 1
 781 1658 l 1
 781 1602 l 1
 416 1602 l 1
 416 0 l 1
 352 0 l 1
EndSplineSet
EndChar

StartChar: Tbar
Encoding: 291 358 97
Width: 763
VWidth: 0
GlyphClass: 2
Flags: HW
LayerCount: 2
UndoRedoHistory
Layer: 1
Undoes
EndUndoes
Redoes
EndRedoes
EndUndoRedoHistory
Fore
SplineSet
667 876 m 5
 88 876 l 5
 88 927 l 5
 667 927 l 5
 667 876 l 5
EndSplineSet
Refer: 96 84 N 1 0 0 1 0 0 3
EndChar

StartChar: Thorn
Encoding: 158 222 100
Width: 1035
VWidth: 0
GlyphClass: 2
Flags: HW
LayerCount: 2
UndoRedoHistory
Layer: 1
Undoes
EndUndoes
Redoes
EndRedoes
EndUndoRedoHistory
Fore
SplineSet
162 0 m 1
 162 1658 l 1
 226 1658 l 1
 226 1448 l 1
 566 1448 l 2
 866 1448 955 1225 955 1007 c 0
 955 827 905 528 566 528 c 2
 226 528 l 1
 226 0 l 1
 162 0 l 1
226 1389 m 1
 226 588 l 1
 566 588 l 2
 780 588 884 720 884 1000 c 0
 884 1281 751 1389 568 1389 c 2
 226 1389 l 1
EndSplineSet
EndChar

StartChar: U
Encoding: 53 85 101
Width: 1084
VWidth: 0
GlyphClass: 2
Flags: HW
AnchorPoint: "ogonek" 602 0 basechar 0
LayerCount: 2
UndoRedoHistory
Layer: 1
Undoes
EndUndoes
Redoes
EndRedoes
EndUndoRedoHistory
Fore
SplineSet
542 -24 m 0
 233 -24 142 132 142 320 c 2
 142 1658 l 1
 206 1658 l 1
 206 322 l 2
 206 151 285 32 542 32 c 0
 782 32 878 154 878 322 c 2
 878 1658 l 1
 942 1658 l 1
 942 320 l 2
 942 132 831 -24 542 -24 c 0
EndSplineSet
EndChar

StartChar: V
Encoding: 54 86 112
Width: 909
VWidth: 0
GlyphClass: 2
Flags: HW
LayerCount: 2
UndoRedoHistory
Layer: 1
Undoes
EndUndoes
Redoes
EndRedoes
EndUndoRedoHistory
Fore
SplineSet
426 0 m 1
 24 1658 l 1
 94 1658 l 1
 221.119339868 1140.78600654 344.913011267 620.246344601 466 97 c 1
 579.527519531 620.139147135 695.744737726 1140.58859561 815 1658 c 1
 885 1658 l 1
 506 0 l 1
 426 0 l 1
EndSplineSet
EndChar

StartChar: W
Encoding: 55 87 113
Width: 1396
VWidth: 0
GlyphClass: 2
Flags: HW
LayerCount: 2
UndoRedoHistory
Layer: 1
Undoes
EndUndoes
Redoes
EndRedoes
EndUndoRedoHistory
Fore
SplineSet
348 0 m 1
 51 1656 l 1
 111 1658 l 1
 198.043579462 1147.04357946 287.273677209 638.273677209 379 132 c 1
 476.066720146 622.266613187 571.270541974 1114.39612469 665 1608 c 1
 750 1608 l 1
 846.511712095 1115.17837876 943.800440791 623.133774125 1042 132 c 1
 1124.89067913 638.442654208 1205.39976434 1147.26690233 1284 1658 c 1
 1344 1658 l 1
 1073 0 l 1
 1010 0 l 1
 903.489951858 509.489951858 802.769364844 1024.76936484 707 1545 c 1
 613.060606961 1025.60605971 514.849560525 510.483772808 412 0 c 1
 348 0 l 1
EndSplineSet
EndChar

StartChar: X
Encoding: 56 88 118
Width: 901
VWidth: 0
GlyphClass: 2
Flags: HW
LayerCount: 2
UndoRedoHistory
Layer: 1
Undoes
EndUndoes
Redoes
EndRedoes
EndUndoRedoHistory
Fore
SplineSet
806 0 m 1
 435.632906518 794.875819001 l 1
 101 0 l 1
 32 0 l 1
 405.923165694 858.638380483 l 1
 33 1659 l 1
 90 1659 l 1
 445.48798435 901.93380483 l 1
 798 1659 l 1
 867 1659 l 1
 474.403764993 840.35321422 l 1
 869 0 l 1
 806 0 l 1
EndSplineSet
EndChar

StartChar: Y
Encoding: 57 89 119
Width: 830
VWidth: 0
GlyphClass: 2
Flags: HW
LayerCount: 2
UndoRedoHistory
Layer: 1
Undoes
EndUndoes
Redoes
EndRedoes
EndUndoRedoHistory
Fore
SplineSet
390 0 m 1
 390 508 l 1
 -2 1658 l 1
 72 1658 l 1
 426 583 l 1
 760 1658 l 1
 832 1658 l 1
 457 508 l 1
 457 0 l 1
 390 0 l 1
EndSplineSet
EndChar

StartChar: Z
Encoding: 58 90 124
Width: 810
VWidth: 0
GlyphClass: 2
Flags: HW
LayerCount: 2
UndoRedoHistory
Layer: 1
Undoes
EndUndoes
Redoes
EndRedoes
EndUndoRedoHistory
Fore
SplineSet
58 0 m 1
 58 57 l 1
 699 1602 l 1
 121 1602 l 1
 121 1658 l 1
 768 1658 l 1
 768 1601 l 1
 129 56 l 1
 771 56 l 1
 771 0 l 1
 58 0 l 1
EndSplineSet
EndChar

StartChar: a
Encoding: 65 97 128
Width: 739
VWidth: 0
GlyphClass: 2
Flags: HW
HStem: -20 50<218.58 417.626> 1154 50<264.16 478.656>
VStem: 75 62<103.269 378.218> 106 61<908 1058.36> 564 64<149 223 681.657 692 777 1051.12>
AnchorPoint: "ogonek" 602 0 basechar 0
LayerCount: 2
UndoRedoHistory
Layer: 1
Undoes
EndUndoes
Redoes
EndRedoes
EndUndoRedoHistory
Fore
SplineSet
314 30 m 0xe8
 431 30 511 113 564 223 c 1
 564 635 l 1
 204 452 137 423 137 227 c 0
 137 68 237 30 314 30 c 0xe8
313 -20 m 0
 168 -20 75 75 75 232 c 0
 75 397 99 469 564 692 c 1
 564 777 l 2
 564 1083 511 1154 382 1154 c 0
 286 1154 167 1131 167 908 c 2xd8
 167 886 l 1
 106 886 l 1
 106 913 l 1
 110 1126 206 1204 382 1204 c 0
 567 1204 628 1090 628 793 c 0
 628 528.666666667 628 264.333333333 628 0 c 1
 578 0 l 1
 565 149 l 1
 525 50 425 -20 313 -20 c 0
EndSplineSet
EndChar

StartChar: acute
Encoding: 116 180 132
AltUni2: 000301.ffffffff.0
Width: 362
VWidth: 0
GlyphClass: 2
Flags: HW
LayerCount: 2
UndoRedoHistory
Layer: 1
Undoes
EndUndoes
Redoes
EndRedoes
EndUndoRedoHistory
Fore
SplineSet
76 1264 m 1
 213 1658 l 1
 278 1658 l 1
 112 1264 l 1
 76 1264 l 1
EndSplineSet
EndChar

StartChar: acutecomb
Encoding: 368 769 133
Width: 362
VWidth: 0
GlyphClass: 2
Flags: HW
LayerCount: 2
UndoRedoHistory
Layer: 1
Undoes
EndUndoes
Redoes
EndRedoes
EndUndoRedoHistory
Fore
SplineSet
76 1264 m 1
 213 1658 l 1
 278 1658 l 1
 112 1264 l 1
 76 1264 l 1
EndSplineSet
EndChar

StartChar: ae
Encoding: 166 230 135
Width: 1183
VWidth: 0
GlyphClass: 2
Flags: HW
LayerCount: 2
UndoRedoHistory
Layer: 1
Undoes
EndUndoes
Redoes
EndRedoes
EndUndoRedoHistory
Fore
SplineSet
631 683 m 1
 881 775 l 2
 1020.3 826.866 1047 883.896 1047 970 c 0
 1047 1060 997 1154 853 1154 c 0
 708 1154 631 1088 631 775 c 2
 631 683 l 1
317 30 m 0
 434 30 567 110 567 448 c 2
 567 607 l 1
 395 537 l 2
 136 432 137 352 140 227 c 0
 143 68 240 30 317 30 c 0
316 -20 m 0
 171 -20 78 75 78 232 c 0
 78 347 74 473 382 589 c 2
 567 659 l 1
 567 777 l 2
 567 1087 503 1154 382 1154 c 0
 284 1154 164 1121 164 908 c 1
 107 913 l 1
 107 1119 210 1204 385 1204 c 0
 503 1204 586 1133 599 991 c 1
 628 1163 749 1204 853 1204 c 0
 1016 1204 1106 1097 1106 967 c 0
 1106 865 1048 782 895 726 c 2
 631 629 l 1
 631 430 l 2
 631 95 711 30 849 30 c 0
 929 30 1054 28 1054 301 c 2
 1054 395 l 1
 1117 395 l 1
 1117 304 l 2
 1117 116 1065 -20 849 -20 c 0
 738 -20 617 22 592 218 c 1
 551 14 398 -20 316 -20 c 0
EndSplineSet
EndChar

StartChar: afii10017
Encoding: 394 1040 136
Width: 911
VWidth: 0
GlyphClass: 2
Flags: HW
LayerCount: 2
UndoRedoHistory
Layer: 1
Undoes
EndUndoes
Redoes
EndRedoes
EndUndoRedoHistory
Fore
SplineSet
233 524 m 1
 680 524 l 1
 455 1600 l 1
 233 524 l 1
63 0 m 1
 409 1658 l 1
 499 1658 l 1
 848 0 l 1
 780 0 l 1
 690 474 l 1
 222 474 l 1
 129 0 l 1
 63 0 l 1
EndSplineSet
EndChar

StartChar: afii10018
Encoding: 395 1041 137
Width: 942
VWidth: 0
GlyphClass: 2
Flags: HW
LayerCount: 2
UndoRedoHistory
Layer: 1
Undoes
EndUndoes
Redoes
EndRedoes
EndUndoRedoHistory
Fore
SplineSet
769.349609375 1658 m 1
 769.349609375 1606 l 1
 225 1606 l 1
 225 956 l 1
 460 956 l 2
 744 956 868 766 868 463 c 0
 868 215 768 0 461 0 c 2
 161 0 l 1
 161 1658 l 1
 769.349609375 1658 l 1
225 61 m 1
 465 61 l 2
 722 61 798 229 798 466 c 0
 798 721 713 895 465 895 c 2
 225 895 l 1
 225 61 l 1
EndSplineSet
EndChar

StartChar: afii10019
Encoding: 396 1042 138
Width: 970
VWidth: 0
GlyphClass: 2
Flags: HW
LayerCount: 2
UndoRedoHistory
Layer: 1
Undoes
EndUndoes
Redoes
EndRedoes
EndUndoRedoHistory
Fore
SplineSet
226 56 m 1
 537 56 l 2
 761 56 818 195 818 485 c 0
 818 678 763 864 566 864 c 2
 226 864 l 1
 226 56 l 1
226 917 m 1
 563 917 l 2
 743 917 785 1085 785 1246 c 0
 785 1413 761 1602 493 1602 c 2
 226 1602 l 1
 226 917 l 1
489 1658 m 2
 796 1658 849 1453 849 1246 c 0
 849 1141 832 942 672 894 c 1
 863 834 882 599 882 486 c 0
 882 251 863 0 535 0 c 2
 162 0 l 1
 162 1658 l 1
 489 1658 l 2
EndSplineSet
EndChar

StartChar: afii10020
Encoding: 397 1043 139
AltUni2: 000393.ffffffff.0
Width: 741
VWidth: 0
GlyphClass: 2
Flags: HW
LayerCount: 2
UndoRedoHistory
Layer: 1
Undoes
EndUndoes
Redoes
EndRedoes
EndUndoRedoHistory
Fore
SplineSet
162 0 m 1
 162 1658 l 1
 699 1658 l 1
 699 1602 l 1
 226 1602 l 1
 226 0 l 1
 162 0 l 1
EndSplineSet
EndChar

StartChar: afii10021
Encoding: 398 1044 140
Width: 1104
VWidth: 0
GlyphClass: 2
Flags: HW
LayerCount: 2
UndoRedoHistory
Layer: 1
Undoes
EndUndoes
Redoes
EndRedoes
EndUndoRedoHistory
Fore
SplineSet
-18 -264 m 1
 -18 55 l 1
 68.5696213434 55 l 1
 256.580818088 138.061055177 306.815707883 550.991433073 350 1149 c 2
 387 1658 l 1
 931 1658 l 1
 931 55 l 1
 1037 55 l 1
 1037 -264 l 1
 984 -264 l 1
 974 0 l 1
 96.0297762416 0 l 1
 79.18521874 -5.43821255567 61.431308009 -8.66665408268 42.7071207031 -9.66501679917 c 1
 35 -264 l 1
 -18 -264 l 1
867 55 m 1
 867 1603 l 1
 447 1603 l 1
 417 1147 l 2
 378.663284898 568.115601961 322.690125099 196.753369865 182.820431735 55 c 1
 867 55 l 1
EndSplineSet
EndChar

StartChar: afii10022
Encoding: 399 1045 141
Width: 763
VWidth: 0
GlyphClass: 2
Flags: HW
LayerCount: 2
UndoRedoHistory
Layer: 1
Undoes
EndUndoes
Redoes
EndRedoes
EndUndoRedoHistory
Fore
SplineSet
707 1658 m 1
 707 1602 l 1
 225 1602 l 1
 225 889 l 1
 622 889 l 1
 622 834 l 1
 225 834 l 1
 225 56 l 1
 712 56 l 1
 712 0 l 1
 161 0 l 1
 161 1658 l 1
 707 1658 l 1
EndSplineSet
EndChar

StartChar: afii10024
Encoding: 400 1046 143
Width: 1206
VWidth: 0
GlyphClass: 2
Flags: HW
LayerCount: 2
UndoRedoHistory
Layer: 1
Undoes
EndUndoes
Redoes
EndRedoes
EndUndoRedoHistory
Fore
SplineSet
555 887 m 1
 571 887 l 1
 571 1658 l 1
 635 1658 l 1
 635 887 l 1
 651 887 l 1
 1043 1658 l 1
 1109 1658 l 1
 709 873 l 1
 1148 0 l 1
 1079 0 l 1
 659 849 l 1
 635 849 l 1
 635 0 l 1
 571 0 l 1
 571 849 l 1
 547 849 l 1
 127 0 l 1
 58 0 l 1
 497 873 l 1
 97 1658 l 1
 163 1658 l 1
 555 887 l 1
EndSplineSet
EndChar

StartChar: afii10025
Encoding: 401 1047 144
Width: 925
VWidth: 0
GlyphClass: 2
Flags: HW
LayerCount: 2
UndoRedoHistory
Layer: 1
Undoes
EndUndoes
Redoes
EndRedoes
EndUndoRedoHistory
Fore
SplineSet
485 -24 m 0
 242 -24 161 131 161 352 c 2
 161 373 l 1
 216 373 l 1
 216 343 l 2
 216 133 303 27 485 27 c 0
 636 27 791 89 791 429 c 0
 791 669 714 838 504 838 c 2
 450 838 l 1
 450 882 l 1
 504 882 l 2
 715 882 791 1007 791 1280 c 0
 791 1481 720 1628 516 1628 c 0
 328 1628 216 1559 216 1313 c 2
 216 1292 l 1
 160 1292 l 1
 160 1308 l 2
 160 1526 237 1678 515 1678 c 0
 762 1678 859 1496 859 1278 c 0
 859 1006 754 877 623 857 c 1
 711 840 859 744 859 433 c 0
 859 167 754 -24 485 -24 c 0
EndSplineSet
EndChar

StartChar: afii10026
Encoding: 402 1048 145
Width: 1043
VWidth: 0
GlyphClass: 2
Flags: HW
LayerCount: 2
UndoRedoHistory
Layer: 1
Undoes
EndUndoes
Redoes
EndRedoes
EndUndoRedoHistory
Fore
SplineSet
161 0 m 1
 161 1658 l 1
 219 1658 l 1
 219 137 l 1
 820 1658 l 1
 882 1658 l 1
 882 0 l 1
 824 0 l 1
 824 1512 l 1
 224 0 l 1
 161 0 l 1
EndSplineSet
EndChar

StartChar: afii10028
Encoding: 404 1050 147
Width: 910
VWidth: 0
GlyphClass: 2
Flags: HW
LayerCount: 2
UndoRedoHistory
Layer: 1
Undoes
EndUndoes
Redoes
EndRedoes
EndUndoRedoHistory
Fore
SplineSet
161 0 m 1
 161 1658 l 1
 225 1658 l 1
 225 667.698555957 l 1
 748 1658 l 1
 815 1658 l 1
 455 969 l 1
 913 0 l 1
 847 0 l 1
 415 916 l 1
 225 570.389140271 l 1
 225 0 l 1
 161 0 l 1
EndSplineSet
EndChar

StartChar: afii10029
Encoding: 405 1051 148
Width: 1122
VWidth: 0
GlyphClass: 2
Flags: HW
LayerCount: 2
UndoRedoHistory
Layer: 1
Undoes
EndUndoes
Redoes
EndRedoes
EndUndoRedoHistory
Fore
SplineSet
60 -10 m 1
 60 43 l 1
 280 85 334 512 380 1149 c 2
 417 1658 l 1
 961 1658 l 1
 961 0 l 1
 897 0 l 1
 897 1603 l 1
 477 1603 l 1
 447 1147 l 2
 397 392 317 -10 60 -10 c 1
EndSplineSet
EndChar

StartChar: afii10030
Encoding: 406 1052 149
Width: 1271
VWidth: 0
GlyphClass: 2
Flags: HW
LayerCount: 2
UndoRedoHistory
Layer: 1
Undoes
EndUndoes
Redoes
EndRedoes
EndUndoRedoHistory
Fore
SplineSet
136 0 m 1
 193 1658 l 1
 255 1658 l 1
 632 101 l 1
 1010 1658 l 1
 1081 1658 l 1
 1135 0 l 1
 1075 0 l 1
 1025 1467 l 1
 664 0 l 1
 602 0 l 1
 246 1462 l 1
 196 0 l 1
 136 0 l 1
EndSplineSet
EndChar

StartChar: afii10031
Encoding: 407 1053 150
Width: 1093
VWidth: 0
GlyphClass: 2
Flags: HW
LayerCount: 2
UndoRedoHistory
Layer: 1
Undoes
EndUndoes
Redoes
EndRedoes
EndUndoRedoHistory
Fore
SplineSet
868 0 m 1
 868 846 l 1
 225 846 l 1
 225 0 l 1
 161 0 l 1
 161 1658 l 1
 225 1658 l 1
 225 898 l 1
 868 898 l 1
 868 1658 l 1
 932 1658 l 1
 932 0 l 1
 868 0 l 1
EndSplineSet
EndChar

StartChar: afii10032
Encoding: 408 1054 151
Width: 1056
VWidth: 0
GlyphClass: 2
Flags: HW
LayerCount: 2
UndoRedoHistory
Layer: 1
Undoes
EndUndoes
Redoes
EndRedoes
EndUndoRedoHistory
Fore
SplineSet
528 -24 m 0
 209 -24 126 187 126 452 c 2
 126 1215 l 2
 126 1478 222 1678 528 1678 c 0
 834 1678 930 1478 930 1215 c 2
 930 448 l 2
 930 183 846 -24 528 -24 c 0
528 32 m 0
 787 32 866 197 866 438 c 2
 866 1219 l 2
 866 1460 788 1623 528 1623 c 0
 268 1623 190 1461 190 1219 c 2
 190 438 l 2
 190 196 268 32 528 32 c 0
EndSplineSet
EndChar

StartChar: afii10033
Encoding: 409 1055 152
Width: 1093
VWidth: 0
GlyphClass: 2
Flags: HW
LayerCount: 2
UndoRedoHistory
Layer: 1
Undoes
EndUndoes
Redoes
EndRedoes
EndUndoRedoHistory
Fore
SplineSet
867 0 m 1
 867 1606 l 1
 226 1606 l 1
 226 0 l 1
 162 0 l 1
 162 1658 l 1
 931 1658 l 1
 931 0 l 1
 867 0 l 1
EndSplineSet
EndChar

StartChar: afii10034
Encoding: 410 1056 153
Width: 976
VWidth: 0
GlyphClass: 2
Flags: HW
LayerCount: 2
UndoRedoHistory
Layer: 1
Undoes
EndUndoes
Redoes
EndRedoes
EndUndoRedoHistory
Fore
SplineSet
162 0 m 1
 162 1658 l 1
 543 1658 l 2
 842 1658 919 1472 919 1242 c 0
 919 1040 851 800 546 800 c 2
 226 800 l 1
 226 0 l 1
 162 0 l 1
226 855 m 1
 542 855 l 2
 742 855 848 964 848 1242 c 0
 848 1523 748 1604 543 1604 c 2
 226 1604 l 1
 226 855 l 1
EndSplineSet
EndChar

StartChar: afii10035
Encoding: 411 1057 154
Width: 971
VWidth: 0
GlyphClass: 2
Flags: HW
LayerCount: 2
UndoRedoHistory
Layer: 1
Undoes
EndUndoes
Redoes
EndRedoes
EndUndoRedoHistory
Fore
SplineSet
514 -24 m 0
 196 -24 126 191 126 456 c 2
 126 1206 l 2
 126 1472 208 1678 514 1678 c 0
 793 1678 876 1490 876 1215 c 2
 876 1150 l 1
 816 1150 l 1
 816 1223 l 2
 816 1479 740 1623 514 1623 c 0
 254 1623 190 1455 190 1211 c 2
 190 446 l 2
 190 203 254 32 514 32 c 0
 748 32 816 188 816 427 c 2
 816 517 l 1
 876 517 l 1
 876 453 l 2
 876 178 801 -24 514 -24 c 0
EndSplineSet
EndChar

StartChar: afii10036
Encoding: 412 1058 155
Width: 743
VWidth: 0
GlyphClass: 2
Flags: HW
LayerCount: 2
UndoRedoHistory
Layer: 1
Undoes
EndUndoes
Redoes
EndRedoes
EndUndoRedoHistory
Fore
SplineSet
381 0 m 1
 381 1602 l 1
 11 1602 l 1
 11 1658 l 1
 810 1658 l 1
 810 1602 l 1
 445 1602 l 1
 445 0 l 1
 381 0 l 1
EndSplineSet
EndChar

StartChar: afii10037
Encoding: 413 1059 156
Width: 927
VWidth: 0
GlyphClass: 2
Flags: HW
LayerCount: 2
UndoRedoHistory
Layer: 1
Undoes
EndUndoes
Redoes
EndRedoes
EndUndoRedoHistory
Fore
SplineSet
292 0 m 1
 453 559 l 1
 65 1658 l 1
 132 1658 l 1
 484 644 l 1
 794 1658 l 1
 861 1658 l 1
 691.514503507 1106.81882983 516.621507235 561.045159431 357 0 c 1
 292 0 l 1
EndSplineSet
EndChar

StartChar: afii10038
Encoding: 414 1060 157
Width: 1158
VWidth: 0
GlyphClass: 2
Flags: HW
LayerCount: 2
UndoRedoHistory
Layer: 1
Undoes
EndUndoes
Redoes
EndRedoes
EndUndoRedoHistory
Fore
SplineSet
444 249 m 0
 465.220988162 249 509.467189832 250.606410245 545 254.211065364 c 1
 545 1441.48784412 l 1
 512.87590945 1444.49594804 473.409591015 1446 455 1446 c 0
 270 1446 190 1293 190 1060 c 2
 190 606 l 2
 190 377 267 249 444 249 c 0
545 0 m 1
 545 204.445659898 l 1
 506.859594939 200.676026689 458.918272861 199 435 199 c 0
 227 199 126 338 126 606 c 2
 126 1060 l 2
 126 1335 235 1495 460 1495 c 0
 477.371846467 1495 514.540529791 1494.03430064 545 1492.10290192 c 1
 545 1658 l 1
 609 1658 l 1
 609 1492.93446693 l 1
 643.785428917 1496.31148898 688.993710128 1498 710 1498 c 0
 927 1498 1032 1333 1032 1060 c 2
 1032 606 l 2
 1032 340 931 199 722 199 c 0
 697.265576691 199 647.438134585 200.792358486 609 204.838877056 c 1
 609 0 l 1
 545 0 l 1
609 1441.10152879 m 1
 609 254.629460083 l 1
 645.146569403 250.730457924 691.974899821 249 714 249 c 0
 891 249 968 377 968 606 c 2
 968 1060 l 2
 968 1293 888 1446 703 1446 c 0
 683.818508522 1446 641.77748473 1444.36717626 609 1441.10152879 c 1
EndSplineSet
EndChar

StartChar: afii10039
Encoding: 415 1061 158
Width: 901
VWidth: 0
GlyphClass: 2
Flags: HW
LayerCount: 2
UndoRedoHistory
Layer: 1
Undoes
EndUndoes
Redoes
EndRedoes
EndUndoRedoHistory
Fore
SplineSet
806 0 m 1
 435.632906518 794.875819001 l 1
 101 0 l 1
 32 0 l 1
 405.923165694 858.638380483 l 1
 33 1659 l 1
 90 1659 l 1
 445.48798435 901.93380483 l 1
 798 1659 l 1
 867 1659 l 1
 474.403764993 840.35321422 l 1
 869 0 l 1
 806 0 l 1
EndSplineSet
EndChar

StartChar: afii10040
Encoding: 416 1062 159
Width: 1082
VWidth: 0
GlyphClass: 2
Flags: HW
LayerCount: 2
UndoRedoHistory
Layer: 1
Undoes
EndUndoes
Redoes
EndRedoes
EndUndoRedoHistory
Fore
SplineSet
980 -264 m 1
 970 0 l 1
 161 0 l 1
 161 1658 l 1
 225 1658 l 1
 225 52 l 1
 863 52 l 1
 863 1658 l 1
 927 1658 l 1
 927 52 l 1
 1034 52 l 1
 1034 -264 l 1
 980 -264 l 1
EndSplineSet
EndChar

StartChar: afii10041
Encoding: 417 1063 160
Width: 1006
VWidth: 0
GlyphClass: 2
Flags: HW
LayerCount: 2
UndoRedoHistory
Layer: 1
Undoes
EndUndoes
Redoes
EndRedoes
EndUndoRedoHistory
Fore
SplineSet
780 0 m 1
 780 772.661015569 l 1
 693.833936986 746.430484115 611.920894836 734 537 734 c 0
 288 734 118 820 118 1080 c 2
 118 1658 l 1
 182 1658 l 1
 182 1081 l 2
 182 829 357 788 541 788 c 0
 637.076179846 788 725.586784389 806.283473648 780 828.833613743 c 1
 780 1658 l 1
 844 1658 l 1
 844 0 l 1
 780 0 l 1
EndSplineSet
EndChar

StartChar: afii10042
Encoding: 418 1064 161
Width: 1396
VWidth: 0
GlyphClass: 2
Flags: HW
LayerCount: 2
UndoRedoHistory
Layer: 1
Undoes
EndUndoes
Redoes
EndRedoes
EndUndoRedoHistory
Fore
SplineSet
1170 52 m 1
 1170 1658 l 1
 1234 1658 l 1
 1234 0 l 1
 162 0 l 1
 162 1658 l 1
 226 1658 l 1
 226 52 l 1
 674 52 l 1
 674 1658 l 1
 738 1658 l 1
 738 52 l 1
 1170 52 l 1
EndSplineSet
EndChar

StartChar: afii10043
Encoding: 419 1065 162
Width: 1393
VWidth: 0
GlyphClass: 2
Flags: HW
LayerCount: 2
UndoRedoHistory
Layer: 1
Undoes
EndUndoes
Redoes
EndRedoes
EndUndoRedoHistory
Fore
SplineSet
1291 -264 m 1
 1281 0 l 1
 161 0 l 1
 161 1658 l 1
 225 1658 l 1
 225 52 l 1
 673 52 l 1
 673 1658 l 1
 737 1658 l 1
 737 52 l 1
 1171 52 l 1
 1171 1658 l 1
 1235 1658 l 1
 1235 52 l 1
 1345 52 l 1
 1345 -264 l 1
 1291 -264 l 1
EndSplineSet
EndChar

StartChar: afii10044
Encoding: 420 1066 163
Width: 957
VWidth: 0
GlyphClass: 2
Flags: HW
LayerCount: 2
UndoRedoHistory
Layer: 1
Undoes
EndUndoes
Redoes
EndRedoes
EndUndoRedoHistory
Fore
SplineSet
202 1605 m 1
 -46 1605 l 1
 -46 1658 l 1
 266 1658 l 1
 266 956 l 1
 501 956 l 2
 785 956 909 766 909 463 c 0
 909 215 809 0 502 0 c 2
 202 0 l 1
 202 1605 l 1
266 61 m 1
 506 61 l 2
 763 61 839 229 839 466 c 0
 839 721 754 895 506 895 c 2
 266 895 l 1
 266 61 l 1
EndSplineSet
EndChar

StartChar: afii10045
Encoding: 421 1067 164
Width: 1420
VWidth: 0
GlyphClass: 2
Flags: HW
LayerCount: 2
UndoRedoHistory
Layer: 1
Undoes
EndUndoes
Redoes
EndRedoes
EndUndoRedoHistory
Fore
SplineSet
1194 0 m 1
 1194 1658 l 1
 1258 1658 l 1
 1258 0 l 1
 1194 0 l 1
226 61 m 1
 466 61 l 2
 723 61 799 229 799 466 c 0
 799 721 714 895 466 895 c 2
 226 895 l 1
 226 61 l 1
226 956 m 1
 461 956 l 2
 745 956 869 766 869 463 c 0
 869 215 769 0 462 0 c 2
 162 0 l 1
 162 1658 l 1
 226 1658 l 1
 226 956 l 1
EndSplineSet
EndChar

StartChar: afii10046
Encoding: 422 1068 165
Width: 917
VWidth: 0
GlyphClass: 2
Flags: HW
LayerCount: 2
UndoRedoHistory
Layer: 1
Undoes
EndUndoes
Redoes
EndRedoes
EndUndoRedoHistory
Fore
SplineSet
226 61 m 1
 466 61 l 2
 723 61 799 229 799 466 c 0
 799 721 714 895 466 895 c 2
 226 895 l 1
 226 61 l 1
226 956 m 1
 461 956 l 2
 745 956 869 766 869 463 c 0
 869 215 769 0 462 0 c 2
 162 0 l 1
 162 1658 l 1
 226 1658 l 1
 226 956 l 1
EndSplineSet
EndChar

StartChar: afii10047
Encoding: 423 1069 166
Width: 1002
VWidth: 0
GlyphClass: 2
Flags: HW
LayerCount: 2
UndoRedoHistory
Layer: 1
Undoes
EndUndoes
Redoes
EndRedoes
EndUndoRedoHistory
Fore
SplineSet
488 -24 m 0
 209 -24 126 164 126 439 c 2
 126 504 l 1
 186 504 l 1
 186 431 l 2
 186 175 262 31 488 31 c 0
 748 31 812 199 812 443 c 2
 812 849 l 1
 379 849 l 1
 379 901 l 1
 812 901 l 1
 812 1208 l 2
 812 1451 748 1622 488 1622 c 0
 254 1622 186 1466 186 1227 c 2
 186 1137 l 1
 126 1137 l 1
 126 1201 l 2
 126 1476 201 1678 488 1678 c 0
 806 1678 876 1463 876 1198 c 2
 876 448 l 2
 876 182 794 -24 488 -24 c 0
EndSplineSet
EndChar

StartChar: afii10048
Encoding: 424 1070 167
Width: 1326
VWidth: 0
GlyphClass: 2
Flags: HW
LayerCount: 2
UndoRedoHistory
Layer: 1
Undoes
EndUndoes
Redoes
EndRedoes
EndUndoRedoHistory
Fore
SplineSet
798 -24 m 0
 479 -24 396 187 396 452 c 2
 396 804 l 1
 226 804 l 1
 226 0 l 1
 162 0 l 1
 162 1658 l 1
 226 1658 l 1
 226 860 l 1
 396 860 l 1
 396 1214 l 2
 396 1481 492 1678 798 1678 c 0
 1104 1678 1200 1475 1200 1212 c 2
 1200 448 l 2
 1200 183 1116 -24 798 -24 c 0
802 32 m 0
 1061 32 1136 197 1136 438 c 2
 1136 1219 l 2
 1136 1460 1058 1623 798 1623 c 0
 538 1623 460 1461 460 1219 c 2
 460 438 l 2
 460 196 536 32 802 32 c 0
EndSplineSet
EndChar

StartChar: afii10049
Encoding: 425 1071 168
Width: 1059
VWidth: 0
GlyphClass: 2
Flags: HW
LayerCount: 2
UndoRedoHistory
Layer: 1
Undoes
EndUndoes
Redoes
EndRedoes
EndUndoRedoHistory
Fore
SplineSet
92 0 m 1
 358.430579531 779.773014819 l 1
 181.304972861 839.916345694 124 1012.96382791 124 1224 c 0
 124 1447 205 1658 510 1658 c 2
 897 1658 l 1
 897 0 l 1
 833 0 l 1
 833 757 l 1
 512 757 l 2
 477.965662026 757 446.652217485 759.643153621 417.881213431 764.71561229 c 1
 161 0 l 1
 92 0 l 1
833 811 m 1
 833 1603 l 1
 509 1603 l 2
 309 1603 189 1501 189 1223 c 0
 189 942 279 811 512 811 c 2
 833 811 l 1
EndSplineSet
EndChar

StartChar: afii10051
Encoding: 381 1026 169
Width: 847
VWidth: 0
GlyphClass: 2
Flags: HW
LayerCount: 2
UndoRedoHistory
Layer: 1
Undoes
EndUndoes
Redoes
EndRedoes
EndUndoRedoHistory
Fore
SplineSet
736 -12 m 2
 736 -255 588 -296 440 -296 c 2
 429 -296 l 1
 429 -239 l 1
 633 -239 671 -146 671 -10 c 2
 671 776.431640625 l 2
 671 914.846679688 610 945.150390625 535 945.150390625 c 0
 445.48490985 945.150390625 352.335828151 897.529486531 276 826.646233582 c 1
 276 0 l 1
 212 0 l 1
 212 1602 l 1
 -158 1602 l 1
 -158 1658 l 1
 641 1658 l 1
 641 1602 l 1
 276 1602 l 1
 276 870.829366954 l 1
 348.641284198 942.442680887 444.833027726 986.1015625 546 986.1015625 c 0
 637 986.1015625 736 947.607421875 736 769.060546875 c 2
 736 -12 l 2
EndSplineSet
EndChar

StartChar: afii10053
Encoding: 383 1028 171
Width: 971
VWidth: 0
GlyphClass: 2
Flags: HW
LayerCount: 2
UndoRedoHistory
Layer: 1
Undoes
EndUndoes
Redoes
EndRedoes
EndUndoRedoHistory
Fore
SplineSet
514 -24 m 0
 196 -24 126 191 126 456 c 2
 126 1206 l 2
 126 1472 208 1678 514 1678 c 0
 793 1678 876 1490 876 1215 c 2
 876 1150 l 1
 816 1150 l 1
 816 1223 l 2
 816 1479 740 1623 514 1623 c 0
 254 1623 190 1455 190 1211 c 2
 190 908 l 1
 624 908 l 1
 624 856 l 1
 190 856 l 1
 190 446 l 2
 190 203 254 32 514 32 c 0
 748 32 816 188 816 427 c 2
 816 517 l 1
 876 517 l 1
 876 453 l 2
 876 178 801 -24 514 -24 c 0
EndSplineSet
EndChar

StartChar: afii10054
Encoding: 384 1029 172
Width: 889
VWidth: 0
GlyphClass: 2
Flags: HW
LayerCount: 2
UndoRedoHistory
Layer: 1
Undoes
EndUndoes
Redoes
EndRedoes
EndUndoRedoHistory
Fore
SplineSet
472 -23 m 0
 220 -23 111 135 87 387 c 1
 142 407 l 1
 177 171 242 33 474 33 c 0
 657 33 773 114 773 329 c 0
 773 473 691 586 542 738 c 1
 228 1062 l 2
 129 1165 91 1271 91 1355 c 0
 91 1567 236 1678 443 1678 c 0
 654 1678 800 1591 817 1267 c 1
 764 1258 l 1
 740 1519 656 1625 448 1625 c 0
 280 1625 149 1547 149 1358 c 0
 149 1280 179 1197 276 1097 c 2
 584 782 l 2
 719 643 833 495 833 331 c 0
 833 81 683 -23 472 -23 c 0
EndSplineSet
EndChar

StartChar: afii10055
Encoding: 385 1030 173
Width: 388
VWidth: 0
GlyphClass: 2
Flags: HW
LayerCount: 2
UndoRedoHistory
Layer: 1
Undoes
EndUndoes
Redoes
EndRedoes
EndUndoRedoHistory
Fore
SplineSet
162 0 m 1
 162 1658 l 1
 226 1658 l 1
 226 0 l 1
 162 0 l 1
EndSplineSet
EndChar

StartChar: afii10057
Encoding: 387 1032 175
Width: 513
VWidth: 0
GlyphClass: 2
Flags: HW
LayerCount: 2
UndoRedoHistory
Layer: 1
Undoes
EndUndoes
Redoes
EndRedoes
EndUndoRedoHistory
Fore
SplineSet
17 -114 m 1
 17 -58 l 1
 278 -57 287 -9 287 279 c 2
 287 1658 l 1
 351 1658 l 1
 351 1192.66666667 351 727.333333333 351 262 c 0
 350.242642914 3.83217770409 330.012343599 -114 54 -114 c 2
 17 -114 l 1
EndSplineSet
EndChar

StartChar: afii10058
Encoding: 388 1033 176
Width: 1636
VWidth: 0
GlyphClass: 2
Flags: HW
HStem: 0 285
VStem: 1442 386
LayerCount: 2
UndoRedoHistory
Layer: 1
Undoes
EndUndoes
Redoes
EndRedoes
EndUndoRedoHistory
Fore
SplineSet
117 -7 m 1
 117 48 l 1
 286 48 286 163 286 455 c 2
 286 1658.72753906 l 1
 350 1658.72753906 l 1
 350 1658 l 1
 941 1658 l 1
 941 956 l 1
 1176 956 l 2
 1460 956 1584 766 1584 463 c 0
 1584 215 1484 0 1177 0 c 2
 877 0 l 1
 877 1606 l 1
 350 1606 l 1
 350 455 l 2
 350 170 350 -7 134 -7 c 2
 117 -7 l 1
941 61 m 1
 1181 61 l 2
 1438 61 1514 229 1514 466 c 0
 1514 721 1429 895 1181 895 c 2
 941 895 l 1
 941 61 l 1
EndSplineSet
EndChar

StartChar: afii10059
Encoding: 389 1034 177
Width: 1505
VWidth: 0
GlyphClass: 2
Flags: HW
LayerCount: 2
UndoRedoHistory
Layer: 1
Undoes
EndUndoes
Redoes
EndRedoes
EndUndoRedoHistory
Fore
SplineSet
162 1 m 1
 162 1659 l 1
 226 1659 l 1
 226 948 l 1
 752 948 l 1
 752 1659 l 1
 816 1659 l 1
 816 956 l 1
 1049 956 l 2
 1333 956 1457 766 1457 463 c 0
 1457 215 1357 0 1050 0 c 2
 784 0 l 1
 784 1 l 1
 752 1 l 1
 752 896 l 1
 226 896 l 1
 226 1 l 1
 162 1 l 1
816 61 m 1
 1054 61 l 2
 1311 61 1387 229 1387 466 c 0
 1387 721 1302 895 1054 895 c 2
 816 895 l 1
 816 61 l 1
EndSplineSet
EndChar

StartChar: afii10060
Encoding: 390 1035 178
Width: 847
VWidth: 0
GlyphClass: 2
Flags: HW
LayerCount: 2
UndoRedoHistory
Layer: 1
Undoes
EndUndoes
Redoes
EndRedoes
EndUndoRedoHistory
Fore
SplineSet
671 0 m 1
 671 776.431640625 l 2
 671 914.846679688 610 945.150390625 535 945.150390625 c 0
 445.48490985 945.150390625 352.335828151 897.529486531 276 826.646233582 c 1
 276 0 l 1
 212 0 l 1
 212 1602 l 1
 -158 1602 l 1
 -158 1658 l 1
 641 1658 l 1
 641 1602 l 1
 276 1602 l 1
 276 870.829366954 l 1
 348.641284198 942.442680887 444.833027726 986.1015625 546 986.1015625 c 0
 637 986.1015625 736 947.607421875 736 769.060546875 c 2
 736 0 l 1
 671 0 l 1
EndSplineSet
EndChar

StartChar: afii10065
Encoding: 426 1072 181
Width: 739
VWidth: 0
GlyphClass: 2
Flags: HW
LayerCount: 2
UndoRedoHistory
Layer: 1
Undoes
EndUndoes
Redoes
EndRedoes
EndUndoRedoHistory
Fore
SplineSet
314 30 m 0
 431 30 511 113 564 223 c 1
 564 635 l 1
 204 452 137 423 137 227 c 0
 137 68 237 30 314 30 c 0
313 -20 m 0
 168 -20 75 75 75 232 c 0
 75 397 99 469 564 692 c 1
 564 777 l 2
 564 1083 511 1154 382 1154 c 0
 286 1154 167 1131 167 908 c 2
 167 886 l 1
 106 886 l 1
 106 913 l 1
 110 1126 206 1204 382 1204 c 0
 567 1204 628 1090 628 793 c 0
 628 528.666666667 628 264.333333333 628 0 c 1
 578 0 l 1
 565 149 l 1
 525 50 425 -20 313 -20 c 0
EndSplineSet
EndChar

StartChar: afii10066
Encoding: 427 1073 182
Width: 764
VWidth: 0
GlyphClass: 2
Flags: HW
LayerCount: 2
UndoRedoHistory
Layer: 1
Undoes
EndUndoes
Redoes
EndRedoes
EndUndoRedoHistory
Fore
SplineSet
384 30 m 0
 556 35 604 154 604 490 c 2
 604 636 l 2
 604 972 580 1071 411 1071 c 0
 307 1071 219 991 174 940 c 1
 174 291 l 2
 174 118 252 26 384 30 c 0
384 -20 m 0
 233 -25 110 77 110 291 c 2
 110 1156 l 2
 110 1582 385 1574 574 1687 c 1
 604 1637 l 1
 359 1514 174 1528 174 1154 c 2
 174 995 l 1
 217 1051 297 1120 411 1121 c 1
 618 1121 668 994 668 635 c 2
 668 494 l 2
 668 131 595 -13 384 -20 c 0
EndSplineSet
EndChar

StartChar: afii10067
Encoding: 428 1074 183
Width: 735
VWidth: 0
GlyphClass: 2
Flags: HW
LayerCount: 2
UndoRedoHistory
Layer: 1
Undoes
EndUndoes
Redoes
EndRedoes
EndUndoRedoHistory
Fore
SplineSet
351 1184 m 2
 569 1184 632 1042 632 897 c 0
 632 804 592 683 488 637 c 1
 611 591 657 473 657 342 c 0
 657 140 611 0 373 0 c 2
 118 0 l 1
 118 1184 l 1
 351 1184 l 2
182 1126 m 1
 182 656 l 1
 385 656 l 2
 489 656 568 756 568 896 c 0
 568 1029 503 1126 355 1126 c 2
 182 1126 l 1
182 605 m 1
 182 51 l 1
 378 51 l 2
 565 51 593 190 593 343 c 0
 593 531 510 605 387 605 c 2
 182 605 l 1
EndSplineSet
EndChar

StartChar: afii10068
Encoding: 429 1075 184
Width: 562
VWidth: 0
GlyphClass: 2
Flags: HW
LayerCount: 2
UndoRedoHistory
Layer: 1
Undoes
EndUndoes
Redoes
EndRedoes
EndUndoRedoHistory
Fore
SplineSet
118 0 m 1
 118 1184 l 1
 506 1184 l 1
 506 1127 l 1
 182 1127 l 1
 182 0 l 1
 118 0 l 1
EndSplineSet
EndChar

StartChar: afii10069
Encoding: 430 1076 185
Width: 898
VWidth: 0
GlyphClass: 2
Flags: HW
LayerCount: 2
UndoRedoHistory
Layer: 1
Undoes
EndUndoes
Redoes
EndRedoes
EndUndoRedoHistory
Fore
SplineSet
39 -264 m 1
 39 48 l 1
 114.545311396 48 l 1
 151.560531411 130.787136052 248 329.752268715 248 754 c 2
 248 1184 l 1
 716 1184 l 1
 716 48 l 1
 806 48 l 1
 806 -264 l 1
 749 -264 l 1
 743 0 l 1
 100 0 l 1
 94 -264 l 1
 39 -264 l 1
306 1127 m 1
 306 755 l 2
 306 322.77038732 212.594856092 127.470895771 174.018129365 48 c 1
 652 48 l 1
 652 1127 l 1
 306 1127 l 1
EndSplineSet
EndChar

StartChar: afii10070
Encoding: 431 1077 186
Width: 742
VWidth: 0
GlyphClass: 2
Flags: HW
LayerCount: 2
UndoRedoHistory
Layer: 1
Undoes
EndUndoes
Redoes
EndRedoes
EndUndoRedoHistory
Fore
SplineSet
378 -20 m 0
 227 -20 96 42 96 431 c 2
 96 765 l 2
 96 1159 230 1204 382 1204 c 0
 572 1204 654 1097 654 751 c 1
 651 631 l 1
 160 631 l 1
 160 430 l 2
 160 95 240 30 378 30 c 0
 458 30 590 28 590 301 c 2
 590 395 l 1
 653 395 l 1
 653 304 l 2
 653 116 594 -20 378 -20 c 0
590 675 m 1
 590 761 l 2
 590 998 571 1154 382 1154 c 0
 237 1154 160 1088 160 775 c 2
 160 675 l 1
 590 675 l 1
EndSplineSet
EndChar

StartChar: afii10072
Encoding: 432 1078 188
Width: 977
VWidth: 0
GlyphClass: 2
Flags: HW
LayerCount: 2
UndoRedoHistory
Layer: 1
Undoes
EndUndoes
Redoes
EndRedoes
EndUndoRedoHistory
Fore
SplineSet
8 0 m 1
 388 609 l 1
 25 1184 l 1
 86 1184 l 1
 441 619 l 1
 461.831054688 619 l 1
 461.831054688 1184 l 1
 518.166015625 1184 l 1
 518.166015625 619 l 1
 538 619 l 1
 891 1184 l 1
 951 1184 l 1
 589 609 l 1
 969 0 l 1
 906 0 l 1
 539 594 l 1
 518.166015625 594 l 1
 518.166015625 0 l 1
 461.831054688 0 l 1
 461.831054688 594 l 1
 439 594 l 1
 71 0 l 1
 8 0 l 1
EndSplineSet
EndChar

StartChar: afii10073
Encoding: 433 1079 189
Width: 720
VWidth: 0
GlyphClass: 2
Flags: HW
LayerCount: 2
UndoRedoHistory
Layer: 1
Undoes
EndUndoes
Redoes
EndRedoes
EndUndoRedoHistory
Fore
SplineSet
358 -20 m 0
 186 -17 88 98 88 294 c 1
 153 294 l 1
 153 135 210 32 358 30 c 0
 497 28 584 126 578 315 c 0
 573 464 500 590 317 590 c 1
 317 646 l 1
 509 646 564 743 573 872 c 0
 583 1012 520 1154 369 1154 c 0
 235 1154 151 1063 151 911 c 1
 88 911 l 1
 88 1099 192 1204 368 1204 c 0
 559 1204 643 1053 637 875 c 0
 632 738 554 643 435 619 c 1
 555 579 638 483 642 315 c 0
 647 110 537 -23 358 -20 c 0
EndSplineSet
EndChar

StartChar: afii10074
Encoding: 434 1080 190
Width: 793
VWidth: 0
GlyphClass: 2
Flags: HW
LayerCount: 2
UndoRedoHistory
Layer: 1
Undoes
EndUndoes
Redoes
EndRedoes
EndUndoRedoHistory
Fore
SplineSet
118 0 m 1
 118 1184 l 1
 176.150390625 1184 l 1
 176.150390625 126.750510052 l 1
 617.661132812 1183.18916493 l 1
 617.661132812 1184 l 1
 637.044596354 1184 656.428059896 1184 675.811523438 1184 c 1
 675.811523438 0 l 1
 617.661132812 0 l 1
 617.661132812 1041.67547004 l 1
 176.301 0 l 1
 156.867333333 0 137.433666667 -0 118 0 c 1
EndSplineSet
EndChar

StartChar: afii10076
Encoding: 436 1082 192
Width: 733
VWidth: 0
GlyphClass: 2
Flags: HW
LayerCount: 2
UndoRedoHistory
Layer: 1
Undoes
EndUndoes
Redoes
EndRedoes
EndUndoRedoHistory
Fore
SplineSet
637 0 m 1
 351 666 l 1
 182 413.8 l 1
 182 0 l 1
 118 0 l 1
 118 1184 l 1
 182 1184 l 1
 182 496.793684211 l 1
 631 1184 l 1
 699 1184 l 1
 397 716 l 1
 702 0 l 1
 637 0 l 1
EndSplineSet
EndChar

StartChar: afii10077
Encoding: 437 1083 193
Width: 856
VWidth: 0
GlyphClass: 2
Flags: HW
HStem: -14 422 0 246
LayerCount: 2
UndoRedoHistory
Layer: 1
Undoes
EndUndoes
Redoes
EndRedoes
EndUndoRedoHistory
Fore
SplineSet
39 -10 m 2
 22 -10 l 1
 22 45 l 1
 169 45 218 209 244 635 c 2
 277 1184 l 1
 738 1184 l 1
 738 0 l 1
 674 0 l 1
 674 1132 l 1
 333.87431694 1132 l 1
 304 635 l 2
 278 210 237 -10 39 -10 c 2
EndSplineSet
EndChar

StartChar: afii10078
Encoding: 438 1084 194
Width: 919
VWidth: 0
GlyphClass: 2
Flags: HW
LayerCount: 2
UndoRedoHistory
Layer: 1
Undoes
EndUndoes
Redoes
EndRedoes
EndUndoRedoHistory
Fore
SplineSet
109 0 m 1
 148 1184 l 1
 190 1184 l 1
 458 114 l 1
 725 1184 l 1
 773 1184 l 1
 810 0 l 1
 757 0 l 1
 729 978 l 1
 479 0 l 1
 437 0 l 1
 190 975 l 1
 162 0 l 1
 109 0 l 1
EndSplineSet
EndChar

StartChar: afii10079
Encoding: 439 1085 195
Width: 846
VWidth: 0
GlyphClass: 2
Flags: HW
LayerCount: 2
UndoRedoHistory
Layer: 1
Undoes
EndUndoes
Redoes
EndRedoes
EndUndoRedoHistory
Fore
SplineSet
118 0 m 1
 118 1184 l 1
 182 1184 l 1
 182 645 l 1
 664 645 l 1
 664 1184 l 1
 728 1184 l 1
 728 0 l 1
 664 0 l 1
 664 593 l 1
 182 593 l 1
 182 0 l 1
 118 0 l 1
EndSplineSet
EndChar

StartChar: afii10080
Encoding: 440 1086 196
Width: 750
VWidth: 0
GlyphClass: 2
Flags: HW
LayerCount: 2
UndoRedoHistory
Layer: 1
Undoes
EndUndoes
Redoes
EndRedoes
EndUndoRedoHistory
Fore
SplineSet
375 -20 m 0
 150 -20 96 128 96 437 c 2
 96 747 l 2
 96 1053 150 1204 375 1204 c 0
 600 1204 654 1056 654 747 c 2
 654 437 l 2
 654 128 600 -20 375 -20 c 0
375 30 m 0
 566 30 590 171 590 437 c 2
 590 747 l 2
 590 1013 566 1154 375 1154 c 0
 184 1154 160 1013 160 747 c 2
 160 437 l 2
 160 171 184 30 375 30 c 0
EndSplineSet
EndChar

StartChar: afii10081
Encoding: 441 1087 197
Width: 801
VWidth: 0
GlyphClass: 2
Flags: HW
LayerCount: 2
UndoRedoHistory
Layer: 1
Undoes
EndUndoes
Redoes
EndRedoes
EndUndoRedoHistory
Fore
SplineSet
118 0 m 1
 118 1184 l 1
 683 1184 l 1
 683 0 l 1
 619 0 l 1
 619 1129 l 1
 182 1129 l 1
 182 0 l 1
 118 0 l 1
EndSplineSet
EndChar

StartChar: afii10082
Encoding: 442 1088 198
Width: 780
VWidth: 0
GlyphClass: 2
Flags: HW
LayerCount: 2
UndoRedoHistory
Layer: 1
Undoes
EndUndoes
Redoes
EndRedoes
EndUndoRedoHistory
Fore
SplineSet
120 -390 m 1
 120 1184 l 1
 184 1184 l 1
 184 1080.91367096 l 1
 224.649850843 1136.5765886 299.653826879 1204 412 1204 c 0
 619 1204 678 1057 678 698 c 2
 678 494 l 2
 678 131 612 -20 407 -20 c 0
 296.463507887 -20 223.437744523 50.1986495161 184 101.942704632 c 1
 184 -390 l 1
 120 -390 l 1
184 158.873329066 m 1
 233.476011634 91.4631987032 312.391640025 30 407 30 c 0
 569 30 614 154 614 490 c 2
 614 699 l 2
 614 1035 581 1154 412 1154 c 0
 309.68762498 1154 227.339309875 1076.19135623 184 1024.58877002 c 1
 184 158.873329066 l 1
EndSplineSet
EndChar

StartChar: afii10083
Encoding: 443 1089 199
Width: 744
VWidth: 0
GlyphClass: 2
Flags: HW
LayerCount: 2
UndoRedoHistory
Layer: 1
Undoes
EndUndoes
Redoes
EndRedoes
EndUndoRedoHistory
Fore
SplineSet
377 -20 m 0
 121 -20 96 194 96 442 c 2
 96 721 l 2
 96 1090 167 1204 376 1204 c 0
 618 1204 652 1022 652 817 c 2
 652 778 l 1
 588 778 l 1
 588 815 l 2
 588 1088 521 1154 376 1154 c 0
 195 1154 160 1034 160 721 c 2
 160 441 l 2
 160 161 199 30 377 30 c 0
 557 30 588 135 588 415 c 2
 588 442 l 1
 652 442 l 1
 652 413 l 2
 652 178 638 -20 377 -20 c 0
EndSplineSet
EndChar

StartChar: afii10084
Encoding: 444 1090 200
Width: 657
VWidth: 0
GlyphClass: 2
Flags: HW
LayerCount: 2
UndoRedoHistory
Layer: 1
Undoes
EndUndoes
Redoes
EndRedoes
EndUndoRedoHistory
Fore
SplineSet
303 0 m 1
 303 1132 l 1
 4 1132 l 1
 4 1184 l 1
 653.396484375 1184 l 1
 653.396484375 1132 l 1
 367 1132 l 1
 367 0 l 1
 303 0 l 1
EndSplineSet
EndChar

StartChar: afii10085
Encoding: 445 1091 201
Width: 744
VWidth: 0
GlyphClass: 2
Flags: HW
LayerCount: 2
UndoRedoHistory
Layer: 1
Undoes
EndUndoes
Redoes
EndRedoes
EndUndoRedoHistory
Fore
SplineSet
70 -298 m 1
 70 -242 l 1
 365 -240 376 -70 338 84 c 2
 72 1184 l 1
 138 1184 l 1
 390 100 l 1
 634 1184 l 1
 696 1184 l 1
 405 -78 l 1
 364 -251 271 -279 70 -298 c 1
EndSplineSet
EndChar

StartChar: afii10086
Encoding: 446 1092 202
Width: 1032
VWidth: 0
GlyphClass: 2
Flags: HW
LayerCount: 2
UndoRedoHistory
Layer: 1
Undoes
EndUndoes
Redoes
EndRedoes
EndUndoRedoHistory
Fore
SplineSet
333 30 m 1
 483 45.5737704918 l 1
 483 1136.70588235 l 1
 329 1154 l 1
 181 1165 152 1105 152 769 c 2
 152 400 l 2
 152 64 191 18 333 30 c 1
483 -390 m 1
 483 1.31147540984 l 1
 333 -20 l 1
 155 -41 96 41 96 404 c 2
 96 768 l 2
 96 1127 148 1219 329 1204 c 1
 483 1185.05882353 l 1
 483 1657.89550781 l 1
 547 1657.89550781 l 1
 547 1184.81283422 l 1
 703 1204 l 1
 884 1219 936 1127 936 768 c 2
 936 404 l 2
 936 41 877 -41 699 -20 c 1
 547 1.5956284153 l 1
 547 -390 l 1
 483 -390 l 1
547 1136.48128342 m 1
 547 45.781420765 l 1
 699 30 l 1
 841 18 880 64 880 400 c 2
 880 769 l 2
 880 1105 851 1165 703 1154 c 1
 547 1136.48128342 l 1
EndSplineSet
EndChar

StartChar: afii10087
Encoding: 447 1093 203
Width: 726
VWidth: 0
GlyphClass: 2
Flags: HW
LayerCount: 2
UndoRedoHistory
Layer: 1
Undoes
EndUndoes
Redoes
EndRedoes
EndUndoRedoHistory
Fore
SplineSet
631 0 m 1
 367.447886867 545.534443967 l 1
 102 0 l 1
 35 0 l 1
 333.730934539 615.326177457 l 1
 59 1184 l 1
 130 1184 l 1
 370.926454979 675.520636906 l 1
 616 1184 l 1
 687 1184 l 1
 401.722740835 610.524554102 l 1
 691 0 l 1
 631 0 l 1
EndSplineSet
EndChar

StartChar: afii10088
Encoding: 448 1094 204
Width: 777
VWidth: 0
GlyphClass: 2
Flags: HW
LayerCount: 2
UndoRedoHistory
Layer: 1
Undoes
EndUndoes
Redoes
EndRedoes
EndUndoRedoHistory
Fore
SplineSet
713 -264 m 1
 706 0 l 1
 118 0 l 1
 118 1184 l 1
 182 1184 l 1
 182 44 l 1
 593 44 l 1
 593 1184 l 1
 657 1184 l 1
 657 44 l 1
 764 44 l 1
 764 -264 l 1
 713 -264 l 1
EndSplineSet
EndChar

StartChar: afii10089
Encoding: 449 1095 205
Width: 724
VWidth: 0
GlyphClass: 2
Flags: HW
LayerCount: 2
UndoRedoHistory
Layer: 1
Undoes
EndUndoes
Redoes
EndRedoes
EndUndoRedoHistory
Fore
SplineSet
538 0 m 1
 538 552.160395683 l 1
 460.131867188 526.283707095 388.877566384 513 327 513 c 0
 174 513 87 593 87 757 c 2
 87 1184 l 1
 151 1184 l 1
 151 754 l 2
 151 619 217 563 334 563 c 0
 393.044578047 563 462.185259583 576.979220214 538 602.884433879 c 1
 538 1184 l 1
 602 1184 l 1
 602 0 l 1
 538 0 l 1
EndSplineSet
EndChar

StartChar: afii10090
Encoding: 450 1096 206
Width: 1066
VWidth: 0
GlyphClass: 2
Flags: HW
LayerCount: 2
UndoRedoHistory
Layer: 1
Undoes
EndUndoes
Redoes
EndRedoes
EndUndoRedoHistory
Fore
SplineSet
182 44 m 1
 508 44 l 1
 508 1184 l 1
 572 1184 l 1
 572 44 l 1
 884 44 l 1
 884 1184 l 1
 948 1184 l 1
 948 0 l 1
 118 0 l 1
 118 1184 l 1
 182 1184 l 1
 182 44 l 1
EndSplineSet
EndChar

StartChar: afii10091
Encoding: 451 1097 207
Width: 1096
VWidth: 0
GlyphClass: 2
Flags: HW
LayerCount: 2
UndoRedoHistory
Layer: 1
Undoes
EndUndoes
Redoes
EndRedoes
EndUndoRedoHistory
Fore
SplineSet
994 -264 m 1
 984 0 l 1
 118.436523438 0 l 1
 118.436523438 1184 l 1
 180.272460938 1184 l 1
 180.272460938 44 l 1
 515.436523438 44 l 1
 515.436523438 1184 l 1
 577.272460938 1184 l 1
 577.272460938 44 l 1
 899.436523438 44 l 1
 899.436523438 1184 l 1
 961.272460938 1184 l 1
 961.272460938 44 l 1
 1043 44 l 1
 1043 -264 l 1
 994 -264 l 1
EndSplineSet
EndChar

StartChar: afii10092
Encoding: 452 1098 208
Width: 771
VWidth: 0
GlyphClass: 2
Flags: HW
LayerCount: 2
UndoRedoHistory
Layer: 1
Undoes
EndUndoes
Redoes
EndRedoes
EndUndoRedoHistory
Fore
SplineSet
195 1133 m 1
 29 1133 l 1
 29 1184 l 1
 259 1184 l 1
 259 629 l 1
 352 629 l 2
 668 629 671 442 671 306 c 0
 671 174 665 0 352 0 c 2
 195 0 l 1
 195 1133 l 1
259 52 m 1
 352 52 l 2
 604 52 607 174 607 307 c 0
 607 443 604 577 352 577 c 2
 259 577 l 1
 259 52 l 1
EndSplineSet
EndChar

StartChar: afii10093
Encoding: 453 1099 209
Width: 1011
VWidth: 0
GlyphClass: 2
Flags: HW
LayerCount: 2
UndoRedoHistory
Layer: 1
Undoes
EndUndoes
Redoes
EndRedoes
EndUndoRedoHistory
Fore
SplineSet
829 0 m 1
 829 1184 l 1
 893 1184 l 1
 893 0 l 1
 829 0 l 1
182 52 m 1
 277 52 l 2
 529 52 532 174 532 307 c 0
 532 443 529 577 277 577 c 2
 182 577 l 1
 182 52 l 1
182 629 m 1
 277 629 l 2
 593 629 596 442 596 306 c 0
 596 174 590 0 277 0 c 2
 118 0 l 1
 118 1184 l 1
 182 1184 l 1
 182 629 l 1
EndSplineSet
EndChar

StartChar: afii10094
Encoding: 454 1100 210
Width: 687
VWidth: 0
GlyphClass: 2
Flags: HW
LayerCount: 2
UndoRedoHistory
Layer: 1
Undoes
EndUndoes
Redoes
EndRedoes
EndUndoRedoHistory
Fore
SplineSet
182 52 m 1
 296 52 l 2
 548 52 551 174 551 307 c 0
 551 443 548 577 296 577 c 2
 182 577 l 1
 182 52 l 1
182 629 m 1
 296 629 l 2
 612 629 615 442 615 306 c 0
 615 174 609 0 296 0 c 2
 118 0 l 1
 118 1184 l 1
 182 1184 l 1
 182 629 l 1
EndSplineSet
EndChar

StartChar: afii10095
Encoding: 455 1101 211
Width: 770
VWidth: 0
GlyphClass: 2
Flags: HW
LayerCount: 2
UndoRedoHistory
Layer: 1
Undoes
EndUndoes
Redoes
EndRedoes
EndUndoRedoHistory
Fore
SplineSet
396 -20 m 0
 154 -20 118 142 118 327 c 2
 118 346 l 1
 182 346 l 1
 182 329 l 2
 182 91 259 30 404 30 c 0
 585 30 610 155 610 463 c 2
 610 575 l 1
 261 575 l 1
 261 626 l 1
 610 626 l 1
 610 723 l 2
 610 1025 580 1134 402 1134 c 0
 222 1134 182 1029 182 809 c 2
 182 792 l 1
 118 792 l 1
 118 811 l 2
 118 992 141 1184 402 1184 c 0
 658 1184 674 987 674 722 c 2
 674 463 l 2
 674 90 605 -20 396 -20 c 0
EndSplineSet
EndChar

StartChar: afii10096
Encoding: 456 1102 212
Width: 1002
VWidth: 0
GlyphClass: 2
Flags: HW
LayerCount: 2
UndoRedoHistory
Layer: 1
Undoes
EndUndoes
Redoes
EndRedoes
EndUndoRedoHistory
Fore
SplineSet
627 -20 m 0
 402 -20 348 128 348 437 c 2
 348 556 l 1
 182 556 l 1
 182 0 l 1
 118 0 l 1
 118 1184 l 1
 182 1184 l 1
 182 603 l 1
 348 603 l 1
 348 747 l 2
 348 1053 402 1204 627 1204 c 0
 852 1204 906 1056 906 747 c 2
 906 437 l 2
 906 128 852 -20 627 -20 c 0
627 30 m 0
 818 30 842 171 842 437 c 2
 842 747 l 2
 842 1013 818 1154 627 1154 c 0
 436 1154 412 1013 412 747 c 2
 412 437 l 2
 412 171 436 30 627 30 c 0
EndSplineSet
EndChar

StartChar: afii10097
Encoding: 457 1103 213
Width: 733
VWidth: 0
GlyphClass: 2
Flags: HW
LayerCount: 2
UndoRedoHistory
Layer: 1
Undoes
EndUndoes
Redoes
EndRedoes
EndUndoRedoHistory
Fore
SplineSet
90 0 m 1
 272.06665462 584.529785884 l 1
 133.722733532 642.594860517 132 774.940665284 132 878 c 0
 132 1010 138 1184 451 1184 c 2
 615 1184 l 1
 615 0 l 1
 551 0 l 1
 551 555 l 1
 451 555 l 2
 404.123295972 555 364.134451904 559.115111222 330.021488445 566.56839468 c 1
 159 0 l 1
 90 0 l 1
551 1132 m 1
 451 1132 l 2
 199 1132 196 1010 196 877 c 0
 196 741 199 607 451 607 c 2
 551 607 l 1
 551 1132 l 1
EndSplineSet
EndChar

StartChar: afii10099
Encoding: 459 1106 214
Width: 790
VWidth: 0
GlyphClass: 2
Flags: HW
HStem: -338 172
VStem: 595 372
LayerCount: 2
UndoRedoHistory
Layer: 1
Undoes
EndUndoes
Redoes
EndRedoes
EndUndoRedoHistory
Fore
SplineSet
375 -224 m 1
 375 -172 l 1
 417 -172 l 2
 613 -172 614 -47 614 204 c 2
 614 991.967773438 l 2
 614 1132.43945312 553 1163.19335938 478 1163.19335938 c 0
 382.532127071 1163.19335938 282.930868763 1108.22337034 204 1028.27076859 c 1
 204 0 l 1
 140 0 l 1
 140 1432 l 1
 0 1432 l 1
 0 1473 l 1
 140 1473 l 1
 140 1658 l 1
 204 1658 l 1
 204 1473 l 1
 580 1473 l 1
 580 1432 l 1
 204 1432 l 1
 204 1071.98583033 l 1
 278.108484381 1153.9801722 380.703663163 1204.75292969 489 1204.75292969 c 0
 580 1204.75292969 679 1165.68652344 679 984.487304688 c 2
 679 204 l 2
 679 -43 677 -224 416 -224 c 2
 375 -224 l 1
EndSplineSet
EndChar

StartChar: afii10101
Encoding: 461 1108 216
Width: 753
VWidth: 0
GlyphClass: 2
Flags: HW
LayerCount: 2
UndoRedoHistory
Layer: 1
Undoes
EndUndoes
Redoes
EndRedoes
EndUndoRedoHistory
Fore
SplineSet
377 -20 m 0
 121 -20 96 194 96 442 c 2
 96 721 l 2
 96 1090 167 1204 376 1204 c 0
 618 1204 652 1034 652 829 c 2
 652 800 l 1
 588 800 l 1
 588 827 l 2
 588 1100 521 1154 376 1154 c 0
 195 1154 160 1034 160 721 c 2
 160 626 l 1
 480 626 l 1
 480 575 l 1
 160 575 l 1
 160 441 l 2
 160 161 199 30 377 30 c 0
 557 30 588 125 588 405 c 2
 588 422 l 1
 652 422 l 1
 652 403 l 2
 652 168 638 -20 377 -20 c 0
EndSplineSet
EndChar

StartChar: afii10102
Encoding: 462 1109 217
Width: 699
VWidth: 0
GlyphClass: 2
Flags: HW
LayerCount: 2
UndoRedoHistory
Layer: 1
Undoes
EndUndoes
Redoes
EndRedoes
EndUndoRedoHistory
Fore
SplineSet
377 -20 m 0
 194 -20 86 109 70 320 c 1
 125 336 l 1
 139 119 231 30 380 30 c 0
 514 30 591 105 591 245 c 0
 591 343 532 447 387 568 c 2
 276 661 l 2
 142 773 95 855 95 967 c 0
 95 1119 197 1204 350 1204 c 0
 520 1204 600 1091 604 894 c 1
 550 882 l 1
 548 1090 468 1154 353 1154 c 0
 238 1154 156 1099 156 980 c 0
 156 874 184 814 303 712 c 2
 416 615 l 2
 531 516 647 418 651 240 c 1
 651 80 546 -20 377 -20 c 0
EndSplineSet
EndChar

StartChar: afii10103
Encoding: 463 1110 218
Width: 474
VWidth: 0
GlyphClass: 2
Flags: HW
LayerCount: 2
UndoRedoHistory
Layer: 1
Undoes
EndUndoes
Redoes
EndRedoes
EndUndoRedoHistory
Fore
SplineSet
209 0 m 1
 209 1184 l 1
 273 1184 l 1
 273 0 l 1
 209 0 l 1
195 1330 m 1
 195 1491 l 1
 291 1491 l 1
 291 1330 l 1
 195 1330 l 1
EndSplineSet
EndChar

StartChar: afii10105
Encoding: 465 1112 220
Width: 391
VWidth: 0
GlyphClass: 2
Flags: HW
LayerCount: 2
UndoRedoHistory
Layer: 1
Undoes
EndUndoes
Redoes
EndRedoes
EndUndoRedoHistory
Fore
SplineSet
175 1331 m 1
 175 1503 l 1
 239 1503 l 1
 239 1331 l 1
 175 1331 l 1
-29 -324 m 1
 -29 -266 l 1
 14 -266 l 2
 177 -266 175 -164 175 -75 c 2
 175 1184 l 1
 239 1184 l 1
 239 -76 l 2
 239 -268 154 -324 11 -324 c 2
 -29 -324 l 1
EndSplineSet
EndChar

StartChar: afii10106
Encoding: 466 1113 221
Width: 1160
VWidth: 0
GlyphClass: 2
Flags: HW
HStem: 0 110 587 115 1179 19
VStem: 99 148 602 137
LayerCount: 2
UndoRedoHistory
Layer: 1
Undoes
EndUndoes
Redoes
EndRedoes
EndUndoRedoHistory
Fore
SplineSet
50 -10 m 1
 50 40 l 1
 204 40 207 184 231 545 c 2
 274 1184 l 1
 715 1184 l 1
 715 629 l 1
 801 629 l 2
 1117 629 1120 442 1120 306 c 0
 1120 174 1114 0 801 0 c 2
 651 0 l 1
 651 1132 l 1
 334.50625 1132 l 1
 295 544 l 2
 261 38 239 -10 58 -10 c 2
 50 -10 l 1
715 52 m 1
 801 52 l 2
 1053 52 1056 174 1056 307 c 0
 1056 443 1053 577 801 577 c 2
 715 577 l 1
 715 52 l 1
EndSplineSet
EndChar

StartChar: afii10107
Encoding: 467 1114 222
Width: 1144
VWidth: 0
GlyphClass: 2
Flags: HW
HStem: 0 110 587 115 1179 19
VStem: 99 148 602 137
LayerCount: 2
UndoRedoHistory
Layer: 1
Undoes
EndUndoes
Redoes
EndRedoes
EndUndoRedoHistory
Fore
SplineSet
118 0 m 1
 118 1184 l 1
 182 1184 l 1
 182 629 l 1
 597 629 l 1
 597 1184 l 1
 661 1184 l 1
 661 629 l 1
 775 629 l 2
 1091 629 1094 442 1094 306 c 0
 1094 174 1088 0 775 0 c 2
 597 0 l 1
 597 577 l 1
 182 577 l 1
 182 0 l 1
 118 0 l 1
661 52 m 1
 775 52 l 2
 1027 52 1030 174 1030 307 c 0
 1030 443 1027 577 775 577 c 2
 661 577 l 1
 661 52 l 1
EndSplineSet
EndChar

StartChar: afii10108
Encoding: 468 1115 223
Width: 731
VWidth: 0
GlyphClass: 2
Flags: HW
HStem: 0 110 587 115 1179 19
VStem: 99 148 602 137
LayerCount: 2
UndoRedoHistory
Layer: 1
Undoes
EndUndoes
Redoes
EndRedoes
EndUndoRedoHistory
Fore
SplineSet
182 52 m 1
 296 52 l 2
 548 52 551 174 551 307 c 0
 551 443 548 577 296 577 c 2
 182 577 l 1
 182 52 l 1
182 629 m 1
 296 629 l 2
 612 629 615 442 615 306 c 0
 615 174 609 0 296 0 c 2
 118 0 l 1
 118 1184 l 1
 182 1184 l 1
 182 629 l 1
EndSplineSet
EndChar

StartChar: afii10145
Encoding: 393 1039 226
Width: 1017
VWidth: 0
GlyphClass: 2
Flags: HW
LayerCount: 2
UndoRedoHistory
Layer: 1
Undoes
EndUndoes
Redoes
EndRedoes
EndUndoRedoHistory
Fore
SplineSet
505 -264 m 1
 495.054794521 0 l 1
 162 0 l 1
 162 1658 l 1
 226 1658 l 1
 226 52 l 1
 791 52 l 1
 791 1658 l 1
 855 1658 l 1
 855 0 l 1
 565.04109589 0 l 1
 556 -264 l 1
 505 -264 l 1
EndSplineSet
EndChar

StartChar: afii10193
Encoding: 471 1119 227
Width: 790
VWidth: 0
GlyphClass: 2
Flags: HW
HStem: 2 20 1094 105
VStem: 111 153 593 153
LayerCount: 2
UndoRedoHistory
Layer: 1
Undoes
EndUndoes
Redoes
EndRedoes
EndUndoRedoHistory
Fore
SplineSet
378 -264 m 1
 368.865051903 1.7763568394e-15 l 1
 118 0 l 1
 118 1184 l 1
 182 1184 l 1
 182 52 l 1
 608 52 l 1
 608 1184 l 1
 672 1184 l 1
 672 0 l 1
 431.134948097 0 l 1
 422 -264 l 1
 378 -264 l 1
EndSplineSet
EndChar

StartChar: afii61352
Encoding: 511 8470 228
Width: 1831
VWidth: 0
GlyphClass: 2
Flags: HW
LayerCount: 2
UndoRedoHistory
Layer: 1
Undoes
EndUndoes
Redoes
EndRedoes
EndUndoRedoHistory
Fore
SplineSet
1420 -20 m 0
 1195 -20 1141 128 1141 437 c 2
 1141 747 l 2
 1141 1053 1195 1204 1420 1204 c 0
 1645 1204 1699 1056 1699 747 c 2
 1699 437 l 2
 1699 128 1645 -20 1420 -20 c 0
1420 30 m 0
 1611 30 1635 171 1635 437 c 2
 1635 747 l 2
 1635 1013 1611 1154 1420 1154 c 0
 1229 1154 1205 1013 1205 747 c 2
 1205 437 l 2
 1205 171 1229 30 1420 30 c 0
162 0 m 1
 162 1658 l 1
 224 1658 l 1
 823 137 l 1
 823 1658 l 1
 883 1658 l 1
 883 0 l 1
 820 0 l 1
 222 1512 l 1
 222 0 l 1
 162 0 l 1
EndSplineSet
EndChar

StartChar: ampersand
Encoding: 6 38 231
Width: 1229
VWidth: 0
GlyphClass: 2
Flags: HW
LayerCount: 2
UndoRedoHistory
Layer: 1
Undoes
EndUndoes
Redoes
EndRedoes
EndUndoRedoHistory
Fore
SplineSet
452 905 m 1
 640 1073 811 1231 811 1403 c 0
 811 1547 704 1623 541 1623 c 0
 349 1623 259 1507 259 1353 c 0
 259 1228 312 1128 452 905 c 1
527 32 m 0
 639 32 734 66 847 181 c 1
 438 825 l 1
 235 613 181 493 181 358 c 0
 181 209.829 268.361 32 527 32 c 0
525 -24 m 0
 243.062 -24 116 163.121 116 359 c 0
 116 485 165 627 409 872 c 1
 245 1129 198 1222 198 1349 c 0
 198 1570 336 1678 545 1678 c 0
 757 1678 870 1569 870 1397 c 0
 870 1250 744 1087 478 858 c 1
 884 216 l 1
 995 344 1076 582 1076 702 c 1
 1127 702 l 1
 1127 567 1056 333 912 173 c 1
 1005 54 1060 41 1134 41 c 1
 1134 -10 l 1
 1117.56 -10 1100.6 -8.35498 1083.42 -4.93912 c 0
 1010.75 9.51071 933 52 874 139 c 1
 795 56 673 -24 525 -24 c 0
EndSplineSet
EndChar

StartChar: U+2248
Encoding: 549 8776 233
Width: 755
VWidth: 0
GlyphClass: 2
Flags: HW
LayerCount: 2
UndoRedoHistory
Layer: 1
Undoes
EndUndoes
Redoes
EndRedoes
EndUndoRedoHistory
Fore
SplineSet
507 595 m 0
 438 595 309 704 254 704 c 0
 230 704 193 685 125 617 c 1
 100 644 l 1
 164 719 208 748 257 748 c 0
 323 748 456 641 506 641 c 0
 544 641 565 658 631 710 c 1
 655 681 l 1
 591 621 550 595 507 595 c 0
507 827 m 0
 438 827 309 936 254 936 c 0
 230 936 193 917 125 849 c 1
 100 876 l 1
 164 951 208 980 257 980 c 0
 323 980 456 873 506 873 c 0
 544 873 565 890 631 942 c 1
 655 913 l 1
 591 853 550 827 507 827 c 0
EndSplineSet
EndChar

StartChar: asciicircum
Encoding: 62 94 235
AltUni2: 000302.ffffffff.0
Width: 683
VWidth: 0
GlyphClass: 2
Flags: HW
LayerCount: 2
UndoRedoHistory
Layer: 1
Undoes
EndUndoes
Redoes
EndRedoes
EndUndoRedoHistory
Fore
SplineSet
342 1627 m 1
 91 1107 l 1
 46 1107 l 1
 303 1658 l 1
 380 1658 l 1
 637 1107 l 1
 592 1107 l 1
 342 1627 l 1
EndSplineSet
EndChar

StartChar: asciitilde
Encoding: 94 126 236
AltUni2: 000303.ffffffff.0
Width: 729
VWidth: 0
GlyphClass: 2
Flags: HW
LayerCount: 2
UndoRedoHistory
Layer: 1
Undoes
EndUndoes
Redoes
EndRedoes
EndUndoRedoHistory
Fore
SplineSet
494 797 m 0
 425 797 296 906 241 906 c 0
 217 906 180 887 112 819 c 1
 87 846 l 1
 151 921 195 950 244 950 c 0
 310 950 443 843 493 843 c 0
 531 843 552 860 618 912 c 1
 642 883 l 1
 578 823 537 797 494 797 c 0
EndSplineSet
EndChar

StartChar: asterisk
Encoding: 10 42 237
Width: 696
VWidth: 0
GlyphClass: 2
Flags: HW
LayerCount: 2
UndoRedoHistory
Layer: 1
Undoes
EndUndoes
Redoes
EndRedoes
EndUndoRedoHistory
Fore
SplineSet
165 1028 m 1
 122 1058 l 1
 320 1311 l 1
 46 1424 l 1
 66 1468 l 1
 332 1344 l 1
 324 1658 l 1
 379 1658 l 1
 367 1344 l 1
 629 1468 l 1
 648 1424 l 1
 376 1312 l 1
 574 1054 l 1
 531 1028 l 1
 347 1291 l 1
 165 1028 l 1
EndSplineSet
EndChar

StartChar: at
Encoding: 32 64 238
Width: 1567
VWidth: 0
GlyphClass: 2
Flags: HW
LayerCount: 2
UndoRedoHistory
Layer: 1
Undoes
EndUndoes
Redoes
EndRedoes
EndUndoRedoHistory
Fore
SplineSet
724 327 m 0
 837 327 930 424 991 571 c 1
 1069 1138 l 1
 1026 1170 975 1186 923 1186 c 0
 740 1186 531 993 531 624 c 0
 531 370 641 327 724 327 c 0
885 -174 m 0
 489 -174 120 -22 120 722 c 0
 120 1362 460 1651 828 1656 c 0
 1305 1662 1520 1416 1487 789 c 0
 1460 292 1191 295 1139 295 c 0
 1069 295 973 354 990 486 c 1
 938 373 846 277 725 277 c 0
 583 277 464 377 464 625 c 0
 464 1032 716 1239 922 1239 c 0
 981 1239 1035 1222 1079 1188 c 1
 1095 1232 l 1
 1146 1232 l 1
 1060 573 l 1
 1045 440 1047 354 1157 354 c 0
 1212 354 1400 368 1425 790 c 0
 1465 1487 1191 1612 829 1605 c 1
 473 1597 182 1304 182 720 c 0
 182 -67 609 -123 887 -123 c 0
 1048 -123 1183 -94 1269 -74 c 1
 1292 -123 l 1
 1155 -149 999 -174 885 -174 c 0
EndSplineSet
EndChar

StartChar: b
Encoding: 66 98 240
Width: 772
VWidth: 0
GlyphClass: 2
Flags: HW
LayerCount: 2
UndoRedoHistory
Layer: 1
Undoes
EndUndoes
Redoes
EndRedoes
EndUndoRedoHistory
Fore
SplineSet
405 -20 m 0
 294.463507887 -20 221.437744523 50.1986495161 182 101.942704632 c 1
 182 0 l 1
 118 0 l 1
 118 1658 l 1
 182 1658 l 1
 182 1080.91367096 l 1
 222.649850843 1136.5765886 297.653826879 1204 410 1204 c 0
 617 1204 676 1057 676 698 c 2
 676 494 l 2
 676 131 610 -20 405 -20 c 0
182 1024.58877002 m 1
 182 158.873329066 l 1
 231.476011634 91.4631987032 310.391640025 30 405 30 c 0
 567 30 612 154 612 490 c 2
 612 699 l 2
 612 1035 579 1154 410 1154 c 0
 307.68762498 1154 225.339309875 1076.19135623 182 1024.58877002 c 1
EndSplineSet
EndChar

StartChar: backslash
Encoding: 60 92 241
Width: 640
VWidth: 0
GlyphClass: 2
Flags: HW
LayerCount: 2
UndoRedoHistory
Layer: 1
Undoes
EndUndoes
Redoes
EndRedoes
EndUndoRedoHistory
Fore
SplineSet
602 0 m 1
 541 0 l 1
 38 1658 l 1
 98 1658 l 1
 602 0 l 1
EndSplineSet
EndChar

StartChar: bar
Encoding: 92 124 242
Width: 389
VWidth: 0
GlyphClass: 2
Flags: HW
LayerCount: 2
UndoRedoHistory
Layer: 1
Undoes
EndUndoes
Redoes
EndRedoes
EndUndoRedoHistory
Fore
SplineSet
164 -283 m 1
 164 1658 l 1
 225 1658 l 1
 225 -283 l 1
 164 -283 l 1
EndSplineSet
EndChar

StartChar: braceleft
Encoding: 91 123 243
Width: 418
VWidth: 0
GlyphClass: 2
Flags: HW
LayerCount: 2
UndoRedoHistory
Layer: 1
Undoes
EndUndoes
Redoes
EndRedoes
EndUndoRedoHistory
Fore
SplineSet
387 -269 m 1
 194 -269 193 -221 193 144 c 2
 193 378 l 2
 193 602 174 675 74 675 c 1
 74 747 l 1
 174 747 193 820 193 1044 c 2
 193 1261 l 2
 193 1626 194 1674 387 1674 c 1
 387 1624 l 1
 250 1624 250 1608 250 1261 c 2
 250 1012 l 2
 250 807 232 740 149 711 c 1
 232 682 250 615 250 410 c 2
 250 144 l 2
 250 -203 250 -219 387 -219 c 1
 387 -269 l 1
EndSplineSet
EndChar

StartChar: braceright
Encoding: 93 125 244
Width: 418
VWidth: 0
GlyphClass: 2
Flags: HW
LayerCount: 2
UndoRedoHistory
Layer: 1
Undoes
EndUndoes
Redoes
EndRedoes
EndUndoRedoHistory
Fore
SplineSet
31 -269 m 1
 31 -219 l 1
 168 -219 168 -203 168 144 c 2
 168 410 l 2
 168 615 186 682 269 711 c 1
 186 740 168 807 168 1012 c 2
 168 1261 l 2
 168 1608 168 1624 31 1624 c 1
 31 1674 l 1
 224 1674 225 1626 225 1261 c 2
 225 1044 l 2
 225 820 244 747 344 747 c 1
 344 675 l 1
 244 675 225 602 225 378 c 2
 225 144 l 2
 225 -221 224 -269 31 -269 c 1
EndSplineSet
EndChar

StartChar: bracketleft
Encoding: 59 91 245
Width: 520
VWidth: 0
GlyphClass: 2
Flags: HW
LayerCount: 2
UndoRedoHistory
Layer: 1
Undoes
EndUndoes
Redoes
EndRedoes
EndUndoRedoHistory
Fore
SplineSet
161 -264 m 1
 161 1658 l 1
 402 1658 l 1
 402 1610 l 1
 227 1610 l 1
 227 -215 l 1
 402 -215 l 1
 402 -264 l 1
 161 -264 l 1
EndSplineSet
EndChar

StartChar: bracketright
Encoding: 61 93 246
Width: 520
VWidth: 0
GlyphClass: 2
Flags: HW
LayerCount: 2
UndoRedoHistory
Layer: 1
Undoes
EndUndoes
Redoes
EndRedoes
EndUndoRedoHistory
Fore
SplineSet
118 -262 m 1
 118 -214 l 1
 293 -214 l 1
 293 1609 l 1
 118 1609 l 1
 118 1658 l 1
 359 1658 l 1
 359 -262 l 1
 118 -262 l 1
EndSplineSet
EndChar

StartChar: breve
Encoding: 361 728 247
Width: 744
VWidth: 0
GlyphClass: 2
Flags: HW
LayerCount: 2
UndoRedoHistory
Layer: 1
Undoes
EndUndoes
Redoes
EndRedoes
EndUndoRedoHistory
Fore
SplineSet
373 1462 m 0
 268 1462 166 1509 157 1658 c 1
 211 1658 l 1
 216 1546 294 1510 372 1510 c 0
 451 1510 531 1546 541 1658 c 1
 595 1658 l 1
 586 1509 478 1462 373 1462 c 0
EndSplineSet
EndChar

StartChar: brevecomb
Encoding: 65537 774 248
Width: 744
VWidth: 0
GlyphClass: 2
Flags: HW
LayerCount: 2
UndoRedoHistory
Layer: 1
Undoes
EndUndoes
Redoes
EndRedoes
EndUndoRedoHistory
Fore
SplineSet
373 1462 m 0
 268 1462 166 1509 157 1658 c 1
 211 1658 l 1
 216 1546 294 1510 372 1510 c 0
 451 1510 531 1546 541 1658 c 1
 595 1658 l 1
 586 1509 478 1462 373 1462 c 0
EndSplineSet
EndChar

StartChar: brokenbar
Encoding: 102 166 249
Width: 387
VWidth: 0
GlyphClass: 2
Flags: HW
LayerCount: 2
UndoRedoHistory
Layer: 1
Undoes
EndUndoes
Redoes
EndRedoes
EndUndoRedoHistory
Fore
SplineSet
162 793 m 1
 162 1658 l 1
 226 1658 l 1
 226 793 l 1
 162 793 l 1
162 -390 m 1
 162 475 l 1
 226 475 l 1
 226 -390 l 1
 162 -390 l 1
EndSplineSet
EndChar

StartChar: bullet
Encoding: 505 8226 250
Width: 462
VWidth: 0
GlyphClass: 2
Flags: HW
LayerCount: 2
UndoRedoHistory
Layer: 1
Undoes
EndUndoes
Redoes
EndRedoes
EndUndoRedoHistory
Fore
SplineSet
230 672 m 0
 149 672 108 734 108 797 c 0
 108 859 149 921 230 921 c 0
 313 921 354 859 354 797 c 0
 354 734 313 672 230 672 c 0
EndSplineSet
EndChar

StartChar: c
Encoding: 67 99 251
Width: 739
VWidth: 0
GlyphClass: 2
Flags: HW
LayerCount: 2
UndoRedoHistory
Layer: 1
Undoes
EndUndoes
Redoes
EndRedoes
EndUndoRedoHistory
Fore
SplineSet
377 -20 m 0
 121 -20 96 194 96 442 c 2
 96 721 l 2
 96 1090 167 1204 376 1204 c 0
 618 1204 652 1022 652 817 c 2
 652 778 l 1
 588 778 l 1
 588 815 l 2
 588 1088 521 1154 376 1154 c 0
 195 1154 160 1034 160 721 c 2
 160 441 l 2
 160 161 199 30 377 30 c 0
 557 30 588 135 588 415 c 2
 588 442 l 1
 652 442 l 1
 652 413 l 2
 652 178 638 -20 377 -20 c 0
EndSplineSet
EndChar

StartChar: caron
Encoding: 360 711 253
Width: 517
VWidth: 0
GlyphClass: 2
Flags: HW
LayerCount: 2
UndoRedoHistory
Layer: 1
Undoes
EndUndoes
Redoes
EndRedoes
EndUndoRedoHistory
Fore
SplineSet
246 1335 m 1
 75 1658 l 1
 138 1658 l 1
 262 1405 l 1
 386 1658 l 1
 448 1658 l 1
 275 1335 l 1
 246 1335 l 1
EndSplineSet
EndChar

StartChar: cedilla
Encoding: 120 184 258
Width: 392
VWidth: 0
GlyphClass: 2
Flags: HW
LayerCount: 2
UndoRedoHistory
Layer: 1
Undoes
EndUndoes
Redoes
EndRedoes
EndUndoRedoHistory
Fore
SplineSet
52 -344 m 1
 52 -308 l 1
 192 -308 212 -283 218 -230 c 0
 225 -166 183 -120 91 -109 c 1
 91 0 l 1
 130 0 l 1
 130 -89 l 1
 241 -103 278 -181 269 -241 c 0
 259 -305 220 -344 52 -344 c 1
EndSplineSet
EndChar

StartChar: cent
Encoding: 98 162 259
Width: 769
VWidth: 0
GlyphClass: 2
Flags: HW
LayerCount: 2
UndoRedoHistory
Layer: 1
Undoes
EndUndoes
Redoes
EndRedoes
EndUndoRedoHistory
Fore
SplineSet
342 -256 m 1
 342 -18.5655481721 l 1
 118.677242809 0.44441318893 96 205.801681484 96 442 c 2
 96 721 l 2
 96 1078.586237 162.675642067 1196.7036187 357 1203.66861381 c 1
 357 1436 l 1
 409 1436 l 1
 409 1202.79239779 l 1
 621.144002754 1186.71059426 652 1012.29188443 652 817 c 2
 652 778 l 1
 588 778 l 1
 588 815 l 2
 588 1088 521 1154 376 1154 c 0
 195 1154 160 1034 160 721 c 2
 160 441 l 2
 160 161 199 30 377 30 c 0
 557 30 588 135 588 415 c 2
 588 442 l 1
 652 442 l 1
 652 413 l 2
 652 183.210751349 638.613972238 -11.2011382174 394 -19.7097090809 c 1
 394 -256 l 1
 342 -256 l 1
EndSplineSet
EndChar

StartChar: circumflex
Encoding: 359 710 260
Width: 637
VWidth: 0
GlyphClass: 2
Flags: HW
LayerCount: 2
UndoRedoHistory
Layer: 1
Undoes
EndUndoes
Redoes
EndRedoes
EndUndoRedoHistory
Fore
SplineSet
89 1287 m 1
 266 1658 l 1
 366 1658 l 1
 537 1287 l 1
 496 1287 l 1
 315 1627 l 1
 134 1287 l 1
 89 1287 l 1
EndSplineSet
EndChar

StartChar: colon
Encoding: 26 58 261
Width: 387
VWidth: 0
GlyphClass: 2
Flags: HW
LayerCount: 2
UndoRedoHistory
Layer: 1
Undoes
EndUndoes
Redoes
EndRedoes
EndUndoRedoHistory
Fore
SplineSet
166 889 m 1
 166 1090 l 1
 246 1090 l 1
 246 889 l 1
 166 889 l 1
166 138 m 1
 166 339 l 1
 246 339 l 1
 246 138 l 1
 166 138 l 1
EndSplineSet
EndChar

StartChar: comma
Encoding: 12 44 262
Width: 355
VWidth: 0
GlyphClass: 2
Flags: HW
LayerCount: 2
UndoRedoHistory
Layer: 1
Undoes
EndUndoes
Redoes
EndRedoes
EndUndoRedoHistory
Fore
SplineSet
151 -200 m 1
 126 -172 l 1
 193 -109 198 -82 198 0 c 1
 142 0 l 1
 142 208 l 1
 236 208 l 1
 236 30 l 2
 236 -89 223 -139 151 -200 c 1
EndSplineSet
EndChar

StartChar: copyright
Encoding: 105 169 263
Width: 1765
VWidth: 0
GlyphClass: 2
Flags: HW
LayerCount: 2
UndoRedoHistory
Layer: 1
Undoes
EndUndoes
Redoes
EndRedoes
EndUndoRedoHistory
Fore
SplineSet
883 -22 m 0
 298 -22 60 427 60 843 c 0
 60 1260 298 1708 883 1708 c 0
 1467 1708 1705 1260 1705 843 c 0
 1705 426 1469 -22 883 -22 c 0
883 28 m 0
 1412 28 1645 432 1645 845 c 0
 1645 1259 1412 1658 883 1658 c 0
 352 1658 121 1259 121 845 c 0
 121 432 352 28 883 28 c 0
846 242 m 0
 562 242 535 459 535 735 c 2
 535 984 l 2
 535 1394 613 1500 845 1500 c 0
 1114 1500 1142 1331 1142 1104 c 2
 1142 1048 l 1
 1081 1048 l 1
 1081 1102 l 2
 1081 1405 1006 1445 845 1445 c 0
 644 1445 602 1332 602 984 c 2
 602 734 l 2
 602 423 649 297 846 297 c 0
 1046 297 1081 373 1081 684 c 2
 1081 735 l 1
 1142 735 l 1
 1142 681 l 2
 1142 421 1136 242 846 242 c 0
EndSplineSet
EndChar

StartChar: currency
Encoding: 100 164 264
Width: 1017
VWidth: 0
GlyphClass: 2
Flags: HW
LayerCount: 2
UndoRedoHistory
Layer: 1
Undoes
EndUndoes
Redoes
EndRedoes
EndUndoRedoHistory
Fore
SplineSet
512 474 m 0
 728 474 892 651 892 866 c 0
 892 1082 728 1258 512 1258 c 0
 297 1258 132 1082 132 866 c 0
 132 651 297 474 512 474 c 0
57 381 m 1
 27 411 l 1
 190 573 l 1
 121 650 79 754 79 866 c 0
 79 979 121 1082 190 1159 c 1
 27 1321 l 1
 57 1351 l 1
 219 1189 l 1
 295 1261 398 1305 512 1304 c 1
 626 1305 729 1261 805 1189 c 1
 967 1351 l 1
 997 1321 l 1
 835 1159 l 1
 903 1082 945 979 945 866 c 0
 945 754 903 650 834 573 c 1
 997 411 l 1
 967 381 l 1
 805 543 l 1
 729 471 626 427 512 428 c 1
 398 427 295 471 219 543 c 1
 57 381 l 1
EndSplineSet
EndChar

StartChar: d
Encoding: 68 100 265
Width: 769
VWidth: 0
GlyphClass: 2
Flags: HW
LayerCount: 2
UndoRedoHistory
Layer: 1
Undoes
EndUndoes
Redoes
EndRedoes
EndUndoRedoHistory
Fore
SplineSet
585 0 m 1
 585 95.5170281376 l 1
 544.535234953 44.5821687968 473.022395399 -20 367 -20 c 0
 162 -20 96 131 96 494 c 2
 96 698 l 2
 96 1057 155 1204 362 1204 c 1
 469.889500114 1202.61680128 543.340703676 1140.96658359 585 1087.19387183 c 1
 585 1658 l 1
 649 1658 l 1
 649 0 l 1
 585 0 l 1
585 152.213087676 m 1
 585 1030.45379417 l 1
 540.503511626 1081.87520221 460.504608161 1154 362 1154 c 0
 193 1154 160 1035 160 699 c 2
 160 490 l 2
 160 154 205 30 367 30 c 0
 458.482486868 30 535.292091153 87.4687901192 585 152.213087676 c 1
EndSplineSet
EndChar

StartChar: dagger
Encoding: 503 8224 266
Width: 646
VWidth: 0
GlyphClass: 2
Flags: HW
LayerCount: 2
UndoRedoHistory
Layer: 1
Undoes
EndUndoes
Redoes
EndRedoes
EndUndoRedoHistory
Fore
SplineSet
295 0 m 1
 295 1153 l 1
 14 1153 l 1
 14 1205 l 1
 295 1205 l 1
 295 1595 l 1
 355 1595 l 1
 355 1205 l 1
 632 1205 l 1
 632 1153 l 1
 355 1153 l 1
 355 0 l 1
 295 0 l 1
EndSplineSet
EndChar

StartChar: daggerdbl
Encoding: 504 8225 267
Width: 730
VWidth: 0
GlyphClass: 2
Flags: HW
LayerCount: 2
UndoRedoHistory
Layer: 1
Undoes
EndUndoes
Redoes
EndRedoes
EndUndoRedoHistory
Fore
SplineSet
337 0 m 1
 337 538 l 1
 56 538 l 1
 56 590 l 1
 337 590 l 1
 337 1132 l 1
 56 1132 l 1
 56 1184 l 1
 337 1184 l 1
 337 1595 l 1
 397 1595 l 1
 397 1184 l 1
 674 1184 l 1
 674 1132 l 1
 397 1132 l 1
 397 590 l 1
 674 590 l 1
 674 538 l 1
 397 538 l 1
 397 0 l 1
 337 0 l 1
EndSplineSet
EndChar

StartChar: dcroat
Encoding: 209 273 269
Width: 803
VWidth: 0
GlyphClass: 2
Flags: HW
LayerCount: 2
UndoRedoHistory
Layer: 1
Undoes
EndUndoes
Redoes
EndRedoes
EndUndoRedoHistory
Fore
SplineSet
585 0 m 1
 585 95.5170281376 l 1
 544.535234953 44.5821687968 473.022395399 -20 367 -20 c 0
 162 -20 96 131 96 494 c 2
 96 698 l 2
 96 1057 155 1204 362 1204 c 1
 469.889500114 1202.61680128 543.340703676 1140.96658359 585 1087.19387183 c 1
 585 1424 l 1
 434 1424 l 1
 434 1473 l 1
 585 1473 l 1
 585 1658 l 1
 649 1658 l 1
 649 1473 l 1
 762 1473 l 1
 762 1424 l 1
 649 1424 l 1
 649 0 l 1
 585 0 l 1
585 1030.45379417 m 1
 540.503511626 1081.87520221 460.504608161 1154 362 1154 c 0
 193 1154 160 1035 160 699 c 2
 160 490 l 2
 160 154 205 30 367 30 c 0
 458.482486868 30 535.292091153 87.4687901192 585 152.213087676 c 1
 585 1030.45379417 l 1
EndSplineSet
EndChar

StartChar: degree
Encoding: 112 176 270
AltUni2: 00030a.ffffffff.0
Width: 744
VWidth: 0
GlyphClass: 2
Flags: HW
LayerCount: 2
UndoRedoHistory
Layer: 1
Undoes
EndUndoes
Redoes
EndRedoes
EndUndoRedoHistory
Fore
SplineSet
372.334174023 1184.06553815 m 0
 267.355326852 1184.06553815 126 1242 126 1431 c 0
 126 1619 265.740267665 1677.27591629 372.334174023 1677.27591629 c 0
 477.313021194 1677.27591629 619 1619 619 1431 c 0
 619 1242 477.313021194 1184.06553815 372.334174023 1184.06553815 c 0
373 1230 m 0
 460 1230 563 1279 563 1430 c 0
 563 1583 460 1633 371 1633 c 0
 284 1633 183 1583 183 1430 c 0
 183 1279 286 1230 373 1230 c 0
EndSplineSet
EndChar

StartChar: dieresis
Encoding: 104 168 271
AltUni2: 000308.ffffffff.0
Width: 739
VWidth: 0
GlyphClass: 2
Flags: HW
LayerCount: 2
UndoRedoHistory
Layer: 1
Undoes
EndUndoes
Redoes
EndRedoes
EndUndoRedoHistory
Fore
SplineSet
479 1533 m 1
 479 1658 l 1
 549 1658 l 1
 549 1533 l 1
 479 1533 l 1
162 1533 m 1
 162 1658 l 1
 232 1658 l 1
 232 1533 l 1
 162 1533 l 1
EndSplineSet
EndChar

StartChar: divide
Encoding: 183 247 272
Width: 665
VWidth: 0
GlyphClass: 2
Flags: HW
LayerCount: 2
UndoRedoHistory
Layer: 1
Undoes
EndUndoes
Redoes
EndRedoes
EndUndoRedoHistory
Fore
SplineSet
298 1105 m 1
 298 1239 l 1
 370 1239 l 1
 370 1105 l 1
 298 1105 l 1
71 833 m 1
 71 891 l 1
 594 891 l 1
 594 833 l 1
 71 833 l 1
298 463 m 1
 298 596 l 1
 370 596 l 1
 370 463 l 1
 298 463 l 1
EndSplineSet
EndChar

StartChar: dollar
Encoding: 4 36 273
Width: 889
VWidth: 0
GlyphClass: 2
Flags: HW
LayerCount: 2
UndoRedoHistory
Layer: 1
Undoes
EndUndoes
Redoes
EndRedoes
EndUndoRedoHistory
Fore
SplineSet
464 -207 m 1
 464 -22.9463529645 l 1
 217.688754807 -19.6251354732 110.744490353 137.68285129 87 387 c 1
 142 407 l 1
 177 171 242 33 474 33 c 0
 657 33 773 114 773 329 c 0
 773 473 691 586 542 738 c 1
 228 1062 l 2
 129 1165 91 1271 91 1355 c 0
 91 1556.95424681 222.58375048 1667.25360535 414 1677.25334654 c 1
 414 1895 l 1
 471 1895 l 1
 471 1677.46114496 l 1
 666.84034739 1669.71683895 800.762670287 1576.46440159 817 1267 c 1
 764 1258 l 1
 740 1519 656 1625 448 1625 c 0
 280 1625 149 1547 149 1358 c 0
 149 1280 179 1197 276 1097 c 2
 584 782 l 2
 719 643 833 495 833 331 c 0
 833 99.9950620316 704.928124722 -6.35325066633 519 -21.1804019703 c 1
 519 -207 l 1
 464 -207 l 1
EndSplineSet
EndChar

StartChar: dotaccent
Encoding: 362 729 274
Width: 339
VWidth: 0
GlyphClass: 2
Flags: HW
LayerCount: 2
UndoRedoHistory
Layer: 1
Undoes
EndUndoes
Redoes
EndRedoes
EndUndoRedoHistory
Fore
SplineSet
119 1330 m 1
 119 1491 l 1
 215 1491 l 1
 215 1330 l 1
 119 1330 l 1
EndSplineSet
EndChar

StartChar: dotlessi
Encoding: 239 305 275
Width: 336
VWidth: 0
GlyphClass: 2
Flags: HW
LayerCount: 2
UndoRedoHistory
Layer: 1
Undoes
EndUndoes
Redoes
EndRedoes
EndUndoRedoHistory
Fore
SplineSet
136 0 m 1
 136 1184 l 1
 200 1184 l 1
 200 0 l 1
 136 0 l 1
EndSplineSet
EndChar

StartChar: e
Encoding: 69 101 276
Width: 742
VWidth: 0
GlyphClass: 2
Flags: HW
AnchorPoint: "ogonek" 482 0 basechar 0
LayerCount: 2
UndoRedoHistory
Layer: 1
Undoes
EndUndoes
Redoes
EndRedoes
EndUndoRedoHistory
Fore
SplineSet
378 -20 m 0
 227 -20 96 42 96 431 c 2
 96 765 l 2
 96 1159 230 1204 382 1204 c 0
 572 1204 654 1097 654 751 c 1
 651 631 l 1
 160 631 l 1
 160 430 l 2
 160 95 240 30 378 30 c 0
 458 30 590 28 590 301 c 2
 590 395 l 1
 653 395 l 1
 653 304 l 2
 653 116 594 -20 378 -20 c 0
590 675 m 1
 590 761 l 2
 590 998 571 1154 382 1154 c 0
 237 1154 160 1088 160 775 c 2
 160 675 l 1
 590 675 l 1
EndSplineSet
EndChar

StartChar: eight
Encoding: 24 56 284
Width: 1010
VWidth: 0
GlyphClass: 2
Flags: HW
LayerCount: 2
UndoRedoHistory
Layer: 1
Undoes
EndUndoes
Redoes
EndRedoes
EndUndoRedoHistory
Fore
SplineSet
505 892 m 1
 720 908 797 1036 797 1265 c 0
 797 1524 696 1620 505 1620 c 0
 313 1620 214 1523 214 1265 c 0
 214 1036 290 908 505 892 c 1
505 29 m 0
 672 29 804 105 804 422 c 0
 804 679 718 813 505 843 c 1
 291 813 206 679 206 422 c 0
 206 106 338 29 505 29 c 0
505 -25 m 0
 237 -25 139 155 139 418 c 0
 139 788 320 834 418 866 c 1
 256 897 150 1033 150 1276 c 0
 150 1492 228 1678 505 1678 c 0
 781 1678 861 1486 861 1269 c 0
 861 1026 754 898 592 866 c 1
 691 834 871 787 871 418 c 0
 871 155 772 -25 505 -25 c 0
EndSplineSet
EndChar

StartChar: U+2026
Encoding: 537 8230 285
Width: 1032
VWidth: 0
GlyphClass: 2
Flags: HW
LayerCount: 2
UndoRedoHistory
Layer: 1
Undoes
EndUndoes
Redoes
EndRedoes
EndUndoRedoHistory
Fore
SplineSet
150 0 m 1
 150 201 l 1
 232 201 l 1
 232 0 l 1
 150 0 l 1
494 0 m 1
 494 201 l 1
 576 201 l 1
 576 0 l 1
 494 0 l 1
838 0 m 1
 838 201 l 1
 920 201 l 1
 920 0 l 1
 838 0 l 1
EndSplineSet
EndChar

StartChar: emdash
Encoding: 495 8212 287
Width: 1348
VWidth: 0
GlyphClass: 2
Flags: HW
LayerCount: 2
UndoRedoHistory
Layer: 1
Undoes
EndUndoes
Redoes
EndRedoes
EndUndoRedoHistory
Fore
SplineSet
165 446 m 1
 165 515 l 1
 1205 515 l 1
 1205 446 l 1
 165 446 l 1
EndSplineSet
EndChar

StartChar: endash
Encoding: 494 8211 288
Width: 904
VWidth: 0
GlyphClass: 2
Flags: HW
LayerCount: 2
UndoRedoHistory
Layer: 1
Undoes
EndUndoes
Redoes
EndRedoes
EndUndoRedoHistory
Fore
SplineSet
165 446 m 1
 165 515 l 1
 762 515 l 1
 762 446 l 1
 165 446 l 1
EndSplineSet
EndChar

StartChar: eng
Encoding: 264 331 289
Width: 794
VWidth: 0
GlyphClass: 2
Flags: HW
HStem: -406 237
LayerCount: 2
UndoRedoHistory
Layer: 1
Undoes
EndUndoes
Redoes
EndRedoes
EndUndoRedoHistory
Fore
SplineSet
343 -296 m 5
 343 -239 l 5
 547 -239 585 -146 585 -10 c 6
 585 948 l 6
 585 1117 524 1154 449 1154 c 0
 356.33305516 1154 259.771705483 1091.68952261 182 1000.06354822 c 1
 182 0 l 1
 118 0 l 1
 118 1184 l 1
 182 1184 l 1
 182 1053.36782261 l 1
 255.498765906 1146.65842495 355.073442784 1204 460 1204 c 0
 551 1204 650 1157 650 939 c 6
 650 -12 l 6
 650 -255 502 -296 354 -296 c 6
 343 -296 l 5
EndSplineSet
EndChar

StartChar: equal
Encoding: 29 61 291
Width: 782
VWidth: 0
GlyphClass: 2
Flags: HW
LayerCount: 2
UndoRedoHistory
Layer: 1
Undoes
EndUndoes
Redoes
EndRedoes
EndUndoRedoHistory
Fore
SplineSet
96 918 m 1
 96 979 l 1
 686 979 l 1
 686 918 l 1
 96 918 l 1
96 598 m 1
 96 659 l 1
 686 659 l 1
 686 598 l 1
 96 598 l 1
EndSplineSet
EndChar

StartChar: U+212e
Encoding: 541 8494 292
Width: 773
VWidth: 0
GlyphClass: 2
Flags: HW
LayerCount: 2
UndoRedoHistory
Layer: 1
Undoes
EndUndoes
Redoes
EndRedoes
EndUndoRedoHistory
Fore
SplineSet
396 -20 m 0
 245 -20 114 42 114 431 c 2
 114 733 l 2
 114 1127 248 1172 400 1172 c 0
 590 1172 672 1065 672 719 c 1
 669 619 l 1
 202 619 l 1
 202 400 l 2
 202 65 258 30 396 30 c 0
 476 30 618 28 618 301 c 2
 618 395 l 1
 671 395 l 1
 671 304 l 2
 671 116 612 -20 396 -20 c 0
588 663 m 1
 588 759 l 2
 588 996 589 1122 400 1122 c 0
 255 1122 202 1086 202 773 c 2
 202 663 l 1
 588 663 l 1
EndSplineSet
EndChar

StartChar: eth
Encoding: 176 240 293
Width: 822
VWidth: 0
GlyphClass: 2
Flags: HW
LayerCount: 2
UndoRedoHistory
Layer: 1
Undoes
EndUndoes
Redoes
EndRedoes
EndUndoRedoHistory
Fore
SplineSet
384 30 m 0
 578 30 640 178 640 633 c 0
 640 778 617 931 612 955 c 1
 554.542619705 984.773369789 478 1001 423 1001 c 0
 245 1001 157 902 157 504 c 0
 157 146 255 30 384 30 c 0
382 -24 m 0
 190.307834513 -24 104 161 97 456 c 2
 95 536 l 2
 85 941 226 1053 415 1055 c 0
 472 1055 543.564080149 1037.57983699 607 1001 c 1
 582 1148 544 1282 510 1367 c 1
 340 1324 l 1
 340 1374 l 1
 487 1412 l 1
 428 1558 328 1632 150 1655 c 1
 155 1702 l 1
 331 1687 459 1620 542 1430 c 1
 707 1472 l 1
 707 1421 l 1
 563 1384 l 1
 590.28718996 1316.63474979 700 965 700 621 c 2
 700 533 l 2
 700 169 617 -24 382 -24 c 0
EndSplineSet
EndChar

StartChar: exclam
Encoding: 1 33 294
Width: 396
VWidth: 0
GlyphClass: 2
Flags: HW
LayerCount: 2
UndoRedoHistory
Layer: 1
Undoes
EndUndoes
Redoes
EndRedoes
EndUndoRedoHistory
Fore
SplineSet
186 357 m 1
 157 1658 l 1
 242 1658 l 1
 209.5 357 l 1
 186 357 l 1
154 0 m 1
 154 121 l 1
 238 121 l 1
 238 0 l 1
 154 0 l 1
EndSplineSet
EndChar

StartChar: exclamdown
Encoding: 97 161 295
Width: 396
VWidth: 0
GlyphClass: 2
Flags: HW
LayerCount: 2
UndoRedoHistory
Layer: 1
Undoes
EndUndoes
Redoes
EndRedoes
EndUndoRedoHistory
Fore
SplineSet
210 865 m 1
 239 -436 l 1
 154 -436 l 1
 186.5 865 l 1
 210 865 l 1
242 1222 m 1
 242 1101 l 1
 158 1101 l 1
 158 1222 l 1
 242 1222 l 1
EndSplineSet
EndChar

StartChar: f
Encoding: 70 102 296
Width: 500
VWidth: 0
GlyphClass: 2
Flags: HW
LayerCount: 2
UndoRedoHistory
Layer: 1
Undoes
EndUndoes
Redoes
EndRedoes
EndUndoRedoHistory
Fore
SplineSet
200 0 m 1
 200 1142 l 1
 33 1142 l 1
 33 1184 l 1
 200 1184 l 1
 200 1384 l 2
 200 1506 205.219 1617 367 1617 c 0
 393 1617 439 1611 462 1602 c 1
 462 1552 l 1
 434 1558 400 1564 373 1564 c 0
 277.892 1564 264 1516 264 1372 c 2
 264 1184 l 1
 469 1184 l 1
 469 1142 l 1
 264 1142 l 1
 264 0 l 1
 200 0 l 1
EndSplineSet
EndChar

StartChar: five
Encoding: 21 53 297
Width: 1010
VWidth: 0
GlyphClass: 2
Flags: HW
LayerCount: 2
UndoRedoHistory
Layer: 1
Undoes
EndUndoes
Redoes
EndRedoes
EndUndoRedoHistory
Fore
SplineSet
522 -20 m 0
 296 -20 193 109 193 383 c 1
 255 383 l 1
 255 116 345 30 529 30 c 0
 728 30 812 149 812 489 c 0
 812 890 703 974 533 974 c 0
 452 974 362 950 279 834 c 1
 230 834 l 1
 230 1658 l 1
 788 1658 l 1
 783 1614 l 1
 280 1614 l 1
 280 895 l 1
 322 961 405 1027 551 1027 c 0
 769 1027 872 857 872 492 c 0
 872 111 747 -20 522 -20 c 0
EndSplineSet
EndChar

StartChar: U+0192
Encoding: 534 402 298
Width: 750
VWidth: 0
GlyphClass: 2
Flags: HW
LayerCount: 2
UndoRedoHistory
Layer: 1
Undoes
EndUndoes
Redoes
EndRedoes
EndUndoRedoHistory
Fore
SplineSet
65 -302 m 0
 39 -302 -7 -296 -28 -287 c 1
 -20 -237 l 1
 7 -243 40 -249 67 -249 c 0
 162 -249 184 -201 207 -57 c 2
 400 1142 l 1
 233 1142 l 1
 233 1184 l 1
 407 1184 l 1
 440 1384 l 1
 459 1506 482 1617 644 1617 c 0
 670 1617 715 1611 737 1602 c 1
 728 1552 l 1
 702 1558 668 1564 641 1564 c 0
 546 1564 525 1516 501 1372 c 1
 471 1184 l 1
 669 1184 l 1
 669 1142 l 1
 464 1142 l 1
 269 -69 l 2
 249 -191 227 -302 65 -302 c 0
EndSplineSet
EndChar

StartChar: foundryicon
Encoding: 522 -1 299
Width: 1510
VWidth: 0
GlyphClass: 2
Flags: HW
LayerCount: 2
UndoRedoHistory
Layer: 1
Undoes
EndUndoes
Redoes
EndRedoes
EndUndoRedoHistory
Fore
SplineSet
291 277 m 1
 459 819 l 1
 0 1168 l 1
 572 1168 l 1
 750 1710 l 1
 938 1168 l 1
 1510 1168 l 1
 1049 819 l 1
 1219 277 l 1
 750 604 l 1
 291 277 l 1
EndSplineSet
EndChar

StartChar: four
Encoding: 20 52 300
Width: 1010
VWidth: 0
GlyphClass: 2
Flags: HW
LayerCount: 2
UndoRedoHistory
Layer: 1
Undoes
EndUndoes
Redoes
EndRedoes
EndUndoRedoHistory
Fore
SplineSet
200 597 m 1
 654 597 l 1
 654 1549 l 1
 200 597 l 1
654 0 m 1
 654 539 l 1
 128 539 l 1
 128 587 l 1
 650 1658 l 1
 718 1658 l 1
 718 597 l 1
 912 597 l 1
 912 539 l 1
 718 539 l 1
 718 0 l 1
 654 0 l 1
EndSplineSet
EndChar

StartChar: fraction
Encoding: 508 8260 301
Width: 410
VWidth: 0
GlyphClass: 2
Flags: HW
LayerCount: 2
UndoRedoHistory
Layer: 1
Undoes
EndUndoes
Redoes
EndRedoes
EndUndoRedoHistory
Fore
SplineSet
0 0 m 1
 356 1658 l 1
 410 1658 l 1
 56 0 l 1
 0 0 l 1
EndSplineSet
EndChar

StartChar: g
Encoding: 71 103 302
Width: 846
VWidth: 0
GlyphClass: 2
Flags: HW
LayerCount: 2
UndoRedoHistory
Layer: 1
Undoes
EndUndoes
Redoes
EndRedoes
EndUndoRedoHistory
Fore
SplineSet
414 431 m 0
 648 431 675 685 675 801 c 0
 675 909 627 1154 411 1154 c 0
 194 1154 146 887 146 802 c 0
 146 683 179 431 414 431 c 0
379 -362 m 0
 554 -362 711 -305 711 -168 c 0
 711 -75 665 -17 411 42 c 2
 304 67 l 1
 216 19 74 -67 74 -195 c 0
 74 -314 206 -362 379 -362 c 0
379 -415 m 0
 121 -415 17 -327 17 -196 c 0
 17 -81 138 27 245 83 c 1
 194 94 91 121 91 158 c 0
 91 234 197 367 244 429 c 1
 115 518 82 670 82 802 c 0
 82 963 171 1204 410 1204 c 0
 563 1204 635 1112 678 1035 c 1
 712 1099 774 1156 838 1180 c 2
 865 1190 l 1
 888 1132 l 1
 808 1112 749 1059 701 995 c 1
 722 941 739 843 739 800 c 0
 739 567 641 382 414 382 c 0
 361 382 322 390 283 406 c 1
 241 341 151 228 151 173 c 0
 151 165 195.25 151 248.125 136.875 c 0
 326.946 115.819 397.8 100.256 446.406 87.4151 c 0
 644.964 34.9591 770 -24.4844 770 -167 c 0
 770 -341 566 -415 379 -415 c 0
EndSplineSet
EndChar

StartChar: gcommaaccent
Encoding: 225 291 305
Width: 901
VWidth: 0
GlyphClass: 2
Flags: HW
LayerCount: 2
UndoRedoHistory
Layer: 1
Undoes
EndUndoes
Redoes
EndRedoes
EndUndoRedoHistory
Fore
SplineSet
572 1836 m 1
 587 1819 l 1
 520 1756 515 1658 515 1627 c 1
 571 1627 l 1
 571 1502 l 1
 474 1502 l 1
 474 1597 l 2
 474 1716 500 1775 572 1836 c 1
414 431 m 0
 648 431 675 685 675 801 c 0
 675 909 627 1154 411 1154 c 0
 194 1154 146 887 146 802 c 0
 146 683 179 431 414 431 c 0
379 -362 m 0
 554 -362 711 -305 711 -168 c 0
 711 -75 665 -17 411 42 c 2
 304 67 l 1
 216 19 74 -67 74 -195 c 0
 74 -314 206 -362 379 -362 c 0
379 -415 m 0
 121 -415 17 -327 17 -196 c 0
 17 -81 138 27 245 83 c 1
 194 94 91 121 91 158 c 0
 91 234 197 367 244 429 c 1
 115 518 82 670 82 802 c 0
 82 963 171 1204 410 1204 c 0
 563 1204 635 1112 678 1035 c 1
 712 1099 774 1156 838 1180 c 2
 865 1190 l 1
 888 1132 l 1
 808 1112 749 1059 701 995 c 1
 722 941 739 843 739 800 c 0
 739 567 641 382 414 382 c 0
 361 382 322 390 283 406 c 1
 241 341 151 228 151 173 c 0
 151 165 195.25 151 248.125 136.875 c 0
 326.946289062 115.819335938 397.799804688 100.255859375 446.40625 87.4150390625 c 0
 644.963867188 34.958984375 770 -24.484375 770 -167 c 0
 770 -341 566 -415 379 -415 c 0
EndSplineSet
EndChar

StartChar: germandbls
Encoding: 159 223 307
Width: 967
VWidth: 0
GlyphClass: 2
Flags: HW
LayerCount: 2
UndoRedoHistory
Layer: 1
Undoes
EndUndoes
Redoes
EndRedoes
EndUndoRedoHistory
Fore
SplineSet
306 -24 m 1
 306 31 l 1
 744.087 31 818 301.199 818 491 c 0
 818 699 747 926 462 926 c 1
 469 981 l 1
 664 981 722 1132 722 1318 c 0
 722 1548 636 1659 461 1659 c 0
 307.130875602 1659 212.23975532 1615.86683281 201.103378827 1249.6233401 c 0
 200.370150213 1225.50955327 200 1199.99507706 200 1173 c 2
 200 0 l 1
 136 0 l 1
 136 394.666666667 136 789.333333333 136 1184 c 0
 136.106110185 1206.46386754 136.454824973 1227.99055557 137.068382848 1248.61753642 c 0
 148.67030628 1638.65841422 254.969522476 1707 466 1707 c 0
 650 1707 784 1586 784 1319 c 0
 784 1120 722 988 586 956 c 1
 822 907 878 692 878 498 c 0
 878 282.908 804.688 -24 306 -24 c 1
EndSplineSet
EndChar

StartChar: grave
Encoding: 64 96 308
Width: 372
VWidth: 0
GlyphClass: 2
Flags: HW
LayerCount: 2
UndoRedoHistory
Layer: 1
Undoes
EndUndoes
Redoes
EndRedoes
EndUndoRedoHistory
Fore
SplineSet
237 1264 m 1
 98 1658 l 1
 163 1658 l 1
 273 1264 l 1
 237 1264 l 1
EndSplineSet
EndChar

StartChar: gravecomb
Encoding: 367 768 309
Width: 0
VWidth: 0
GlyphClass: 2
Flags: HW
LayerCount: 2
UndoRedoHistory
Layer: 1
Undoes
EndUndoes
Redoes
EndRedoes
EndUndoRedoHistory
Fore
SplineSet
50 1264 m 1
 -89 1658 l 1
 -24 1658 l 1
 86 1264 l 1
 50 1264 l 1
EndSplineSet
EndChar

StartChar: greater
Encoding: 30 62 310
Width: 719
VWidth: 0
GlyphClass: 2
Flags: HW
LayerCount: 2
UndoRedoHistory
Layer: 1
Undoes
EndUndoes
Redoes
EndRedoes
EndUndoRedoHistory
Fore
SplineSet
117 191 m 1
 117 265 l 1
 607 666 l 1
 117 1046 l 1
 117 1118 l 1
 661 695 l 1
 661 636 l 1
 117 191 l 1
EndSplineSet
EndChar

StartChar: U+2265
Encoding: 552 8805 311
Width: 673
VWidth: 0
GlyphClass: 2
Flags: HW
LayerCount: 2
UndoRedoHistory
Layer: 1
Undoes
EndUndoes
Redoes
EndRedoes
EndUndoRedoHistory
Fore
SplineSet
62 0 m 1
 62 54 l 1
 611 54 l 1
 611 0 l 1
 62 0 l 1
62 191 m 1
 62 265 l 1
 552 666 l 1
 62 1046 l 1
 62 1118 l 1
 606 695 l 1
 606 636 l 1
 62 191 l 1
EndSplineSet
EndChar

StartChar: guillemotleft
Encoding: 107 171 312
Width: 798
VWidth: 0
GlyphClass: 2
Flags: HW
LayerCount: 2
UndoRedoHistory
Layer: 1
Undoes
EndUndoes
Redoes
EndRedoes
EndUndoRedoHistory
Fore
SplineSet
695 292 m 1
 346 702 l 1
 346 718 l 1
 695 1127 l 1
 695 1041 l 1
 419 711 l 1
 695 378 l 1
 695 292 l 1
440 292 m 1
 92 702 l 1
 92 718 l 1
 440 1127 l 1
 440 1041 l 1
 164 715 l 1
 440 378 l 1
 440 292 l 1
EndSplineSet
EndChar

StartChar: guillemotright
Encoding: 123 187 313
Width: 795
VWidth: 0
GlyphClass: 2
Flags: HW
LayerCount: 2
UndoRedoHistory
Layer: 1
Undoes
EndUndoes
Redoes
EndRedoes
EndUndoRedoHistory
Fore
SplineSet
358 292 m 1
 358 378 l 1
 634 704 l 1
 358 1041 l 1
 358 1127 l 1
 706 717 l 1
 706 701 l 1
 358 292 l 1
103 292 m 1
 103 378 l 1
 379 708 l 1
 103 1041 l 1
 103 1127 l 1
 452 717 l 1
 452 701 l 1
 103 292 l 1
EndSplineSet
EndChar

StartChar: guilsinglleft
Encoding: 506 8249 314
Width: 798
VWidth: 0
GlyphClass: 2
Flags: HW
LayerCount: 2
UndoRedoHistory
Layer: 1
Undoes
EndUndoes
Redoes
EndRedoes
EndUndoRedoHistory
Fore
SplineSet
695 292 m 1
 346 702 l 1
 346 718 l 1
 695 1127 l 1
 695 1041 l 1
 419 711 l 1
 695 378 l 1
 695 292 l 1
EndSplineSet
EndChar

StartChar: guilsinglright
Encoding: 507 8250 315
Width: 708
VWidth: 0
GlyphClass: 2
Flags: HW
LayerCount: 2
UndoRedoHistory
Layer: 1
Undoes
EndUndoes
Redoes
EndRedoes
EndUndoRedoHistory
Fore
SplineSet
189 292 m 1
 189 378 l 1
 465 708 l 1
 189 1041 l 1
 189 1127 l 1
 538 717 l 1
 538 701 l 1
 189 292 l 1
EndSplineSet
EndChar

StartChar: h
Encoding: 72 104 316
Width: 758
VWidth: 0
GlyphClass: 2
Flags: HW
LayerCount: 2
UndoRedoHistory
Layer: 1
Undoes
EndUndoes
Redoes
EndRedoes
EndUndoRedoHistory
Fore
SplineSet
582 0 m 1
 582 948 l 2
 582 1117 521 1154 446 1154 c 0
 354.520920507 1154 259.2466383 1093.27675657 182 1003.57259208 c 1
 182 0 l 1
 118 0 l 1
 118 1658 l 1
 182 1658 l 1
 182 1057.13769832 l 1
 255.196399391 1148.20081882 353.494237907 1204 457 1204 c 0
 548 1204 647 1157 647 939 c 2
 647 0 l 1
 582 0 l 1
EndSplineSet
EndChar

StartChar: hbar
Encoding: 229 295 317
Width: 756
VWidth: 0
GlyphClass: 2
Flags: HW
LayerCount: 2
UndoRedoHistory
Layer: 1
Undoes
EndUndoes
Redoes
EndRedoes
EndUndoRedoHistory
Fore
SplineSet
116 0 m 1
 116 1445 l 1
 -20 1445 l 1
 -20 1494 l 1
 116 1494 l 1
 116 1658 l 1
 180 1658 l 1
 180 1494 l 1
 419 1494 l 1
 419 1445 l 1
 180 1445 l 1
 180 1057.13769832 l 1
 253.196399391 1148.20081882 351.494237907 1204 455 1204 c 0
 546 1204 645 1157 645 939 c 2
 645 0 l 1
 580 0 l 1
 580 948 l 2
 580 1117 519 1154 444 1154 c 0
 352.520920507 1154 257.2466383 1093.27675657 180 1003.57259208 c 1
 180 0 l 1
 116 0 l 1
EndSplineSet
EndChar

StartChar: hungarumlaut
Encoding: 366 733 319
Width: 517
VWidth: 0
GlyphClass: 2
Flags: HW
LayerCount: 2
UndoRedoHistory
Layer: 1
Undoes
EndUndoes
Redoes
EndRedoes
EndUndoRedoHistory
Fore
SplineSet
274 1388 m 1
 383 1688 l 1
 471 1688 l 1
 317 1388 l 1
 274 1388 l 1
125 1388 m 1
 202 1688 l 1
 283 1688 l 1
 165 1388 l 1
 125 1388 l 1
EndSplineSet
EndChar

StartChar: hyphen
Encoding: 13 45 320
AltUni2: 002015.ffffffff.0
Width: 545
VWidth: 0
GlyphClass: 2
Flags: HW
HStem: 446 69
VStem: -134 269
LayerCount: 2
UndoRedoHistory
Layer: 1
Undoes
EndUndoes
Redoes
EndRedoes
EndUndoRedoHistory
Fore
SplineSet
48 701 m 1
 48 760 l 1
 497 760 l 1
 497 701 l 1
 48 701 l 1
EndSplineSet
EndChar

StartChar: i
Encoding: 73 105 321
Width: 356
VWidth: 0
GlyphClass: 2
Flags: HW
LayerCount: 2
UndoRedoHistory
Layer: 1
Undoes
EndUndoes
Redoes
EndRedoes
EndUndoRedoHistory
Fore
SplineSet
138 1331 m 1
 138 1503 l 1
 202 1503 l 1
 202 1331 l 1
 138 1331 l 1
138 0 m 1
 138 1184 l 1
 202 1184 l 1
 202 0 l 1
 138 0 l 1
EndSplineSet
EndChar

StartChar: U+221e
Encoding: 547 8734 329
Width: 1208
VWidth: 0
GlyphClass: 2
Flags: HW
LayerCount: 2
UndoRedoHistory
Layer: 1
Undoes
EndUndoes
Redoes
EndRedoes
EndUndoRedoHistory
Fore
SplineSet
940 605 m 0
 1060 605 1114 688 1114 803 c 0
 1114 918 1060 1000 940 1000 c 0
 834 1000 764 933 641 803 c 1
 764 672 834 605 940 605 c 0
268 605 m 0
 374 605 443 673 568 803 c 1
 443 932 374 1000 268 1000 c 0
 148 1000 94 932 94 802 c 0
 94 672 148 605 268 605 c 0
272 552 m 0
 121 552 44 649 44 802 c 0
 44 955 121 1053 272 1053 c 0
 384 1053 467 988 605 841 c 1
 745 984 823 1053 935 1053 c 0
 1086 1053 1164 955 1164 803 c 0
 1163 650 1085 552 935 552 c 0
 823 552 745 621 605 764 c 1
 467 617 384 552 272 552 c 0
EndSplineSet
EndChar

StartChar: U+222b
Encoding: 548 8747 330
Width: 500
VWidth: 0
GlyphClass: 2
Flags: HW
LayerCount: 2
UndoRedoHistory
Layer: 1
Undoes
EndUndoes
Redoes
EndRedoes
EndUndoRedoHistory
Fore
SplineSet
99 -389 m 0
 73 -389 27 -383 4 -374 c 1
 4 -324 l 1
 32 -330 66 -336 93 -336 c 0
 188 -336 202 -288 202 -144 c 2
 202 1447 l 2
 202 1569 205 1680 367 1680 c 0
 393 1680 439 1674 462 1665 c 1
 462 1615 l 1
 434 1621 400 1627 373 1627 c 0
 278 1627 264 1579 264 1435 c 2
 264 -156 l 2
 264 -278 261 -389 99 -389 c 0
EndSplineSet
EndChar

StartChar: j
Encoding: 74 106 333
Width: 391
VWidth: 0
GlyphClass: 2
Flags: HW
LayerCount: 2
UndoRedoHistory
Layer: 1
Undoes
EndUndoes
Redoes
EndRedoes
EndUndoRedoHistory
Fore
SplineSet
175 1331 m 1
 175 1503 l 1
 239 1503 l 1
 239 1331 l 1
 175 1331 l 1
-29 -324 m 1
 -29 -266 l 1
 14 -266 l 2
 177 -266 175 -164 175 -75 c 2
 175 1184 l 1
 239 1184 l 1
 239 -76 l 2
 239 -268 154 -324 11 -324 c 2
 -29 -324 l 1
EndSplineSet
EndChar

StartChar: k
Encoding: 75 107 335
Width: 747
VWidth: 0
GlyphClass: 2
Flags: HW
LayerCount: 2
UndoRedoHistory
Layer: 1
Undoes
EndUndoes
Redoes
EndRedoes
EndUndoRedoHistory
Fore
SplineSet
656 0 m 1
 372 690 l 1
 182 440.09009009 l 1
 182 0 l 1
 118 0 l 1
 118 1658 l 1
 182 1658 l 1
 182 523.323076923 l 1
 670 1184 l 1
 743 1184 l 1
 418 735 l 1
 721 0 l 1
 656 0 l 1
EndSplineSet
EndChar

StartChar: kgreenlandic
Encoding: 246 312 337
Width: 825
VWidth: 0
GlyphClass: 2
Flags: HW
LayerCount: 2
UndoRedoHistory
Layer: 1
Undoes
EndUndoes
Redoes
EndRedoes
EndUndoRedoHistory
Fore
SplineSet
668 0 m 1
 360 675 l 1
 199 451.623036649 l 1
 199 0 l 1
 135 0 l 1
 135 1184 l 1
 199 1184 l 1
 199 524.574380165 l 1
 653 1184 l 1
 727 1184 l 1
 408 717 l 1
 735 0 l 1
 668 0 l 1
EndSplineSet
EndChar

StartChar: l
Encoding: 76 108 338
AltUni2: 002113.ffffffff.0
Width: 344
VWidth: 0
GlyphClass: 2
Flags: HW
LayerCount: 2
UndoRedoHistory
Layer: 1
Undoes
EndUndoes
Redoes
EndRedoes
EndUndoRedoHistory
Fore
SplineSet
140 0 m 1
 140 1658 l 1
 204 1658 l 1
 204 0 l 1
 140 0 l 1
EndSplineSet
EndChar

StartChar: less
Encoding: 28 60 343
Width: 719
VWidth: 0
GlyphClass: 2
Flags: HW
LayerCount: 2
UndoRedoHistory
Layer: 1
Undoes
EndUndoes
Redoes
EndRedoes
EndUndoRedoHistory
Fore
SplineSet
602 191 m 1
 58 614 l 1
 58 673 l 1
 602 1118 l 1
 602 1044 l 1
 112 643 l 1
 602 263 l 1
 602 191 l 1
EndSplineSet
EndChar

StartChar: U+2264
Encoding: 551 8804 344
Width: 719
VWidth: 0
GlyphClass: 2
Flags: HW
LayerCount: 2
UndoRedoHistory
Layer: 1
Undoes
EndUndoes
Redoes
EndRedoes
EndUndoRedoHistory
Fore
SplineSet
60 0 m 1
 60 54 l 1
 609 54 l 1
 609 0 l 1
 60 0 l 1
602 191 m 1
 58 614 l 1
 58 673 l 1
 602 1118 l 1
 602 1044 l 1
 112 643 l 1
 602 263 l 1
 602 191 l 1
EndSplineSet
EndChar

StartChar: logicalnot
Encoding: 108 172 345
Width: 684
VWidth: 0
GlyphClass: 2
Flags: HW
LayerCount: 2
UndoRedoHistory
Layer: 1
Undoes
EndUndoes
Redoes
EndRedoes
EndUndoRedoHistory
Fore
SplineSet
558 606 m 1
 558 836 l 1
 85 836 l 1
 85 895 l 1
 620 895 l 1
 620 606 l 1
 558 606 l 1
EndSplineSet
EndChar

StartChar: U+25ca
Encoding: 553 9674 346
Width: 800
VWidth: 0
GlyphClass: 2
Flags: HW
LayerCount: 2
UndoRedoHistory
Layer: 1
Undoes
EndUndoes
Redoes
EndRedoes
EndUndoRedoHistory
Fore
SplineSet
406 50 m 1
 654 592 l 1
 394 1134 l 1
 149 592 l 1
 406 50 l 1
379 0 m 1
 88 592 l 1
 365 1184 l 1
 421 1184 l 1
 712 592 l 1
 435 0 l 1
 379 0 l 1
EndSplineSet
EndChar

StartChar: lslash
Encoding: 256 322 347
Width: 488
VWidth: 0
GlyphClass: 2
Flags: HW
LayerCount: 2
UndoRedoHistory
Layer: 1
Undoes
EndUndoes
Redoes
EndRedoes
EndUndoRedoHistory
Fore
SplineSet
208 0 m 1
 208 979.877022654 l 1
 87 909 l 1
 87 973 l 1
 208 1043.87702265 l 1
 208 1658 l 1
 272 1658 l 1
 272 1081.36569579 l 1
 396 1154 l 1
 396 1090 l 1
 272 1017.36569579 l 1
 272 0 l 1
 208 0 l 1
EndSplineSet
EndChar

StartChar: m
Encoding: 77 109 348
Width: 1228
VWidth: 0
GlyphClass: 2
Flags: HW
LayerCount: 2
UndoRedoHistory
Layer: 1
Undoes
EndUndoes
Redoes
EndRedoes
EndUndoRedoHistory
Fore
SplineSet
118 0 m 1
 118 1184 l 1
 182 1184 l 1
 182 1053.36782261 l 1
 255.498765906 1146.65842495 355.073442784 1204 460 1204 c 0
 534.305018014 1204 613.943919082 1172.66343703 640.66427517 1042.48282439 c 1
 714.87304862 1142.17826307 818.05150992 1204 927 1204 c 0
 1018 1204 1117 1157 1117 939 c 2
 1117 0 l 1
 1052 0 l 1
 1052 948 l 2
 1052 1117 991 1154 916 1154 c 0
 822.646300816 1154 725.340260066 1090.76253496 647.274007815 998.021612233 c 1
 649.058244393 979.897712103 650 960.26219044 650 939 c 2
 650 0 l 1
 585 0 l 1
 585 948 l 2
 585 1117 524 1154 449 1154 c 0
 356.33305516 1154 259.771705483 1091.68952261 182 1000.06354822 c 1
 182 0 l 1
 118 0 l 1
EndSplineSet
EndChar

StartChar: macron
Encoding: 111 175 349
Width: 817
VWidth: 0
GlyphClass: 2
Flags: HW
LayerCount: 2
UndoRedoHistory
Layer: 1
Undoes
EndUndoes
Redoes
EndRedoes
EndUndoRedoHistory
Fore
SplineSet
242 1606 m 1
 242 1658 l 1
 575 1658 l 1
 575 1606 l 1
 242 1606 l 1
EndSplineSet
EndChar

StartChar: minus
Encoding: 514 8722 350
Width: 669
VWidth: 0
GlyphClass: 2
Flags: HW
LayerCount: 2
UndoRedoHistory
Layer: 1
Undoes
EndUndoes
Redoes
EndRedoes
EndUndoRedoHistory
Fore
SplineSet
60 734 m 1
 60 788 l 1
 609 788 l 1
 609 734 l 1
 60 734 l 1
EndSplineSet
EndChar

StartChar: mu
Encoding: 117 181 351
Width: 807
VWidth: 0
GlyphClass: 2
Flags: HW
LayerCount: 2
UndoRedoHistory
Layer: 1
Undoes
EndUndoes
Redoes
EndRedoes
EndUndoRedoHistory
Fore
SplineSet
172 1184 m 1
 172 868 172 552 172 236 c 0
 172 67 233 30 308 30 c 0
 405.903334704 30 508.153636731 99.5514771605 588 199.744022638 c 1
 588 1184 l 1
 652 1184 l 1
 652 0 l 1
 588 0 l 1
 588 147.886266245 l 1
 513.4839464 44.4614657448 408.250174935 -20 297 -20 c 0
 253.21185309 -20 207.571367757 -9.11751176647 172 26.4629838019 c 1
 172 -350 l 1
 107 -350 l 1
 107 1184 l 1
 172 1184 l 1
EndSplineSet
EndChar

StartChar: multiply
Encoding: 151 215 352
Width: 648
VWidth: 0
GlyphClass: 2
Flags: HW
LayerCount: 2
UndoRedoHistory
Layer: 1
Undoes
EndUndoes
Redoes
EndRedoes
EndUndoRedoHistory
Fore
SplineSet
549 527 m 1
 324 752 l 1
 99 527 l 1
 62 564 l 1
 287 789 l 1
 62 1014 l 1
 99 1049 l 1
 324 825 l 1
 549 1049 l 1
 586 1014 l 1
 361 789 l 1
 586 564 l 1
 549 527 l 1
EndSplineSet
EndChar

StartChar: n
Encoding: 78 110 353
Width: 761
VWidth: 0
GlyphClass: 2
Flags: HW
HStem: 1154 50<344.806 529.201>
VStem: 118 64<1000.06 1032.98> 585 65<939 1101.97>
LayerCount: 2
UndoRedoHistory
Layer: 1
Undoes
EndUndoes
Redoes
EndRedoes
EndUndoRedoHistory
Fore
SplineSet
118 0 m 1
 118 1184 l 1
 182 1184 l 1
 182 1053.36782261 l 1
 255.498765906 1146.65842495 355.073442784 1204 460 1204 c 0
 551 1204 650 1157 650 939 c 2
 650 0 l 1
 585 0 l 1
 585 948 l 2
 585 1117 524 1154 449 1154 c 0
 356.33305516 1154 259.771705483 1091.68952261 182 1000.06354822 c 1
 182 0 l 1
 118 0 l 1
EndSplineSet
EndChar

StartChar: U+0149
Encoding: 554 329 355
Width: 794
VWidth: 0
GlyphClass: 2
Flags: HW
LayerCount: 2
UndoRedoHistory
Layer: 1
Undoes
EndUndoes
Redoes
EndRedoes
EndUndoRedoHistory
Fore
SplineSet
585 0 m 1
 585 948 l 2
 585 1117 524 1154 449 1154 c 0
 356.33305516 1154 259.771705483 1091.68952261 182 1000.06354822 c 1
 182 0 l 1
 118 0 l 1
 118 1184 l 1
 182 1184 l 1
 182 1053.36782261 l 1
 255.498765906 1146.65842495 355.073442784 1204 460 1204 c 0
 551 1204 650 1157 650 939 c 2
 650 0 l 1
 585 0 l 1
EndSplineSet
EndChar

StartChar: nine
Encoding: 25 57 358
Width: 1010
VWidth: 0
GlyphClass: 2
Flags: HW
LayerCount: 2
UndoRedoHistory
Layer: 1
Undoes
EndUndoes
Redoes
EndRedoes
EndUndoRedoHistory
Fore
SplineSet
509 757 m 0
 650 757 750 804 797 830 c 1
 797 1165 l 2
 797 1555 693 1622 513 1622 c 0
 328 1622 207 1552 207 1215 c 0
 207 850 256 757 509 757 c 0
522 -24 m 0
 283 -24 179 87 179 336 c 2
 179 380 l 1
 238 380 l 1
 238 103 315 30 525 30 c 0
 687 30 797 90 797 390 c 2
 797 779 l 1
 757 756 657 702 499 702 c 0
 231 702 138 800 138 1217 c 0
 138 1526 246 1678 513 1678 c 0
 764 1678 861 1534 861 1189 c 2
 861 398 l 2
 861 116 762 -24 522 -24 c 0
EndSplineSet
EndChar

StartChar: U+2260
Encoding: 550 8800 359
Width: 822
VWidth: 0
GlyphClass: 2
Flags: HW
LayerCount: 2
UndoRedoHistory
Layer: 1
Undoes
EndUndoes
Redoes
EndRedoes
EndUndoRedoHistory
Fore
SplineSet
148 0 m 1
 329.780458384 598 l 1
 96 598 l 1
 96 659 l 1
 348.323281062 659 l 1
 427.054282268 918 l 1
 96 918 l 1
 96 979 l 1
 445.597104946 979 l 1
 652 1658 l 1
 712 1658 l 1
 506.006634499 979 l 1
 686 979 l 1
 686 918 l 1
 487.500603136 918 l 1
 408.925814234 659 l 1
 686 659 l 1
 686 598 l 1
 390.419782871 598 l 1
 209 0 l 1
 148 0 l 1
EndSplineSet
EndChar

StartChar: numbersign
Encoding: 3 35 361
Width: 901
VWidth: 0
GlyphClass: 2
Flags: HW
LayerCount: 2
UndoRedoHistory
Layer: 1
Undoes
EndUndoes
Redoes
EndRedoes
EndUndoRedoHistory
Fore
SplineSet
320 646 m 1
 547 646 l 1
 614 1048 l 1
 387 1048 l 1
 320 646 l 1
156 0 m 1
 256 601 l 1
 108 601 l 1
 108 646 l 1
 264 646 l 1
 331 1048 l 1
 159 1048 l 1
 159 1093 l 1
 339 1093 l 1
 433 1658 l 1
 489 1658 l 1
 395 1093 l 1
 622 1093 l 1
 716 1658 l 1
 772 1658 l 1
 678 1093 l 1
 809 1093 l 1
 809 1048 l 1
 670 1048 l 1
 603 646 l 1
 758 646 l 1
 758 601 l 1
 595 601 l 1
 495 0 l 1
 439 0 l 1
 539 601 l 1
 312 601 l 1
 212 0 l 1
 156 0 l 1
EndSplineSet
EndChar

StartChar: o
Encoding: 79 111 362
Width: 750
VWidth: 0
GlyphClass: 2
Flags: HW
HStem: -20 50<266.042 483.958> 1154 50<266.042 483.958>
VStem: 96 64<147.816 437 747 1030.11> 590 64<147.816 437 747 1036.18>
AnchorPoint: "ogonek" 442 0 basechar 0
LayerCount: 2
UndoRedoHistory
Layer: 1
Undoes
EndUndoes
Redoes
EndRedoes
EndUndoRedoHistory
Fore
SplineSet
375 -20 m 0
 150 -20 96 128 96 437 c 2
 96 747 l 2
 96 1053 150 1204 375 1204 c 0
 600 1204 654 1056 654 747 c 2
 654 437 l 2
 654 128 600 -20 375 -20 c 0
375 30 m 0
 566 30 590 171 590 437 c 2
 590 747 l 2
 590 1013 566 1154 375 1154 c 0
 184 1154 160 1013 160 747 c 2
 160 437 l 2
 160 171 184 30 375 30 c 0
EndSplineSet
EndChar

StartChar: oe
Encoding: 272 339 367
Width: 1236
VWidth: 0
GlyphClass: 2
Flags: HW
LayerCount: 2
UndoRedoHistory
Layer: 1
Undoes
EndUndoes
Redoes
EndRedoes
EndUndoRedoHistory
Fore
SplineSet
654 675 m 1
 1084 675 l 1
 1084 761 l 2
 1084 998 1065 1154 876 1154 c 0
 731 1154 654 1088 654 775 c 2
 654 675 l 1
375 30 m 0
 566 30 590 171 590 437 c 2
 590 747 l 2
 590 1013 566 1154 375 1154 c 0
 184 1154 160 1013 160 747 c 2
 160 437 l 2
 160 171 184 30 375 30 c 0
375 -20 m 0
 150 -20 96 128 96 437 c 2
 96 747 l 2
 96 1053 150 1204 375 1204 c 0
 513 1204 598 1134 623 1004 c 1
 667 1172 770 1204 876 1204 c 0
 1066 1204 1148 1097 1148 751 c 1
 1145 631 l 1
 654 631 l 1
 654 430 l 2
 654 95 734 30 872 30 c 0
 952 30 1084 28 1084 301 c 2
 1084 395 l 1
 1147 395 l 1
 1147 304 l 2
 1147 116 1088 -20 872 -20 c 0
 768 -20 662 27 625 195 c 1
 598 49 515 -20 375 -20 c 0
EndSplineSet
EndChar

StartChar: ogonek
Encoding: 364 731 368
Width: 433
VWidth: 0
GlyphClass: 2
Flags: HW
AnchorPoint: "ogonek" 273 0 mark 0
LayerCount: 2
UndoRedoHistory
Layer: 1
Undoes
EndUndoes
Redoes
EndRedoes
EndUndoRedoHistory
Fore
SplineSet
329 -383 m 1
 179 -383 120 -310 120 -225 c 0
 120 -143 174 -50 256 2 c 1
 298 2 l 1
 212 -79 173 -155 173 -215 c 0
 173 -291 235 -341 340 -341 c 1
 329 -383 l 1
EndSplineSet
EndChar

StartChar: one
Encoding: 17 49 372
Width: 772
VWidth: 0
GlyphClass: 2
Flags: HW
LayerCount: 2
UndoRedoHistory
Layer: 1
Undoes
EndUndoes
Redoes
EndRedoes
EndUndoRedoHistory
Fore
SplineSet
480 0 m 1
 416 0 l 1
 416 1565 l 1
 348 1467 256 1414 198 1397 c 1
 198 1461 l 1
 262 1479 355 1566 416 1658 c 1
 480 1658 l 1
 480 0 l 1
EndSplineSet
EndChar

StartChar: onehalf
Encoding: 125 189 373
Width: 1499
VWidth: 0
GlyphClass: 2
Flags: HW
LayerCount: 2
UndoRedoHistory
Layer: 1
Undoes
EndUndoes
Redoes
EndRedoes
EndUndoRedoHistory
Fore
SplineSet
387 0 m 1
 999 1658 l 1
 1062 1658 l 1
 452 0 l 1
 387 0 l 1
974 358 m 1
 1237 358 l 1
 1237 1010 l 1
 974 358 l 1
1237 -19 m 1
 1237 302 l 1
 909 302 l 1
 909 354 l 1
 1229 1121 l 1
 1298 1121 l 1
 1298 358 l 1
 1432 358 l 1
 1432 302 l 1
 1298 302 l 1
 1298 -19 l 1
 1237 -19 l 1
347 506 m 1
 289 506 l 1
 289 1589 l 1
 124 1485 l 1
 124 1550 l 1
 170 1573 276 1646 289 1658 c 1
 347 1658 l 1
 347 506 l 1
EndSplineSet
EndChar

StartChar: onequarter
Encoding: 124 188 374
Width: 1499
VWidth: 0
GlyphClass: 2
Flags: HW
LayerCount: 2
UndoRedoHistory
Layer: 1
Undoes
EndUndoes
Redoes
EndRedoes
EndUndoRedoHistory
Fore
SplineSet
974 358 m 1
 1237 358 l 1
 1237 1010 l 1
 974 358 l 1
387 0 m 1
 999 1658 l 1
 1062 1658 l 1
 452 0 l 1
 387 0 l 1
272 506 m 1
 272 1589 l 1
 107 1485 l 1
 107 1550 l 1
 153 1573 259 1646 272 1658 c 1
 330 1658 l 1
 330 506 l 1
 272 506 l 1
1237 -19 m 1
 1237 302 l 1
 909 302 l 1
 909 354 l 1
 1229 1121 l 1
 1301 1122 l 1
 1301 358 l 1
 1435 358 l 1
 1435 302 l 1
 1301 302 l 1
 1301 -19 l 1
 1237 -19 l 1
EndSplineSet
EndChar

StartChar: onesuperior
Encoding: 65539 185 375
Width: 772
VWidth: 0
GlyphClass: 2
Flags: HW
LayerCount: 2
UndoRedoHistory
Layer: 1
Undoes
EndUndoes
Redoes
EndRedoes
EndUndoRedoHistory
Fore
SplineSet
395 759 m 1
 395 1668 l 1
 347 1600 290 1569 224 1554 c 1
 224 1606 l 1
 278 1627 334 1661 395 1753 c 1
 459 1753 l 1
 459 759 l 1
 395 759 l 1
EndSplineSet
EndChar

StartChar: ordfeminine
Encoding: 106 170 376
Width: 760
VWidth: 0
GlyphClass: 2
Flags: HW
LayerCount: 2
UndoRedoHistory
Layer: 1
Undoes
EndUndoes
Redoes
EndRedoes
EndUndoRedoHistory
Fore
SplineSet
349 782 m 0
 452 782 522 845 569 929 c 1
 569 1244 l 1
 253 1104 194 1082 194 932 c 0
 194 811 282 782 349 782 c 0
349 744 m 0
 221 744 140 816 140 936 c 0
 140 1062 161 1117 569 1287 c 1
 569 1352 l 2
 569 1586 522 1640 409 1640 c 0
 325 1640 221 1624 221 1453 c 1
 167 1456 l 1
 171 1619 255 1678 409 1678 c 0
 571 1678 625 1591 625 1365 c 2
 625 759 l 1
 581 759 l 1
 570 873 l 1
 535 797 447 744 349 744 c 0
EndSplineSet
EndChar

StartChar: ordmasculine
Encoding: 122 186 377
Width: 760
VWidth: 0
GlyphClass: 2
Flags: HW
LayerCount: 2
UndoRedoHistory
Layer: 1
Undoes
EndUndoes
Redoes
EndRedoes
EndUndoRedoHistory
Fore
SplineSet
380 743 m 0
 172 743 128 856 128 1011 c 2
 128 1412 l 2
 128 1568 182 1678 380 1678 c 0
 578 1678 632 1568 632 1412 c 2
 632 1011 l 2
 632 855 590 743 380 743 c 0
380 775 m 0
 536 775 586 865 586 1004 c 2
 586 1419 l 2
 586 1557 534 1647 380 1647 c 0
 227 1647 174 1557 174 1419 c 2
 174 1004 l 2
 174 865 224 775 380 775 c 0
EndSplineSet
EndChar

StartChar: oslash
Encoding: 184 248 378
Width: 786
VWidth: 0
GlyphClass: 2
Flags: HW
LayerCount: 2
UndoRedoHistory
Layer: 1
Undoes
EndUndoes
Redoes
EndRedoes
EndUndoRedoHistory
Fore
SplineSet
375 -20 m 0
 297.582285431 -20 240.409290515 -2.47825433454 198.714956994 33.0947990252 c 1
 145 -109 l 1
 114 -96 l 1
 172.900746536 59.8130213596 l 1
 114.078731344 133.319467268 96 258.209032278 96 437 c 2
 96 747 l 2
 96 1053 150 1204 375 1204 c 0
 468.891189593 1204 533.005391776 1178.22810446 575.844444682 1125.73966471 c 1
 630 1269 l 1
 661 1256 l 1
 598.811628806 1091.49006457 l 1
 640.486299341 1015.8659084 654 901.578378332 654 747 c 2
 654 437 l 2
 654 128 600 -20 375 -20 c 0
568.032950624 1010.06972403 m 1
 220.769990426 91.4380560686 l 1
 252.961000577 50.7811202362 301.673950361 30 375 30 c 0
 566 30 590 171 590 437 c 2
 590 747 l 2
 590 856.076520022 585.964377674 944.134173763 568.032950624 1010.06972403 c 1
550.385194257 1058.3910662 m 1
 519.83784307 1121.54128522 466.640926386 1154 375 1154 c 0
 184 1154 160 1013 160 747 c 2
 160 437 l 2
 160 300.068652871 166.359950419 196.262047507 198.587268351 127.762831974 c 1
 550.385194257 1058.3910662 l 1
EndSplineSet
EndChar

StartChar: p
Encoding: 80 112 380
Width: 780
VWidth: 0
GlyphClass: 2
Flags: HW
LayerCount: 2
UndoRedoHistory
Layer: 1
Undoes
EndUndoes
Redoes
EndRedoes
EndUndoRedoHistory
Fore
SplineSet
407 -20 m 0
 296.463507887 -20 223.437744523 50.1986495161 184 101.942704632 c 1
 184 -390 l 1
 120 -390 l 1
 120 1184 l 1
 184 1184 l 1
 184 1080.91367096 l 1
 224.649850843 1136.5765886 299.653826879 1204 412 1204 c 0
 619 1204 678 1057 678 698 c 2
 678 494 l 2
 678 131 612 -20 407 -20 c 0
184 1024.58877002 m 1
 184 158.873329066 l 1
 233.476011634 91.4631987032 312.391640025 30 407 30 c 0
 569 30 614 154 614 490 c 2
 614 699 l 2
 614 1035 581 1154 412 1154 c 0
 309.68762498 1154 227.339309875 1076.19135623 184 1024.58877002 c 1
EndSplineSet
EndChar

StartChar: paragraph
Encoding: 118 182 381
Width: 975
VWidth: 0
GlyphClass: 2
Flags: HW
LayerCount: 2
UndoRedoHistory
Layer: 1
Undoes
EndUndoes
Redoes
EndRedoes
EndUndoRedoHistory
Fore
SplineSet
414 -191 m 1
 414 1122 l 1
 185 1120 50 1213 50 1387 c 0
 50 1533 138 1658 397 1658 c 2
 811 1658 l 1
 811 -191 l 1
 759 -191 l 1
 759 1598 l 1
 466 1598 l 1
 466 -191 l 1
 414 -191 l 1
EndSplineSet
EndChar

StartChar: parenleft
Encoding: 8 40 382
Width: 518
VWidth: 0
GlyphClass: 2
Flags: HW
LayerCount: 2
UndoRedoHistory
Layer: 1
Undoes
EndUndoes
Redoes
EndRedoes
EndUndoRedoHistory
Fore
SplineSet
454 -213 m 1
 454 -264 l 1
 179 -224 174 134 174 702 c 0
 174 1275 179 1647 454 1667 c 1
 454 1616 l 1
 237 1576 240 1230 240 702 c 0
 240 173 237 -173 454 -213 c 1
EndSplineSet
EndChar

StartChar: parenright
Encoding: 9 41 383
Width: 518
VWidth: 0
GlyphClass: 2
Flags: HW
LayerCount: 2
UndoRedoHistory
Layer: 1
Undoes
EndUndoes
Redoes
EndRedoes
EndUndoRedoHistory
Fore
SplineSet
64 -213 m 1
 281 -173 278 173 278 702 c 0
 278 1230 281 1576 64 1616 c 1
 64 1667 l 1
 339 1647 344 1275 344 702 c 0
 344 134 339 -224 64 -264 c 1
 64 -213 l 1
EndSplineSet
EndChar

StartChar: U+2202
Encoding: 542 8706 384
Width: 820
VWidth: 0
GlyphClass: 2
Flags: HW
LayerCount: 2
UndoRedoHistory
Layer: 1
Undoes
EndUndoes
Redoes
EndRedoes
EndUndoRedoHistory
Fore
SplineSet
389 30 m 0
 515 30 595 122 605 291 c 2
 640 940 l 1
 598 991 514 1071 410 1071 c 0
 241 1071 212 972 194 636 c 2
 186 490 l 2
 183 442 182 398 182 358 c 0
 182 117 245 30 389 30 c 0
388 -20 m 1
 191 -14 119 100 119 379 c 0
 119 415 120 453 122 494 c 2
 130 635 l 1
 149 994 206 1121 413 1121 c 1
 527 1120 603 1051 643 995 c 1
 643 995 654 1194 654 1213 c 0
 654 1540 518 1623 260 1637 c 1
 281 1687 l 1
 501 1687 718 1592 718 1214 c 0
 718 1195 669 291 669 291 c 2
 657 82 534 -20 388 -20 c 1
EndSplineSet
EndChar

StartChar: percent
Encoding: 5 37 385
Width: 1090
VWidth: 0
GlyphClass: 2
Flags: HW
LayerCount: 2
UndoRedoHistory
Layer: 1
Undoes
EndUndoes
Redoes
EndRedoes
EndUndoRedoHistory
Fore
SplineSet
209 0 m 1
 821 1688 l 1
 884 1688 l 1
 274 0 l 1
 209 0 l 1
835 -14 m 0
 705 -14 672 91 672 222 c 2
 672 579 l 2
 672 711 712 810 835 810 c 0
 958 810 998 710 998 579 c 2
 998 222 l 2
 998 91 964 -14 835 -14 c 0
835 38 m 0
 910 38 940 100 940 217 c 2
 940 582 l 2
 940 690 909 758 835 758 c 0
 760 758 730 690 730 581 c 2
 730 217 l 2
 730 100 759 38 835 38 c 0
255 886 m 0
 125 886 92 991 92 1122 c 2
 92 1479 l 2
 92 1611 132 1710 255 1710 c 0
 378 1710 418 1610 418 1479 c 2
 418 1122 l 2
 418 991 384 886 255 886 c 0
255 938 m 0
 330 938 360 1000 360 1117 c 2
 360 1482 l 2
 360 1590 329 1658 255 1658 c 0
 180 1658 150 1590 150 1481 c 2
 150 1117 l 2
 150 1000 179 938 255 938 c 0
EndSplineSet
EndChar

StartChar: period
Encoding: 14 46 386
Width: 354
VWidth: 0
GlyphClass: 2
Flags: HW
LayerCount: 2
UndoRedoHistory
Layer: 1
Undoes
EndUndoes
Redoes
EndRedoes
EndUndoRedoHistory
Fore
SplineSet
150 0 m 1
 150 201 l 1
 232 201 l 1
 232 0 l 1
 150 0 l 1
EndSplineSet
EndChar

StartChar: periodcentered
Encoding: 119 183 387
AltUni2: 002219.ffffffff.0
Width: 415
VWidth: 0
GlyphClass: 2
Flags: HW
LayerCount: 2
UndoRedoHistory
Layer: 1
Undoes
EndUndoes
Redoes
EndRedoes
EndUndoRedoHistory
Fore
SplineSet
203 713 m 1
 203 836 l 1
 271 836 l 1
 271 713 l 1
 203 713 l 1
EndSplineSet
EndChar

StartChar: U+2030
Encoding: 538 8240 388
Width: 1564
VWidth: 0
GlyphClass: 2
Flags: HW
LayerCount: 2
UndoRedoHistory
Layer: 1
Undoes
EndUndoes
Redoes
EndRedoes
EndUndoRedoHistory
Fore
SplineSet
1289 -15 m 0
 1159 -15 1126 90 1126 221 c 2
 1126 578 l 2
 1126 710 1166 809 1289 809 c 0
 1412 809 1452 709 1452 578 c 2
 1452 221 l 2
 1452 90 1418 -15 1289 -15 c 0
1289 37 m 0
 1364 37 1394 99 1394 216 c 2
 1394 581 l 2
 1394 689 1363 757 1289 757 c 0
 1214 757 1184 689 1184 580 c 2
 1184 216 l 2
 1184 99 1213 37 1289 37 c 0
229 0 m 1
 841 1688 l 1
 904 1688 l 1
 294 0 l 1
 229 0 l 1
855 -14 m 0
 725 -14 692 91 692 222 c 2
 692 579 l 2
 692 711 732 810 855 810 c 0
 978 810 1018 710 1018 579 c 2
 1018 222 l 2
 1018 91 984 -14 855 -14 c 0
855 38 m 0
 930 38 960 100 960 217 c 2
 960 582 l 2
 960 690 929 758 855 758 c 0
 780 758 750 690 750 581 c 2
 750 217 l 2
 750 100 779 38 855 38 c 0
275 886 m 0
 145 886 112 991 112 1122 c 2
 112 1479 l 2
 112 1611 152 1710 275 1710 c 0
 398 1710 438 1610 438 1479 c 2
 438 1122 l 2
 438 991 404 886 275 886 c 0
275 938 m 0
 350 938 380 1000 380 1117 c 2
 380 1482 l 2
 380 1590 349 1658 275 1658 c 0
 200 1658 170 1590 170 1481 c 2
 170 1117 l 2
 170 1000 199 938 275 938 c 0
EndSplineSet
EndChar

StartChar: U+03c0
Encoding: 536 960 389
Width: 765
VWidth: 0
GlyphClass: 2
Flags: HW
LayerCount: 2
UndoRedoHistory
Layer: 1
Undoes
EndUndoes
Redoes
EndRedoes
EndUndoRedoHistory
Fore
SplineSet
159 0 m 1
 159 1124 l 1
 51 1112 l 1
 144 1132 l 1
 159 1132 l 1
 159 1154 l 1
 223 1154 l 1
 223 1132 l 1
 231 1132 l 1
 223 1131.11111111 l 1
 223 0 l 1
 159 0 l 1
725 0 m 1
 577 0 555 81 555 288 c 2
 555 1132 l 1
 619 1132 l 1
 619 283 l 2
 619 108 618 60 739 60 c 1
 725 0 l 1
231 1132 m 1
 699 1184 l 1
 699 1132 l 1
 619 1132 l 1
 619 1154 l 1
 555 1154 l 1
 555 1132 l 1
 231 1132 l 1
EndSplineSet
EndChar

StartChar: plus
Encoding: 11 43 390
Width: 703
VWidth: 0
GlyphClass: 2
Flags: HW
LayerCount: 2
UndoRedoHistory
Layer: 1
Undoes
EndUndoes
Redoes
EndRedoes
EndUndoRedoHistory
Fore
SplineSet
325 516 m 1
 325 827 l 1
 44 827 l 1
 44 875 l 1
 325 875 l 1
 325 1180 l 1
 378 1180 l 1
 378 875 l 1
 659 875 l 1
 659 827 l 1
 378 827 l 1
 378 516 l 1
 325 516 l 1
EndSplineSet
EndChar

StartChar: plusminus
Encoding: 113 177 391
Width: 621
VWidth: 0
GlyphClass: 2
Flags: HW
LayerCount: 2
UndoRedoHistory
Layer: 1
Undoes
EndUndoes
Redoes
EndRedoes
EndUndoRedoHistory
Fore
SplineSet
93 0 m 1
 93 70 l 1
 552 70 l 1
 552 0 l 1
 93 0 l 1
285 382 m 1
 285 573 l 1
 93 573 l 1
 93 643 l 1
 285 643 l 1
 285 834 l 1
 361 834 l 1
 361 643 l 1
 552 643 l 1
 552 573 l 1
 361 573 l 1
 361 382 l 1
 285 382 l 1
EndSplineSet
EndChar

StartChar: product
Encoding: 513 8719 392
Width: 1151
VWidth: 0
GlyphClass: 2
Flags: HW
LayerCount: 2
UndoRedoHistory
Layer: 1
Undoes
EndUndoes
Redoes
EndRedoes
EndUndoRedoHistory
Fore
SplineSet
926 -390 m 1
 926 1606 l 1
 225 1606 l 1
 225 -390 l 1
 161 -390 l 1
 161 1658 l 1
 990 1658 l 1
 990 -390 l 1
 926 -390 l 1
EndSplineSet
EndChar

StartChar: q
Encoding: 81 113 393
Width: 774
VWidth: 0
GlyphClass: 2
Flags: HW
LayerCount: 2
UndoRedoHistory
Layer: 1
Undoes
EndUndoes
Redoes
EndRedoes
EndUndoRedoHistory
Fore
SplineSet
592 -390 m 1
 592 96.7809713182 l 1
 551.718594421 45.6574235966 479.90135695 -20 373 -20 c 0
 168 -20 102 131 102 494 c 2
 102 698 l 2
 102 1057 161 1204 368 1204 c 1
 476.758104282 1202.60566533 550.521163455 1139.97000172 592 1085.89668809 c 1
 592 1184 l 1
 656 1184 l 1
 656 -390 l 1
 592 -390 l 1
592 153.521358256 m 1
 592 1029.29473378 l 1
 547.708300234 1080.78395375 467.246998156 1154 368 1154 c 0
 199 1154 166 1035 166 699 c 2
 166 490 l 2
 166 154 211 30 373 30 c 0
 465.098215703 30 542.32537055 88.244988352 592 153.521358256 c 1
EndSplineSet
EndChar

StartChar: question
Encoding: 31 63 394
Width: 938
VWidth: 0
GlyphClass: 2
Flags: HW
LayerCount: 2
UndoRedoHistory
Layer: 1
Undoes
EndUndoes
Redoes
EndRedoes
EndUndoRedoHistory
Fore
SplineSet
383.75251168 1 m 1
 383.75251168 119 l 1
 444.75251168 119 l 1
 444.75251168 1 l 1
 383.75251168 1 l 1
385.75251168 408 m 1
 385.75251168 658 l 1
 696.75251168 847 766.75251168 1021 766.75251168 1239 c 0
 766.75251168 1517 612.75251168 1623 462.75251168 1623 c 0
 280.75251168 1623 144.75251168 1526 194.75251168 1325 c 2
 212.75251168 1253 l 1
 159.75251168 1234 l 1
 139.75251168 1311 l 2
 73.75251168 1564 255.75251168 1678 462.75251168 1678 c 0
 642.75251168 1678 825.75251168 1546 825.75251168 1240 c 0
 825.75251168 975 714.75251168 799 439.75251168 636 c 1
 439.75251168 408 l 1
 385.75251168 408 l 1
EndSplineSet
EndChar

StartChar: questiondown
Encoding: 127 191 395
Width: 823
VWidth: 0
GlyphClass: 2
Flags: HW
LayerCount: 2
UndoRedoHistory
Layer: 1
Undoes
EndUndoes
Redoes
EndRedoes
EndUndoRedoHistory
Fore
SplineSet
410.247070312 1211 m 1
 410.247070312 1093 l 1
 349.247070312 1093 l 1
 349.247070312 1211 l 1
 410.247070312 1211 l 1
408.247070312 804 m 1
 408.247070312 554 l 1
 97.2470703125 365 27.2470703125 191 27.2470703125 -27 c 0
 27.2470703125 -305 181.247070312 -411 331.247070312 -411 c 0
 513.247070312 -411 649.247070312 -314 599.247070312 -113 c 2
 581.247070312 -41 l 1
 634.247070312 -22 l 1
 654.247070312 -99 l 2
 720.247070312 -352 538.247070312 -466 331.247070312 -466 c 0
 151.247070312 -466 -31.7529296875 -334 -31.7529296875 -28 c 0
 -31.7529296875 237 79.2470703125 413 354.247070312 576 c 1
 354.247070312 804 l 1
 408.247070312 804 l 1
EndSplineSet
EndChar

StartChar: quotedbl
Encoding: 2 34 396
Width: 667
VWidth: 0
GlyphClass: 2
Flags: HW
LayerCount: 2
UndoRedoHistory
Layer: 1
Undoes
EndUndoes
Redoes
EndRedoes
EndUndoRedoHistory
Fore
SplineSet
412 1204 m 1
 412 1658 l 1
 489 1658 l 1
 448 1204 l 1
 412 1204 l 1
157 1204 m 1
 157 1658 l 1
 234 1658 l 1
 193 1204 l 1
 157 1204 l 1
EndSplineSet
EndChar

StartChar: quotedblbase
Encoding: 502 8222 397
Width: 644
VWidth: 0
GlyphClass: 2
Flags: HW
LayerCount: 2
UndoRedoHistory
Layer: 1
Undoes
EndUndoes
Redoes
EndRedoes
EndUndoRedoHistory
Fore
SplineSet
484 165 m 1
 484 29 l 2
 484 -90 473 -149 401 -210 c 1
 371 -193 l 1
 438 -130 443 -90 443 -1 c 1
 394 -1 l 1
 394 165 l 1
 484 165 l 1
270 165 m 1
 270 29 l 2
 270 -90 259 -149 187 -210 c 1
 157 -193 l 1
 224 -130 229 -90 229 -1 c 1
 180 -1 l 1
 180 165 l 1
 270 165 l 1
EndSplineSet
EndChar

StartChar: quotedblleft
Encoding: 500 8220 398
Width: 580
VWidth: 0
GlyphClass: 2
Flags: HW
LayerCount: 2
UndoRedoHistory
Layer: 1
Undoes
EndUndoes
Redoes
EndRedoes
EndUndoRedoHistory
Fore
SplineSet
143 1329 m 1
 143 1465 l 2
 143 1584 154 1643 226 1704 c 1
 256 1687 l 1
 189 1624 184 1584 184 1495 c 1
 233 1495 l 1
 233 1329 l 1
 143 1329 l 1
354 1329 m 1
 354 1465 l 2
 354 1584 365 1643 437 1704 c 1
 467 1687 l 1
 400 1624 395 1584 395 1495 c 1
 444 1495 l 1
 444 1329 l 1
 354 1329 l 1
EndSplineSet
EndChar

StartChar: quotedblright
Encoding: 501 8221 399
Width: 970
VWidth: 0
GlyphClass: 2
Flags: HW
LayerCount: 2
UndoRedoHistory
Layer: 1
Undoes
EndUndoes
Redoes
EndRedoes
EndUndoRedoHistory
Fore
SplineSet
449 1658 m 1
 449 1522 l 2
 449 1403 438 1344 366 1283 c 1
 336 1300 l 1
 403 1363 408 1403 408 1492 c 1
 359 1492 l 1
 359 1658 l 1
 449 1658 l 1
638 1658 m 1
 638 1522 l 2
 638 1403 627 1344 555 1283 c 1
 525 1300 l 1
 592 1363 597 1403 597 1492 c 1
 548 1492 l 1
 548 1658 l 1
 638 1658 l 1
EndSplineSet
EndChar

StartChar: quoteleft
Encoding: 497 8216 400
Width: 336
VWidth: 0
GlyphClass: 2
Flags: HW
LayerCount: 2
UndoRedoHistory
Layer: 1
Undoes
EndUndoes
Redoes
EndRedoes
EndUndoRedoHistory
Fore
SplineSet
107 1329 m 1
 107 1465 l 2
 107 1584 118 1643 190 1704 c 1
 220 1687 l 1
 153 1624 148 1584 148 1495 c 1
 197 1495 l 1
 197 1329 l 1
 107 1329 l 1
EndSplineSet
EndChar

StartChar: quoteright
Encoding: 498 8217 401
Width: 568
VWidth: 0
GlyphClass: 2
Flags: HW
LayerCount: 2
UndoRedoHistory
Layer: 1
Undoes
EndUndoes
Redoes
EndRedoes
EndUndoRedoHistory
Fore
SplineSet
363 1658 m 1
 363 1522 l 2
 363 1403 352 1344 280 1283 c 1
 250 1300 l 1
 317 1363 322 1403 322 1492 c 1
 273 1492 l 1
 273 1658 l 1
 363 1658 l 1
EndSplineSet
EndChar

StartChar: quotesinglbase
Encoding: 499 8218 402
Width: 572
VWidth: 0
GlyphClass: 2
Flags: HW
LayerCount: 2
UndoRedoHistory
Layer: 1
Undoes
EndUndoes
Redoes
EndRedoes
EndUndoRedoHistory
Fore
SplineSet
340 167 m 1
 340 31 l 2
 340 -88 329 -147 257 -208 c 1
 227 -191 l 1
 294 -128 299 -88 299 1 c 1
 250 1 l 1
 250 167 l 1
 340 167 l 1
EndSplineSet
EndChar

StartChar: quotesingle
Encoding: 7 39 403
Width: 380
VWidth: 0
GlyphClass: 2
Flags: HW
LayerCount: 2
UndoRedoHistory
Layer: 1
Undoes
EndUndoes
Redoes
EndRedoes
EndUndoRedoHistory
Fore
SplineSet
157 1204 m 1
 157 1658 l 1
 234 1658 l 1
 193 1204 l 1
 157 1204 l 1
EndSplineSet
EndChar

StartChar: r
Encoding: 82 114 404
Width: 523
VWidth: 0
GlyphClass: 2
Flags: HW
LayerCount: 2
UndoRedoHistory
Layer: 1
Undoes
EndUndoes
Redoes
EndRedoes
EndUndoRedoHistory
Fore
SplineSet
138 0 m 1
 138 1184 l 1
 202 1184 l 1
 202 1027.59845709 l 1
 264.039287231 1133.72754452 396.610462108 1194 489 1194 c 2
 503 1194 l 1
 503 1133 l 1
 489 1133 l 2
 359.18464226 1133 259.924064648 1065.49525321 202 962.83095812 c 1
 202 0 l 1
 138 0 l 1
EndSplineSet
EndChar

StartChar: U+221a
Encoding: 546 8730 406
Width: 909
VWidth: 0
GlyphClass: 2
Flags: HW
LayerCount: 2
UndoRedoHistory
Layer: 1
Undoes
EndUndoes
Redoes
EndRedoes
EndUndoRedoHistory
Fore
SplineSet
506 0 m 1
 426 0 l 1
 152 1128 l 1
 -10 1128 l 1
 -10 1184 l 1
 209 1184 l 1
 298.003592988 825.003592988 380.557004952 459.557004952 466 97 c 1
 579.856969541 619.809697126 696.078368752 1140.25496458 815 1658 c 1
 885 1658 l 1
 506 0 l 1
EndSplineSet
EndChar

StartChar: registered
Encoding: 110 174 409
Width: 1765
VWidth: 0
GlyphClass: 2
Flags: HW
LayerCount: 2
UndoRedoHistory
Layer: 1
Undoes
EndUndoes
Redoes
EndRedoes
EndUndoRedoHistory
Fore
SplineSet
883 -22 m 0
 298 -22 60 427 60 843 c 0
 60 1260 298 1708 883 1708 c 0
 1467 1708 1705 1260 1705 843 c 0
 1705 426 1469 -22 883 -22 c 0
883 28 m 0
 1412 28 1645 432 1645 845 c 0
 1645 1259 1412 1658 883 1658 c 0
 352 1658 121 1259 121 845 c 0
 121 432 352 28 883 28 c 0
689 924 m 1
 982 924 l 2
 1152 924 1178 1038 1178 1194 c 0
 1178 1361 1137 1455 977 1455 c 2
 689 1455 l 1
 689 924 l 1
630 198 m 1
 630 1508 l 1
 984 1508 l 2
 1199 1508 1238 1343 1238 1194 c 0
 1238 1051 1199 899 1025 879 c 1
 1243 198 l 1
 1182 198 l 1
 968 873 l 1
 689 873 l 1
 689 198 l 1
 630 198 l 1
EndSplineSet
EndChar

StartChar: ring
Encoding: 363 730 410
Width: 588
VWidth: 0
GlyphClass: 2
Flags: HW
LayerCount: 2
UndoRedoHistory
Layer: 1
Undoes
EndUndoes
Redoes
EndRedoes
EndUndoRedoHistory
Fore
SplineSet
294 1374 m 0
 229 1374 139 1410 139 1526 c 0
 139 1642 228 1678 294 1678 c 0
 359 1678 449 1642 449 1526 c 0
 449 1410 359 1374 294 1374 c 0
295 1417 m 0
 343 1417 400 1443 400 1526 c 0
 400 1610 343 1636 294 1636 c 0
 246 1636 190 1610 190 1526 c 0
 190 1443 247 1417 295 1417 c 0
EndSplineSet
EndChar

StartChar: s
Encoding: 83 115 411
Width: 699
VWidth: 0
GlyphClass: 2
Flags: HW
LayerCount: 2
UndoRedoHistory
Layer: 1
Undoes
EndUndoes
Redoes
EndRedoes
EndUndoRedoHistory
Fore
SplineSet
377 -20 m 0
 194 -20 86 109 70 320 c 1
 125 336 l 1
 139 119 231 30 380 30 c 0
 514 30 591 105 591 245 c 0
 591 343 532 447 387 568 c 2
 276 661 l 2
 142 773 95 855 95 967 c 0
 95 1119 197 1204 350 1204 c 0
 520 1204 600 1091 604 894 c 1
 550 882 l 1
 548 1090 468 1154 353 1154 c 0
 238 1154 156 1099 156 980 c 0
 156 874 184 814 303 712 c 2
 416 615 l 2
 531 516 647 418 651 240 c 1
 651 80 546 -20 377 -20 c 0
EndSplineSet
EndChar

StartChar: section
Encoding: 103 167 417
Width: 752
VWidth: 0
GlyphClass: 2
Flags: HW
LayerCount: 2
UndoRedoHistory
Layer: 1
Undoes
EndUndoes
Redoes
EndRedoes
EndUndoRedoHistory
Fore
SplineSet
505 511 m 1
 569 538 647 594 659 680 c 0
 674 790 622 864 504 972 c 2
 288 1171 l 1
 190 1146 125 1089 125 996 c 0
 125 946 148 895 206 833 c 2
 505 511 l 1
386 -20 m 0
 216 -20 128 136 88 298 c 1
 139 316 l 1
 171 160 259 27 390 27 c 0
 514 27 598 107 598 223 c 0
 598 285 593 346 381 567 c 2
 159 799 l 2
 92 869 69 942 69 993 c 0
 69 1112 168 1179 260 1206 c 1
 192 1282 131 1355 131 1439 c 0
 131 1568 219 1675 379 1675 c 0
 538 1675 600 1511 644 1396 c 1
 588 1379 l 1
 558 1476 503 1625 374 1625 c 0
 275 1625 190 1563 190 1443 c 0
 190 1361 268 1269 358 1183 c 2
 545 1005 l 2
 649 906 722 822 707 679 c 0
 695 561 613 514 534 476 c 1
 584 409 647 339 650 241 c 0
 654 83 543 -20 386 -20 c 0
EndSplineSet
EndChar

StartChar: semicolon
Encoding: 27 59 418
Width: 407
VWidth: 0
GlyphClass: 2
Flags: HW
LayerCount: 2
UndoRedoHistory
Layer: 1
Undoes
EndUndoes
Redoes
EndRedoes
EndUndoRedoHistory
Fore
SplineSet
166 889 m 1
 166 1090 l 1
 246 1090 l 1
 246 889 l 1
 166 889 l 1
171 -10 m 1
 146 18 l 1
 213 81 218 108 218 190 c 1
 166 190 l 1
 166 374 l 1
 256 374 l 1
 256 220 l 2
 256 101 243 51 171 -10 c 1
EndSplineSet
EndChar

StartChar: seven
Encoding: 23 55 419
Width: 1010
VWidth: 0
GlyphClass: 2
Flags: HW
LayerCount: 2
UndoRedoHistory
Layer: 1
Undoes
EndUndoes
Redoes
EndRedoes
EndUndoRedoHistory
Fore
SplineSet
418 0 m 1
 770 1602 l 1
 195 1602 l 1
 195 1658 l 1
 839 1658 l 1
 839 1625 l 1
 482 0 l 1
 418 0 l 1
EndSplineSet
EndChar

StartChar: six
Encoding: 22 54 420
Width: 1010
VWidth: 0
GlyphClass: 2
Flags: HW
LayerCount: 2
UndoRedoHistory
Layer: 1
Undoes
EndUndoes
Redoes
EndRedoes
EndUndoRedoHistory
Fore
SplineSet
518 32 m 0
 703 32 820 83 820 439 c 0
 820 804 771 897 518 897 c 0
 417 897 280 845 230 824 c 1
 230 489 l 2
 230 99 339 32 518 32 c 0
518 -24 m 0
 267 -24 166 120 166 465 c 2
 166 1256 l 2
 166 1538 277 1678 517 1678 c 0
 756 1678 848 1567 848 1318 c 2
 848 1274 l 1
 789 1274 l 1
 789 1551 704 1624 526 1624 c 0
 369 1624 230 1564 230 1264 c 2
 230 875 l 1
 290 898 410 952 528 952 c 0
 796 952 889 854 889 437 c 0
 889 128 785 -24 518 -24 c 0
EndSplineSet
EndChar

StartChar: slash
Encoding: 15 47 421
AltUni2: 002215.ffffffff.0
Width: 640
VWidth: 0
GlyphClass: 2
Flags: HW
LayerCount: 2
UndoRedoHistory
Layer: 1
Undoes
EndUndoes
Redoes
EndRedoes
EndUndoRedoHistory
Fore
SplineSet
38 0 m 1
 542 1658 l 1
 602 1658 l 1
 99 0 l 1
 38 0 l 1
EndSplineSet
EndChar

StartChar: sterling
Encoding: 99 163 423
Width: 709
VWidth: 0
GlyphClass: 2
Flags: HW
LayerCount: 2
UndoRedoHistory
Layer: 1
Undoes
EndUndoes
Redoes
EndRedoes
EndUndoRedoHistory
Fore
SplineSet
687 1329 m 1
 637 1329 l 1
 637 1557 609 1634 453 1634 c 0
 245 1634 236 1467 236 1174 c 2
 236 883 l 1
 544 883 l 1
 544 837 l 1
 236 837 l 1
 236 44 l 1
 680 44 l 1
 680 0 l 1
 43 0 l 1
 43 34 l 1
 174 44 l 1
 174 837 l 1
 43 837 l 1
 43 883 l 1
 174 883 l 1
 174 1173 l 2
 174 1496 204 1678 455 1678 c 0
 673.878313107 1678 687 1523.40291754 687 1329 c 1
EndSplineSet
EndChar

StartChar: U+2211
Encoding: 544 8721 424
Width: 763
VWidth: 0
GlyphClass: 2
Flags: HW
LayerCount: 2
UndoRedoHistory
Layer: 1
Undoes
EndUndoes
Redoes
EndRedoes
EndUndoRedoHistory
Fore
SplineSet
81 -390 m 1
 451 670 l 1
 81 1658 l 1
 638 1658 l 1
 638 1602 l 1
 171 1602 l 1
 515 670 l 1
 169 -334 l 1
 652 -334 l 1
 652 -390 l 1
 81 -390 l 1
EndSplineSet
EndChar

StartChar: t
Encoding: 84 116 425
Width: 500
VWidth: 0
GlyphClass: 2
Flags: HW
LayerCount: 2
UndoRedoHistory
Layer: 1
Undoes
EndUndoes
Redoes
EndRedoes
EndUndoRedoHistory
Fore
SplineSet
355 -12 m 0
 200 -12 195 99 195 221 c 2
 195 1142 l 1
 28 1142 l 1
 28 1184 l 1
 195 1184 l 1
 195 1576 l 1
 259 1576 l 1
 259 1184 l 1
 464 1184 l 1
 464 1142 l 1
 259 1142 l 1
 259 233 l 2
 259 89 272 41 361 41 c 0
 388 41 422 47 450 53 c 1
 450 3 l 1
 427 -6 381 -12 355 -12 c 0
EndSplineSet
EndChar

StartChar: tbar
Encoding: 292 359 426
Width: 500
VWidth: 0
GlyphClass: 2
Flags: HW
LayerCount: 2
UndoRedoHistory
Layer: 1
Undoes
EndUndoes
Redoes
EndRedoes
EndUndoRedoHistory
Fore
SplineSet
355 -12 m 0
 200 -12 195 99 195 221 c 2
 195 760 l 1
 63 760 l 1
 63 809 l 1
 195 809 l 1
 195 1142 l 1
 28 1142 l 1
 28 1184 l 1
 195 1184 l 1
 195 1576 l 1
 259 1576 l 1
 259 1184 l 1
 464 1184 l 1
 464 1142 l 1
 259 1142 l 1
 259 809 l 1
 391 809 l 1
 391 760 l 1
 259 760 l 1
 259 233 l 2
 259 89 272 41 361 41 c 0
 388 41 422 47 450 53 c 1
 450 3 l 1
 427 -6 381 -12 355 -12 c 0
EndSplineSet
EndChar

StartChar: thorn
Encoding: 190 254 429
Width: 774
VWidth: 0
GlyphClass: 2
Flags: HW
LayerCount: 2
UndoRedoHistory
Layer: 1
Undoes
EndUndoes
Redoes
EndRedoes
EndUndoRedoHistory
Fore
SplineSet
120 -390 m 1
 120 1658 l 1
 184 1658 l 1
 184 1465.63789032 184 1273.27578064 184 1080.91367096 c 1
 224.649850843 1136.5765886 299.653826879 1204 412 1204 c 0
 619 1204 678 1057 678 698 c 2
 678 494 l 2
 678 131 612 -20 407 -20 c 0
 296.463507887 -20 223.437744523 50.1986495161 184 101.942704632 c 1
 184 -62.038196912 184 -226.019098456 184 -390 c 1
 120 -390 l 1
184 1024.58877002 m 1
 184 158.873329066 l 1
 233.476011634 91.4631987032 312.391640025 30 407 30 c 0
 569 30 614 154 614 490 c 2
 614 699 l 2
 614 1035 581 1154 412 1154 c 0
 309.68762498 1154 227.339309875 1076.19135623 184 1024.58877002 c 1
EndSplineSet
EndChar

StartChar: three
Encoding: 19 51 430
Width: 1010
VWidth: 0
GlyphClass: 2
Flags: HW
LayerCount: 2
UndoRedoHistory
Layer: 1
Undoes
EndUndoes
Redoes
EndRedoes
EndUndoRedoHistory
Fore
SplineSet
488 -24 m 0
 245 -24 164 131 164 352 c 2
 164 373 l 1
 219 373 l 1
 219 343 l 2
 219 133 306 27 488 27 c 0
 639 27 794 89 794 429 c 0
 794 669 717 838 507 838 c 2
 453 838 l 1
 453 882 l 1
 507 882 l 2
 718 882 794 1007 794 1280 c 0
 794 1481 723 1628 519 1628 c 0
 331 1628 219 1559 219 1313 c 2
 219 1292 l 1
 163 1292 l 1
 163 1308 l 2
 163 1526 240 1678 518 1678 c 0
 765 1678 862 1496 862 1278 c 0
 862 1006 757 877 626 857 c 1
 714 840 862 744 862 433 c 0
 862 167 757 -24 488 -24 c 0
EndSplineSet
EndChar

StartChar: threequarters
Encoding: 126 190 431
Width: 1499
VWidth: 0
GlyphClass: 2
Flags: HW
LayerCount: 2
UndoRedoHistory
Layer: 1
Undoes
EndUndoes
Redoes
EndRedoes
EndUndoRedoHistory
Fore
SplineSet
387 0 m 1
 999 1658 l 1
 1062 1658 l 1
 452 0 l 1
 387 0 l 1
974 358 m 1
 1237 358 l 1
 1237 1010 l 1
 974 358 l 1
1237 -19 m 1
 1237 302 l 1
 909 302 l 1
 909 354 l 1
 1229 1121 l 1
 1298 1121 l 1
 1298 358 l 1
 1432 358 l 1
 1432 302 l 1
 1298 302 l 1
 1298 -19 l 1
 1237 -19 l 1
347 506 m 1
 289 506 l 1
 289 1589 l 1
 124 1485 l 1
 124 1550 l 1
 170 1573 276 1646 289 1658 c 1
 347 1658 l 1
 347 506 l 1
EndSplineSet
EndChar

StartChar: threesuperior
Encoding: 65540 179 432
Width: 795
VWidth: 0
GlyphClass: 2
Flags: HW
LayerCount: 2
UndoRedoHistory
Layer: 1
Undoes
EndUndoes
Redoes
EndRedoes
EndUndoRedoHistory
Fore
SplineSet
374 747 m 0
 230 747 167 839 167 970 c 2
 167 983 l 1
 236 983 l 1
 236 965 l 2
 236 870 272 805 380 805 c 0
 470 805 546 858 546 1020 c 0
 546 1155 491 1240 406 1240 c 2
 327 1240 l 1
 327 1301 l 1
 406 1301 l 2
 492 1301 538 1360 538 1522 c 0
 538 1641 489 1701 398 1701 c 0
 286 1701 241 1648 241 1541 c 2
 241 1529 l 1
 172 1529 l 1
 172 1538 l 2
 172 1668 232 1759 397 1759 c 0
 544 1759 604 1650 604 1521 c 0
 604 1359 541 1286 477 1272 c 1
 530 1253 612 1207 612 1022 c 0
 612 864 534 747 374 747 c 0
EndSplineSet
EndChar

StartChar: tilde
Encoding: 365 732 433
Width: 693
VWidth: 0
GlyphClass: 2
Flags: HW
LayerCount: 2
UndoRedoHistory
Layer: 1
Undoes
EndUndoes
Redoes
EndRedoes
EndUndoRedoHistory
Fore
SplineSet
411 1518 m 0
 352 1526 306 1596 265 1608 c 0
 218 1622 180 1593 180 1530 c 1
 125 1530 l 1
 125 1534 136 1686 272 1656 c 0
 327 1644 374 1573 418 1565 c 0
 474 1555 507 1586 510 1658 c 1
 559 1658 l 1
 559 1641 552 1499 411 1518 c 0
EndSplineSet
EndChar

StartChar: tildecomb
Encoding: 370 771 434
Width: 693
VWidth: 0
GlyphClass: 2
Flags: HW
LayerCount: 2
UndoRedoHistory
Layer: 1
Undoes
EndUndoes
Redoes
EndRedoes
EndUndoRedoHistory
Fore
SplineSet
411 1518 m 0
 352 1526 306 1596 265 1608 c 0
 218 1622 180 1593 180 1530 c 1
 125 1530 l 1
 125 1534 136 1686 272 1656 c 0
 327 1644 374 1573 418 1565 c 0
 474 1555 507 1586 510 1658 c 1
 559 1658 l 1
 559 1641 552 1499 411 1518 c 0
EndSplineSet
EndChar

StartChar: trademark
Encoding: 512 8482 435
Width: 1370
VWidth: 0
GlyphClass: 2
Flags: HW
LayerCount: 2
UndoRedoHistory
Layer: 1
Undoes
EndUndoes
Redoes
EndRedoes
EndUndoRedoHistory
Fore
SplineSet
230 767 m 1
 230 1603 l 1
 28 1603 l 1
 28 1658 l 1
 482 1658 l 1
 482 1603 l 1
 294 1603 l 1
 294 767 l 1
 230 767 l 1
587 767 m 1
 587 1658 l 1
 665 1658 l 1
 926 881 l 1
 1186 1658 l 1
 1267 1658 l 1
 1267 767 l 1
 1206 767 l 1
 1206 1549 l 1
 939 767 l 1
 911 767 l 1
 649 1531 l 1
 649 767 l 1
 587 767 l 1
EndSplineSet
EndChar

StartChar: two
Encoding: 18 50 436
Width: 1010
VWidth: 0
GlyphClass: 2
Flags: HW
LayerCount: 2
UndoRedoHistory
Layer: 1
Undoes
EndUndoes
Redoes
EndRedoes
EndUndoRedoHistory
Fore
SplineSet
187 1209 m 1
 126 1209 l 1
 126 1234 l 2
 126 1543 248 1678 514 1678 c 0
 741 1678 866 1524 866 1266 c 0
 866 1075 754 898 649 741 c 2
 193 56 l 1
 835 56 l 1
 835 0 l 1
 122 0 l 1
 122 52 l 1
 599 770 l 2
 705 929 804 1076 804 1286 c 0
 804 1497 695 1622 515 1622 c 0
 241.892270741 1622 187 1458.71016419 187 1209 c 1
EndSplineSet
EndChar

StartChar: twosuperior
Encoding: 65541 178 437
Width: 791
VWidth: 0
GlyphClass: 2
Flags: HW
LayerCount: 2
UndoRedoHistory
Layer: 1
Undoes
EndUndoes
Redoes
EndRedoes
EndUndoRedoHistory
Fore
SplineSet
162 759 m 1
 162 817 l 1
 436 1228 l 1
 498 1323 550 1381 550 1506 c 0
 550 1632 502 1701 395 1701 c 0
 267 1701 220 1628 220 1479 c 1
 164 1479 l 1
 164 1494 l 2
 164 1678 237 1759 395 1759 c 0
 530 1759 619 1676 619 1513 c 0
 619 1399 571 1310 495 1198 c 2
 238 819 l 1
 586 819 l 1
 586 759 l 1
 162 759 l 1
EndSplineSet
EndChar

StartChar: u
Encoding: 85 117 438
Width: 770
VWidth: 0
GlyphClass: 2
Flags: HW
AnchorPoint: "ogonek" 621 0 basechar 0
LayerCount: 2
UndoRedoHistory
Layer: 1
Undoes
EndUndoes
Redoes
EndRedoes
EndUndoRedoHistory
Fore
SplineSet
652 1184 m 1
 652 0 l 1
 588 0 l 1
 588 147.886266245 l 1
 513.4839464 44.4614657448 408.250174935 -20 297 -20 c 0
 206 -20 107 27 107 245 c 2
 107 1184 l 1
 172 1184 l 1
 172 236 l 2
 172 67 233 30 308 30 c 0
 405.903334704 30 508.153636731 99.5514771605 588 199.744022638 c 1
 588 1184 l 1
 652 1184 l 1
EndSplineSet
EndChar

StartChar: underscore
Encoding: 63 95 446
Width: 948
VWidth: 0
GlyphClass: 2
Flags: HW
LayerCount: 2
UndoRedoHistory
Layer: 1
Undoes
EndUndoes
Redoes
EndRedoes
EndUndoRedoHistory
Fore
SplineSet
161 0 m 1
 161 70 l 1
 811 70 l 1
 811 0 l 1
 161 0 l 1
EndSplineSet
EndChar

StartChar: uni00AD
Encoding: 109 173 448
Width: 659
VWidth: 0
GlyphClass: 2
Flags: HW
LayerCount: 2
UndoRedoHistory
Layer: 1
Undoes
EndUndoes
Redoes
EndRedoes
EndUndoRedoHistory
Fore
SplineSet
117 510 m 1
 117 563 l 1
 558 563 l 1
 558 510 l 1
 117 510 l 1
EndSplineSet
EndChar

StartChar: uni00B2
Encoding: 114 -1 449
Width: 793
VWidth: 0
GlyphClass: 2
Flags: HW
LayerCount: 2
UndoRedoHistory
Layer: 1
Undoes
EndUndoes
Redoes
EndRedoes
EndUndoRedoHistory
Fore
SplineSet
113 587 m 1
 113 667 l 1
 101 651 442 1184 442 1184 c 2
 489 1259 576 1402 576 1498 c 0
 576 1656 525 1751 421 1751 c 0
 253 1751 223 1607 223 1430 c 1
 115 1430 l 1
 115 1682 201 1838 419 1838 c 0
 607 1838 684 1701 684 1499 c 0
 684 1392 600 1241 552 1161 c 1
 580 1200 236 656 253 678 c 1
 664 678 l 1
 664 587 l 1
 113 587 l 1
EndSplineSet
EndChar

StartChar: uni00B3
Encoding: 115 -1 450
Width: 745
VWidth: 0
GlyphClass: 2
Flags: HW
LayerCount: 2
UndoRedoHistory
Layer: 1
Undoes
EndUndoes
Redoes
EndRedoes
EndUndoRedoHistory
Fore
SplineSet
371 561 m 0
 170 561 91 715 91 963 c 1
 182 963 l 1
 182 787 213 645 372 645 c 0
 496 645 552 725 552 911 c 0
 552 981 478 1163 378 1192 c 1
 378 1245 l 1
 494 1289 552 1405 552 1473 c 0
 552 1632 501 1727 386 1727 c 0
 214 1727 182 1584 182 1407 c 1
 91 1407 l 1
 91 1658 175 1812 385 1812 c 0
 568 1812 643 1651 643 1489 c 0
 643 1388 567 1265 474 1219 c 1
 566 1157 643 997 643 910 c 0
 643 710 564 561 371 561 c 0
EndSplineSet
EndChar

StartChar: uni00B9
Encoding: 121 -1 451
Width: 586
VWidth: 0
GlyphClass: 2
Flags: HW
LayerCount: 2
UndoRedoHistory
Layer: 1
Undoes
EndUndoes
Redoes
EndRedoes
EndUndoRedoHistory
Fore
SplineSet
367 506 m 1
 309 506 l 1
 309 1589 l 1
 144 1485 l 1
 144 1550 l 1
 190 1573 296 1646 309 1658 c 1
 367 1658 l 1
 367 506 l 1
EndSplineSet
EndChar

StartChar: uni0237
Encoding: 358 567 492
Width: 391
VWidth: 0
GlyphClass: 2
Flags: HW
LayerCount: 2
UndoRedoHistory
Layer: 1
Undoes
EndUndoes
Redoes
EndRedoes
EndUndoRedoHistory
Fore
SplineSet
239 -76 m 2
 239 -268 154 -324 11 -324 c 2
 -29 -324 l 1
 -29 -266 l 1
 14 -266 l 2
 177 -266 175 -164 175 -75 c 2
 175 1184 l 1
 239 1184 l 1
 239 -76 l 2
EndSplineSet
EndChar

StartChar: U+02c9
Encoding: 535 713 493
Width: 817
VWidth: 0
GlyphClass: 2
Flags: HW
LayerCount: 2
UndoRedoHistory
Layer: 1
Undoes
EndUndoes
Redoes
EndRedoes
EndUndoRedoHistory
Fore
SplineSet
242 1352 m 1
 242 1404 l 1
 575 1404 l 1
 575 1352 l 1
 242 1352 l 1
EndSplineSet
EndChar

StartChar: uni0302
Encoding: 369 -1 494
Width: 637
VWidth: 0
Flags: HW
LayerCount: 2
UndoRedoHistory
Layer: 1
Undoes
EndUndoes
Redoes
EndRedoes
EndUndoRedoHistory
Fore
SplineSet
89 1287 m 1
 266 1658 l 1
 366 1658 l 1
 537 1287 l 1
 496 1287 l 1
 315 1627 l 1
 134 1287 l 1
 89 1287 l 1
EndSplineSet
EndChar

StartChar: uni0304
Encoding: 371 772 495
Width: 817
VWidth: 0
GlyphClass: 2
Flags: HW
LayerCount: 2
UndoRedoHistory
Layer: 1
Undoes
EndUndoes
Redoes
EndRedoes
EndUndoRedoHistory
Fore
SplineSet
242 1606 m 1
 242 1658 l 1
 575 1658 l 1
 575 1606 l 1
 242 1606 l 1
EndSplineSet
EndChar

StartChar: uni0306
Encoding: 372 -1 496
Width: 744
VWidth: 0
GlyphClass: 2
Flags: HW
LayerCount: 2
UndoRedoHistory
Layer: 1
Undoes
EndUndoes
Redoes
EndRedoes
EndUndoRedoHistory
Fore
SplineSet
373 1462 m 0
 268 1462 166 1509 157 1658 c 1
 211 1658 l 1
 216 1546 294 1510 372 1510 c 0
 451 1510 531 1546 541 1658 c 1
 595 1658 l 1
 586 1509 478 1462 373 1462 c 0
EndSplineSet
EndChar

StartChar: uni0307
Encoding: 373 775 497
Width: 0
VWidth: 0
GlyphClass: 2
Flags: HW
LayerCount: 2
UndoRedoHistory
Layer: 1
Undoes
EndUndoes
Redoes
EndRedoes
EndUndoRedoHistory
Fore
SplineSet
-29 1457 m 1
 -29 1658 l 1
 53 1658 l 1
 53 1457 l 1
 -29 1457 l 1
EndSplineSet
EndChar

StartChar: uni0308
Encoding: 374 -1 498
Width: 0
VWidth: 0
GlyphClass: 2
Flags: HW
LayerCount: 2
UndoRedoHistory
Layer: 1
Undoes
EndUndoes
Redoes
EndRedoes
EndUndoRedoHistory
Fore
SplineSet
123.5 1533 m 1
 123.5 1658 l 1
 193.5 1658 l 1
 193.5 1533 l 1
 123.5 1533 l 1
-193.5 1533 m 1
 -193.5 1658 l 1
 -123.5 1658 l 1
 -123.5 1533 l 1
 -193.5 1533 l 1
EndSplineSet
EndChar

StartChar: uni030A
Encoding: 375 -1 499
Width: 588
VWidth: 0
Flags: HW
LayerCount: 2
UndoRedoHistory
Layer: 1
Undoes
EndUndoes
Redoes
EndRedoes
EndUndoRedoHistory
Fore
SplineSet
294 1374 m 0
 229 1374 139 1410 139 1526 c 0
 139 1642 228 1678 294 1678 c 0
 359 1678 449 1642 449 1526 c 0
 449 1410 359 1374 294 1374 c 0
295 1417 m 0
 343 1417 400 1443 400 1526 c 0
 400 1610 343 1636 294 1636 c 0
 246 1636 190 1610 190 1526 c 0
 190 1443 247 1417 295 1417 c 0
EndSplineSet
EndChar

StartChar: uni030C
Encoding: 376 780 500
Width: 0
VWidth: 0
GlyphClass: 2
Flags: HW
LayerCount: 2
UndoRedoHistory
Layer: 1
Undoes
EndUndoes
Redoes
EndRedoes
EndUndoRedoHistory
Fore
SplineSet
-17 1335 m 1
 -188 1658 l 1
 -125 1658 l 1
 -1 1405 l 1
 123 1658 l 1
 185 1658 l 1
 12 1335 l 1
 -17 1335 l 1
EndSplineSet
EndChar

StartChar: uni030F
Encoding: 377 783 501
Width: 532
VWidth: 0
GlyphClass: 2
Flags: HW
LayerCount: 2
UndoRedoHistory
Layer: 1
Undoes
EndUndoes
Redoes
EndRedoes
EndUndoRedoHistory
Fore
SplineSet
397 1378 m 1
 265 1658 l 1
 342 1658 l 1
 430 1378 l 1
 397 1378 l 1
223 1378 m 1
 67 1658 l 1
 147 1658 l 1
 259 1378 l 1
 223 1378 l 1
EndSplineSet
EndChar

StartChar: uni0311
Encoding: 378 785 502
Width: 744
VWidth: 0
GlyphClass: 2
Flags: HW
LayerCount: 2
UndoRedoHistory
Layer: 1
Undoes
EndUndoes
Redoes
EndRedoes
EndUndoRedoHistory
Fore
SplineSet
379 1658 m 0
 484 1658 586 1611 595 1462 c 1
 541 1462 l 1
 536 1574 458 1610 380 1610 c 0
 301 1610 221 1574 211 1462 c 1
 157 1462 l 1
 166 1611 274 1658 379 1658 c 0
EndSplineSet
EndChar

StartChar: uni0326
Encoding: 379 806 503
Width: 500
VWidth: 0
GlyphClass: 2
Flags: HW
LayerCount: 2
UndoRedoHistory
Layer: 1
Undoes
EndUndoes
Redoes
EndRedoes
EndUndoRedoHistory
Fore
SplineSet
200 -423 m 1
 185 -406 l 1
 252 -343 257 -245 257 -214 c 1
 201 -214 l 1
 201 -89 l 1
 298 -89 l 1
 298 -184 l 2
 298 -303 272 -362 200 -423 c 1
EndSplineSet
EndChar

StartChar: U+0490
Encoding: 560 1168 508
Width: 760
VWidth: 0
GlyphClass: 2
Flags: HW
LayerCount: 2
UndoRedoHistory
Layer: 1
Undoes
EndUndoes
Redoes
EndRedoes
EndUndoRedoHistory
Fore
SplineSet
161 0 m 1
 161 1658 l 1
 667 1658 l 1
 667 1819 l 1
 714 1819 l 1
 713.825195312 1606 l 1
 225 1606 l 1
 225 0 l 1
 161 0 l 1
EndSplineSet
EndChar

StartChar: U+0491
Encoding: 561 1169 509
Width: 584
VWidth: 0
GlyphClass: 2
Flags: HW
LayerCount: 2
UndoRedoHistory
Layer: 1
Undoes
EndUndoes
Redoes
EndRedoes
EndUndoRedoHistory
Fore
SplineSet
135 0 m 1
 135 1184 l 1
 476 1184 l 1
 476 1315 l 1
 523 1315 l 1
 523 1252.33333333 523 1189.66666667 523 1127 c 1
 415 1127 307 1127 199 1127 c 1
 199 0 l 1
 135 0 l 1
EndSplineSet
EndChar

StartChar: U+04b0
Encoding: 562 1200 510
Width: 830
VWidth: 0
GlyphClass: 2
Flags: HW
LayerCount: 2
UndoRedoHistory
Layer: 1
Undoes
EndUndoes
Redoes
EndRedoes
EndUndoRedoHistory
Fore
SplineSet
390 0 m 1
 390 876 l 1
 0 876 l 1
 0 927 l 1
 365.374358974 927 l 1
 -2 1658 l 1
 72 1658 l 1
 426 953 l 1
 760 1658 l 1
 832 1658 l 1
 480.557692308 927 l 1
 830 927 l 1
 830 876 l 1
 457 876 l 1
 457 0 l 1
 390 0 l 1
EndSplineSet
EndChar

StartChar: U+04b1
Encoding: 563 1201 511
Width: 753
VWidth: 0
GlyphClass: 2
Flags: HW
VStem: 59 61<1125.82 1184> 343 66<15 72.7889> 637 62<1126.21 1184>
LayerCount: 2
UndoRedoHistory
Layer: 1
Undoes
EndUndoes
Redoes
EndRedoes
EndUndoRedoHistory
Fore
SplineSet
637 -128 m 1
 120 -128 l 1
 120 -77 l 1
 637 -77 l 1
 637 -128 l 1
409 -294 m 1
 343 -294 l 1
 343 17 l 2
 59 1184 l 1
 120 1184 l 1
 378 137 l 1
 637 1184 l 1
 699 1184 l 1
 409 15 l 1
 409 -294 l 1
EndSplineSet
EndChar

StartChar: uni2074
Encoding: 509 8308 526
Width: 750
VWidth: 0
GlyphClass: 2
Flags: HW
LayerCount: 2
UndoRedoHistory
Layer: 1
Undoes
EndUndoes
Redoes
EndRedoes
EndUndoRedoHistory
Fore
SplineSet
191 895 m 1
 454 895 l 1
 454 1547 l 1
 191 895 l 1
454 518 m 1
 454 839 l 1
 126 839 l 1
 126 891 l 1
 446 1658 l 1
 515 1658 l 1
 515 895 l 1
 649 895 l 1
 649 839 l 1
 515 839 l 1
 515 518 l 1
 454 518 l 1
EndSplineSet
EndChar

StartChar: U+2113
Encoding: 539 8467 527
Width: 344
VWidth: 0
GlyphClass: 2
Flags: HW
LayerCount: 2
UndoRedoHistory
Layer: 1
Undoes
EndUndoes
Redoes
EndRedoes
EndUndoRedoHistory
Fore
SplineSet
140 0 m 1
 140 1658 l 1
 204 1658 l 1
 204 0 l 1
 140 0 l 1
EndSplineSet
EndChar

StartChar: U+2215
Encoding: 555 8725 528
Width: 640
VWidth: 0
GlyphClass: 2
Flags: HW
LayerCount: 2
UndoRedoHistory
Layer: 1
Undoes
EndUndoes
Redoes
EndRedoes
EndUndoRedoHistory
Fore
SplineSet
38 0 m 1
 542 1658 l 1
 602 1658 l 1
 99 0 l 1
 38 0 l 1
EndSplineSet
EndChar

StartChar: U+2219
Encoding: 545 8729 529
Width: 415
VWidth: 0
GlyphClass: 2
Flags: HW
LayerCount: 2
UndoRedoHistory
Layer: 1
Undoes
EndUndoes
Redoes
EndRedoes
EndUndoRedoHistory
Fore
SplineSet
203 713 m 1
 203 836 l 1
 271 836 l 1
 271 713 l 1
 203 713 l 1
EndSplineSet
EndChar

StartChar: uniFB00
Encoding: 515 64256 530
Width: 924
VWidth: 0
GlyphClass: 2
Flags: HW
LayerCount: 2
UndoRedoHistory
Layer: 1
Undoes
EndUndoes
Redoes
EndRedoes
EndUndoRedoHistory
Fore
SplineSet
192 0 m 1
 192 1128 l 1
 -13 1128 l 1
 -13 1153 l 1
 192 1153 l 1
 192 1324 l 1
 189 1378 150 1617 378 1617 c 0
 396 1617 410 1617 462 1605 c 1
 462 1556 l 1
 445 1560 405 1562 394 1562 c 0
 246 1562 264 1448 264 1383 c 2
 264 1153 l 1
 638 1153 l 1
 637 1324 l 1
 635 1378 596 1617 824 1617 c 0
 842 1617 855 1617 908 1605 c 1
 908 1556 l 1
 891 1560 850 1562 840 1562 c 0
 692 1562 709 1448 709 1383 c 2
 709 1153 l 1
 913 1153 l 1
 913 1128 l 1
 709 1128 l 1
 709 0 l 1
 638 0 l 1
 638 1128 l 1
 264 1128 l 1
 264 0 l 1
 192 0 l 1
EndSplineSet
EndChar

StartChar: uniFB01
Encoding: 516 64257 531
Width: 834
VWidth: 0
GlyphClass: 2
Flags: HW
LayerCount: 2
UndoRedoHistory
Layer: 1
Undoes
EndUndoes
Redoes
EndRedoes
EndUndoRedoHistory
Fore
SplineSet
629 1494 m 1
 629 1616 l 1
 700 1616 l 1
 700 1494 l 1
 629 1494 l 1
192 0 m 1
 192 1128 l 1
 -13 1128 l 1
 -13 1153 l 1
 192 1153 l 1
 192 1324 l 1
 189 1378 150 1617 378 1617 c 0
 396 1617 410 1617 462 1605 c 1
 462 1556 l 1
 445 1560 405 1562 394 1562 c 0
 246 1562 264 1448 264 1383 c 2
 264 1153 l 1
 700 1153 l 1
 700 0 l 1
 629 0 l 1
 629 1128 l 1
 264 1128 l 1
 264 0 l 1
 192 0 l 1
EndSplineSet
EndChar

StartChar: uniFB02
Encoding: 517 64258 532
Width: 896
VWidth: 0
GlyphClass: 2
Flags: HW
LayerCount: 2
UndoRedoHistory
Layer: 1
Undoes
EndUndoes
Redoes
EndRedoes
EndUndoRedoHistory
Fore
SplineSet
192 0 m 1
 192 1128 l 1
 -13 1128 l 1
 -13 1153 l 1
 192 1153 l 1
 192 1381 l 1
 189 1636 347 1619 549 1619 c 0
 761 1619 847 1553 729 1558 c 1
 729 0 l 1
 658 0 l 1
 658 1558 l 1
 658 1558 544 1570 498 1570 c 0
 331 1570 264 1543 264 1383 c 2
 264 1153 l 1
 468 1153 l 1
 468 1128 l 1
 264 1128 l 1
 264 0 l 1
 192 0 l 1
EndSplineSet
EndChar

StartChar: uniFB03
Encoding: 518 64259 533
Width: 1270
VWidth: 0
GlyphClass: 2
Flags: HW
LayerCount: 2
UndoRedoHistory
Layer: 1
Undoes
EndUndoes
Redoes
EndRedoes
EndUndoRedoHistory
Fore
SplineSet
1065 1494 m 1
 1065 1616 l 1
 1136 1616 l 1
 1136 1494 l 1
 1065 1494 l 1
192 0 m 1
 192 1128 l 1
 -13 1128 l 1
 -13 1153 l 1
 192 1153 l 1
 192 1324 l 1
 189 1378 150 1617 378 1617 c 0
 396 1617 410 1617 462 1605 c 1
 462 1556 l 1
 445 1560 405 1562 394 1562 c 0
 246 1562 264 1448 264 1383 c 2
 264 1153 l 1
 638 1153 l 1
 637 1324 l 1
 635 1378 596 1617 824 1617 c 0
 842 1617 855 1617 908 1605 c 1
 908 1556 l 1
 891 1560 850 1562 840 1562 c 0
 692 1562 709 1448 709 1383 c 2
 709 1153 l 1
 1136 1153 l 1
 1136 0 l 1
 1065 0 l 1
 1065 1128 l 1
 709 1128 l 1
 709 0 l 1
 638 0 l 1
 638 1128 l 1
 264 1128 l 1
 264 0 l 1
 192 0 l 1
EndSplineSet
EndChar

StartChar: uniFB04
Encoding: 519 64260 534
Width: 1325
VWidth: 0
GlyphClass: 2
Flags: HW
LayerCount: 2
UndoRedoHistory
Layer: 1
Undoes
EndUndoes
Redoes
EndRedoes
EndUndoRedoHistory
Fore
SplineSet
192 0 m 1
 192 1128 l 1
 -13 1128 l 1
 -13 1153 l 1
 192 1153 l 1
 192 1324 l 1
 189 1378 150 1617 378 1617 c 0
 396 1617 410 1617 462 1605 c 1
 462 1556 l 1
 445 1560 405 1562 394 1562 c 0
 246 1562 264 1448 264 1383 c 2
 264 1153 l 1
 621 1153 l 1
 620 1381 l 2
 618 1636 774 1619 969 1619 c 0
 1184 1619 1275 1553 1158 1563 c 1
 1158 0 l 1
 1086 0 l 1
 1086 1558 l 1
 1086 1558 952 1570 901 1570 c 0
 752 1570 692 1543 692 1383 c 2
 692 1153 l 1
 977 1153 l 1
 977 1128 l 1
 692 1128 l 1
 692 0 l 1
 621 0 l 1
 621 1128 l 1
 264 1128 l 1
 264 0 l 1
 192 0 l 1
EndSplineSet
EndChar

StartChar: v
Encoding: 86 118 538
Width: 676
VWidth: 0
GlyphClass: 2
Flags: HW
LayerCount: 2
UndoRedoHistory
Layer: 1
Undoes
EndUndoes
Redoes
EndRedoes
EndUndoRedoHistory
Fore
SplineSet
314 0 m 1
 26 1184 l 1
 92 1184 l 1
 344 100 l 1
 588 1184 l 1
 650 1184 l 1
 376 0 l 1
 314 0 l 1
EndSplineSet
EndChar

StartChar: w
Encoding: 87 119 539
Width: 1114
VWidth: 0
GlyphClass: 2
Flags: HW
LayerCount: 2
UndoRedoHistory
Layer: 1
Undoes
EndUndoes
Redoes
EndRedoes
EndUndoRedoHistory
Fore
SplineSet
255 0 m 1
 57 1184 l 1
 119 1184 l 1
 300 48 l 1
 521 1184 l 1
 601 1184 l 1
 829 54 l 1
 995 1184 l 1
 1057 1184 l 1
 871 0 l 1
 787 0 l 1
 563 1122 l 1
 348 0 l 1
 255 0 l 1
EndSplineSet
EndChar

StartChar: x
Encoding: 88 120 544
Width: 726
VWidth: 0
GlyphClass: 2
Flags: HW
LayerCount: 2
UndoRedoHistory
Layer: 1
Undoes
EndUndoes
Redoes
EndRedoes
EndUndoRedoHistory
Fore
SplineSet
631 0 m 1
 367.447886867 545.534443967 l 1
 102 0 l 1
 35 0 l 1
 333.730934539 615.326177457 l 1
 59 1184 l 1
 130 1184 l 1
 370.926454979 675.520636906 l 1
 616 1184 l 1
 687 1184 l 1
 401.722740835 610.524554102 l 1
 691 0 l 1
 631 0 l 1
EndSplineSet
EndChar

StartChar: y
Encoding: 89 121 545
Width: 753
VWidth: 0
GlyphClass: 2
Flags: HW
HStem: -294 56<69 263.613>
LayerCount: 2
UndoRedoHistory
Layer: 1
Undoes
EndUndoes
Redoes
EndRedoes
EndUndoRedoHistory
Fore
SplineSet
69 -294 m 1
 69 -238 l 1
 318 -238 343 -168 343 -67 c 0
 343 -33 324 41 311 97 c 2
 59 1184 l 1
 120 1184 l 1
 384 23 l 1
 637 1184 l 1
 699 1184 l 1
 409 -110 l 1
 379 -235 305 -294 122 -294 c 2
 69 -294 l 1
EndSplineSet
EndChar

StartChar: yen
Encoding: 101 165 549
Width: 830
VWidth: 0
GlyphClass: 2
Flags: HW
LayerCount: 2
UndoRedoHistory
Layer: 1
Undoes
EndUndoes
Redoes
EndRedoes
EndUndoRedoHistory
Fore
SplineSet
390 0 m 1
 390 212 l 1
 159 212 l 1
 159 258 l 1
 390 258 l 1
 390 507 l 1
 159 507 l 1
 159 551 l 1
 375.342608696 551 l 1
 -2 1658 l 1
 72 1658 l 1
 426 583 l 1
 760 1658 l 1
 832 1658 l 1
 471.02173913 551 l 1
 683 551 l 1
 683 507 l 1
 457 507 l 1
 457 258 l 1
 683 258 l 1
 683 212 l 1
 457 212 l 1
 457 0 l 1
 390 0 l 1
EndSplineSet
EndChar

StartChar: z
Encoding: 90 122 551
Width: 645
VWidth: 0
GlyphClass: 2
Flags: HW
LayerCount: 2
UndoRedoHistory
Layer: 1
Undoes
EndUndoes
Redoes
EndRedoes
EndUndoRedoHistory
Fore
SplineSet
43 0 m 1
 43 51 l 1
 554 1133 l 1
 110 1133 l 1
 110 1184 l 1
 616 1184 l 1
 616 1133 l 1
 108 50 l 1
 608 50 l 1
 608 0 l 1
 43 0 l 1
EndSplineSet
EndChar

StartChar: zero
Encoding: 16 48 555
Width: 1010
VWidth: 0
GlyphClass: 2
Flags: HW
LayerCount: 2
UndoRedoHistory
Layer: 1
Undoes
EndUndoes
Redoes
EndRedoes
EndUndoRedoHistory
Fore
SplineSet
505 -24 m 0
 193 -24 128 181 128 464 c 2
 128 1194 l 2
 128 1477 208 1678 505 1678 c 0
 802 1678 882 1477 882 1194 c 2
 882 464 l 2
 882 180 819 -24 505 -24 c 0
505 21 m 0
 739 21 813 186 813 439 c 2
 813 1218 l 2
 813 1469 736 1633 505 1633 c 0
 275 1633 196 1469 196 1218 c 2
 196 439 l 2
 196 185 271 21 505 21 c 0
EndSplineSet
EndChar
